<svg preserveAspectRatio="none" width="100%" height="100%" overflow="visible" style="display: block;" viewBox="0 0 11 11" fill="none" xmlns="http://www.w3.org/2000/svg">
<g id="Icon" clip-path="url(#clip0_0_4)">
<path id="Vector" d="M1.83333 6.41667C1.7466 6.41696 1.66156 6.39264 1.5881 6.34653C1.51464 6.30042 1.45577 6.23441 1.41834 6.15618C1.3809 6.07794 1.36643 5.99069 1.3766 5.90455C1.38678 5.81842 1.42119 5.73694 1.47583 5.66958L6.01333 0.994583C6.04737 0.955296 6.09375 0.928747 6.14487 0.919294C6.19598 0.909842 6.24879 0.918047 6.29463 0.942564C6.34046 0.967081 6.3766 1.00645 6.39711 1.05422C6.41762 1.10198 6.42129 1.1553 6.4075 1.20542L5.5275 3.96458C5.50155 4.03403 5.49284 4.10874 5.5021 4.18229C5.51137 4.25585 5.53834 4.32606 5.58071 4.3869C5.62307 4.44775 5.67956 4.4974 5.74533 4.53162C5.81111 4.56583 5.8842 4.58357 5.95833 4.58333H9.16667C9.2534 4.58304 9.33844 4.60736 9.4119 4.65347C9.48536 4.69958 9.54423 4.76559 9.58167 4.84382C9.6191 4.92206 9.63357 5.00931 9.6234 5.09545C9.61322 5.18158 9.57881 5.26306 9.52417 5.33042L4.98667 10.0054C4.95263 10.0447 4.90625 10.0713 4.85513 10.0807C4.80402 10.0902 4.75121 10.082 4.70537 10.0574C4.65954 10.0329 4.6234 9.99355 4.60289 9.94578C4.58238 9.89802 4.57871 9.8447 4.5925 9.79458L5.4725 7.03542C5.49845 6.96597 5.50716 6.89126 5.4979 6.81771C5.48863 6.74415 5.46166 6.67394 5.41929 6.6131C5.37693 6.55225 5.32044 6.5026 5.25467 6.46838C5.18889 6.43417 5.1158 6.41643 5.04167 6.41667H1.83333Z" fill="#1C5D5F" stroke="#1C5D5F" stroke-width="0.916667" stroke-linecap="round" stroke-linejoin="round"/>
</g>
<defs>
<clipPath id="clip0_0_4">
<rect width="11" height="11" fill="white"/>
</clipPath>
</defs>
</svg>
