<svg xmlns="http://www.w3.org/2000/svg" width="505" height="143" viewBox="0 0 505 143" fill="none"><path d="M20.2814 0.0050849C27.4445 -0.00794148 36.8341 0.00598687 43.97 0.0251044C46.2065 0.0310336 45.074 0.0575377 46.6178 0.062824C49.6372 0.0731291 52.4502 0.0601304 55.434 0.0724065C56.4229 0.0766045 55.192 0.118587 56.2288 0.122028C61.9108 0.140582 67.2861 0.129888 73.042 0.138813C101.394 0.182843 129.263 0.198602 157.961 0.217731C167.424 0.224002 178.927 0.262103 188.701 0.245441C189.842 0.243458 189.162 0.206608 189.379 0.203571C192.784 0.157075 191.651 0.231467 193.875 0.241351C202.698 0.280377 212.51 0.283771 221.001 0.269549C224.614 0.263391 220.991 0.190198 224.629 0.23128C224.881 0.234056 223.965 0.273188 224.956 0.277362C227.202 0.286749 231.465 0.279755 233.206 0.282855C236.562 0.289028 237.117 0.288635 240.291 0.289081C244.63 0.290031 249.791 0.309483 254.447 0.300616C255.441 0.298607 254.125 0.258493 255.71 0.251666C257.296 0.244851 261.492 0.248252 262.907 0.257709C264.322 0.26717 263.72 0.298699 263.97 0.305926C266.03 0.366925 270.884 0.282442 271.509 0.280353C282.896 0.244753 292.661 0.29288 303.35 0.292743C311.465 0.292536 320.142 0.276648 327.863 0.278827C337.062 0.281578 344.858 0.303315 353.795 0.299579C354.738 0.29923 353.633 0.252065 354.785 0.251544C367.023 0.246056 379.176 0.251197 391.361 0.283038C392.583 0.286273 391.008 0.327684 392.229 0.333392C399.704 0.367424 411.532 0.449179 415.971 0.268878C421.035 0.275918 427.182 0.283193 431.712 0.319537C434.633 0.342929 431.796 0.388042 435.384 0.368792C436.193 0.364503 435.141 0.324995 436.354 0.321551C441.463 0.307088 447.045 0.31993 452.099 0.299518C453.127 0.295273 452.847 0.259872 453.138 0.253497C455.586 0.201871 459.661 0.287213 460.55 0.293414C467.315 0.339658 472.255 0.32146 478.558 0.322589C480.02 0.322871 478.291 0.27532 479.699 0.273883C485.116 0.268825 490.677 0.269772 496.106 0.279222C498.047 0.274793 499.955 0.993633 501.393 2.2216C502.585 3.33259 501.47 2.33129 502.019 2.87977C503.897 5.1166 504.168 6.23028 504.307 8.5C504.308 8.8686 504.307 9.27201 504.305 9.7244C504.302 10.4017 504.267 10.0201 504.263 10.1438C504.203 12.0771 504.288 13.7571 504.29 14.2544C504.316 20.5451 504.227 24.5661 504.24 30.6434C504.241 31.3704 504.285 29.7309 504.287 31.7746C504.299 45.3898 504.287 59.7895 504.252 73.2663C504.246 75.3617 504.214 73.8659 504.209 73.9978C504.146 76.1468 504.231 77.5374 504.234 78.2206C504.257 83.6107 504.186 88.6457 504.287 92.3079C504.266 106.41 504.279 120.473 504.271 134.5C504.374 138.854 500.444 142.765 496.106 142.651C491.626 142.643 487.149 142.63 482.676 142.612C482.388 142.611 482.904 142.569 482.33 142.568C475.415 142.544 476.743 142.609 472.168 142.689C471.015 142.709 467.509 142.613 467.199 142.606C466.068 142.58 467.241 142.517 466.862 142.512C463.73 142.473 464.241 142.679 460.016 142.679C459.884 142.679 460.439 142.641 460.084 142.637C458.983 142.625 457.89 142.64 456.812 142.627C454.345 142.597 453.466 142.497 449.698 142.555C449.221 142.563 449.949 142.679 446.177 142.674C444.674 142.672 438.017 142.674 436.152 142.666C434.289 142.658 435.568 142.621 435.435 142.619C430.415 142.569 432.318 142.549 429.803 142.475C427.288 142.401 427.985 142.577 426.96 142.596C425.933 142.616 422.252 142.575 421.348 142.56C420.444 142.546 421.571 142.522 420.767 142.514C415.437 142.461 418.428 142.601 416.671 142.629C412.53 142.695 409.305 142.565 405.515 142.552C404.489 142.549 405.326 142.578 404.413 142.581C400.795 142.592 398.62 142.551 394.504 142.588C393.831 142.594 390.504 142.672 388.35 142.615C388.045 142.607 388.912 142.574 387.37 142.567C385.067 142.556 380.918 142.549 378.442 142.56C376.614 142.568 378.709 142.621 376.408 142.605C375.386 142.597 377.281 142.566 375.36 142.555C373.449 142.544 368.564 142.545 366.705 142.546C364.849 142.547 365.865 142.588 365.715 142.59C364.807 142.606 361.246 142.625 360.931 142.625C345.057 142.63 330.419 142.562 314.963 142.585C313.75 142.586 314.558 142.629 314.373 142.63C310.221 142.648 313.495 142.534 310.594 142.496C311.013 142.583 309.301 142.567 306.376 142.577C304.967 142.581 305.734 142.615 305.606 142.618C303.516 142.669 302.06 142.603 301.685 142.59C300.301 142.54 298.795 142.599 297.853 142.566C296.911 142.533 299.078 142.484 296.273 142.485C295.486 142.516 297.569 142.597 295.439 142.61C287.403 142.66 272.404 142.596 265.943 142.59C259.495 142.583 257.412 142.589 253.655 142.577C246.868 142.557 249.355 142.617 245.141 142.645C240.914 142.672 242.969 142.524 242.361 142.493C241.765 142.461 241.114 142.494 240.372 142.476C239.632 142.459 241.233 142.437 239.494 142.43C237.754 142.424 232.996 142.48 232.38 142.514C231.076 142.584 233.22 142.658 228.615 142.632C228.351 142.631 229.21 142.592 228.196 142.588C220.142 142.558 211.776 142.556 203.732 142.529C202.626 142.526 203.615 142.482 202.971 142.48C196.267 142.452 198.663 142.525 194.989 142.606C195.814 142.498 193.782 142.432 188.694 142.432C185.635 142.431 186.162 142.478 184.183 142.512C183.59 142.522 181.425 142.489 181.033 142.511C179.74 142.584 181.779 142.665 176.532 142.633C176.302 142.631 177.035 142.591 176.24 142.589C171.099 142.573 170.484 142.649 164.927 142.658C160.571 142.665 152.825 142.619 147.865 142.612C147.97 142.49 143.285 142.518 141.385 142.602C138.166 142.598 134.69 142.603 131.579 142.592C130.508 142.588 131.211 142.553 131.076 142.549C129.006 142.489 127.607 142.571 126.912 142.574C119.382 142.605 113.248 142.543 106.061 142.603C105.806 142.606 105.393 142.69 103.472 142.628C103.348 142.624 105.721 142.586 102.341 142.583C98.9599 142.58 92.5864 142.535 87.8926 142.574C86.7568 142.583 83.8838 142.651 81.5779 142.598C81.2708 142.591 81.6069 142.567 81.1635 142.553C79.7299 142.51 78.9473 142.595 77.2625 142.523C75.5776 142.451 72.073 142.397 67.3394 142.447C67.1886 142.448 66.0681 142.515 64.5795 142.514C62.2031 142.513 58.8297 142.499 56.3484 142.499C55.1603 142.499 55.9208 142.541 55.7145 142.542C47.7266 142.565 42.0412 142.528 33.4839 142.512C31.9152 142.509 27.4071 142.566 24.3702 142.521C21.0356 142.471 24.4623 142.266 16.7975 142.315C14.4783 142.329 11.6964 142.48 8.10583 142.497C6.91176 142.505 5.61243 142.224 4.40351 141.548C1.78042 140.201 0.10413 137.359 0.136955 134.5C0.141495 126.906 0.168499 119.501 0.133745 111.653C0.131626 111.167 0.0587795 109.631 0.059771 108.488C0.0613838 106.793 0.0954308 105.862 0.0976737 104.651C0.107929 99.577 0.0787996 94.9338 0.0833305 90.0418C0.0849767 88.1845 0.120181 88.8339 0.122149 86.6187C0.124083 84.4048 0.0777261 82.9286 0.100115 79.9285C0.117181 77.6627 0.211934 75.3974 0.222978 72.3899C0.129515 72.2752 0.13144 70.2097 0.106768 66.5384C0.101981 65.8328 0.0694506 66.5894 0.0655083 66.2556C0.0487421 64.897 0.0757026 63.6397 0.0574517 62.3497C0.0530683 62.0359 0.0211499 62.0212 0.0157648 61.7646C-0.031241 59.5831 0.0405562 55.9892 0.0530571 55.3719C0.100533 53.0061 0.0590195 51.9006 0.0777153 50.0861C0.0964086 48.2745 0.119777 50.9832 0.131121 48.867C0.154584 44.4805 0.149429 38.8445 0.150896 34.3895C0.151284 32.612 0.108678 33.8247 0.107744 33.5703C0.0969383 29.8947 0.142259 26.1778 0.0573906 24.1397C0.276829 21.5913 0.0361063 21.9233 0.0800346 16.6694C0.0835876 16.2555 0.187358 15.729 0.202593 17.3179C0.217813 18.9067 0.185376 21.316 0.209124 23.5205C0.214697 24.0425 0.311936 27.0329 0.317827 27.4409C0.363862 30.637 0.208791 31.0899 0.200273 31.259C0.108358 33.1765 0.213115 36.8308 0.220354 37.7931C0.253522 42.1955 0.231713 45.9358 0.255388 49.618C0.270689 52.0262 0.372267 52.2618 0.369157 54.1528C0.358881 60.4391 0.217179 62.6334 0.340044 68.5572C0.366248 69.8273 0.477269 68.5651 0.38997 73.1164C0.384467 73.4024 0.304604 76.7815 0.355119 78.7338C0.361488 78.979 0.393844 78.9712 0.396562 79.2946C0.414143 81.4618 0.388367 82.9071 0.400712 85.268C0.413058 87.6286 0.431462 90.4672 0.420488 93.1625C0.413925 94.7868 0.353642 96.8711 0.338884 97.6487C0.296368 99.8443 0.366076 102.198 0.314592 103.559C0.262848 104.93 0.184268 102.249 0.150835 105.846C0.234897 105.979 0.321178 106.285 0.405717 106.499C0.402757 114.382 0.375575 122.137 0.379289 130.046C0.379833 131.027 0.425026 130.024 0.426774 131.075C0.428673 132.248 0.427816 133.382 0.425766 134.5C0.405995 137.478 2.17834 140.394 5.21267 141.629C6.10809 141.99 7.09916 142.184 8.10583 142.175C10.7703 142.157 13.5355 142.13 16.2074 142.121C18.4811 142.217 24.005 142.185 28.0176 142.194C29.4233 142.197 29.3293 142.222 30.3289 142.231C34.1002 142.262 32.333 142.177 33.3668 142.163C37.8025 142.106 38.1822 142.299 43.4118 142.294C43.6888 142.294 47.0756 142.191 47.542 142.185C50.5058 142.143 48.0325 142.22 49.8875 142.228C53.274 142.242 55.6275 142.266 59.6008 142.236C60.7595 142.227 63.5388 142.163 65.7887 142.213C66.0848 142.219 65.9211 142.253 66.1594 142.255C70.4718 142.288 70.5852 142.182 73.0494 142.146C75.5143 142.11 79.3209 142.183 80.0956 142.204C82.1224 142.259 78.5425 142.228 78.4328 142.233C77.1434 142.297 79.9198 142.286 82.0412 142.292C82.3483 142.396 85.3149 142.39 84.2404 142.297C84.1181 142.287 82.4672 142.296 82.0412 142.292C83.9033 142.189 87.1636 142.176 90.7647 142.272C92.4504 142.317 90.8569 142.369 95.9774 142.35C98.3013 142.341 97.4033 142.269 99.4541 142.25C104.139 142.205 110.228 142.272 115.058 142.262C116.811 142.258 115.103 142.218 116.301 142.214C119.481 142.204 122.285 142.233 125.478 142.218C125.768 142.217 125.061 142.175 126.054 142.175C133.582 142.17 140.137 142.197 147.997 142.197C151.795 142.198 158.584 142.175 162.518 142.179C169.337 142.187 177.725 142.247 183.549 142.232C187.348 142.223 186.515 142.182 188.143 142.154C191.284 142.099 196.844 142.197 197.593 142.212C197.616 142.213 194.347 142.222 196.091 142.243C197.105 142.287 197.556 142.212 197.593 142.212C198.084 142.222 204.615 142.231 205.912 142.223C206.616 142.219 206.222 142.18 206.589 142.178C215.322 142.143 224.069 142.134 232.926 142.152C233.082 142.153 232.847 142.196 233.214 142.198C238.341 142.217 241.624 142.164 245.853 142.132C250.081 142.1 253.434 142.111 255.937 142.186C259.127 142.176 263.704 142.209 266.338 142.23C268.971 142.25 269.339 142.165 269.571 142.163C276.799 142.109 280.977 142.158 288.476 142.165C292.041 142.169 299.113 142.157 302.973 142.148C306.023 142.14 307.861 142.16 310.672 142.147C311.052 142.145 310.668 142.108 310.784 142.106C313.922 142.061 312.414 142.153 313.062 142.17C315.41 142.23 316.861 142.262 320.878 142.234C321.805 142.227 324.504 142.094 326.193 142.086C328.389 142.076 327.561 142.124 329.86 142.113C330.057 142.112 330.016 142.082 331.435 142.083C338.023 142.089 345.206 142.106 352.052 142.103C352.987 142.103 351.788 142.056 353.139 142.055C359.479 142.05 366.428 142.051 372.605 142.073C374.125 142.079 373.172 142.111 373.502 142.121C375.528 142.18 378.402 142.095 378.876 142.093C390.185 142.052 398.84 142.129 410.366 142.092C410.994 142.09 415.823 141.999 417.978 142.077C418.126 142.082 420.257 142.163 422.142 142.108C422.26 142.104 420.931 142.063 423.249 142.067C425.568 142.071 429.298 142.044 432.485 142.089C433.494 142.104 435.878 142.184 438.887 142.12C439.083 142.115 443.729 141.971 445.387 142.071C445.656 142.087 445.375 142.192 448.966 142.138C449.653 142.128 448.407 142.104 450.215 142.09C452.985 142.067 456.655 142.095 460.06 142.048C460.654 142.04 463.181 141.968 465.209 142.023C465.527 142.031 464.923 142.066 465.994 142.07C471.086 142.089 476.418 142.066 481.588 142.09C483.42 142.099 482.483 142.156 484.392 142.171C486.302 142.186 490.148 142.201 492.145 142.175C494.143 142.149 491.961 142.058 494.954 142.051C495.338 142.05 495.722 142.049 496.106 142.048C500.135 142.135 503.742 138.509 503.649 134.5C503.657 126.109 503.681 117.737 503.686 109.321C503.687 107.394 503.655 108.992 503.654 106.152C503.652 95.6806 503.621 77.6027 503.69 68.5169C503.745 61.237 503.788 70.3983 503.81 64.8354C503.821 62.1509 503.715 59.2467 503.712 58.5987C503.678 52.2681 503.725 47.8686 503.711 42.1707C503.708 40.9941 503.665 42.1481 503.663 41.1467C503.655 37.7262 503.674 34.1313 503.671 30.8628C503.669 29.3965 503.637 29.6666 503.639 28.3174C503.645 25.0889 503.659 22.234 503.689 19.0867C503.692 18.7999 503.733 20.7341 503.734 18.3455C503.736 15.4135 503.754 11.945 503.749 8.5C503.748 7.45042 503.526 6.4066 503.11 5.46994C502.509 4.38517 502.635 4.17091 500.621 2.3898C500.396 2.21971 500.442 2.22109 500.212 2.05397C499.975 1.91246 499.482 1.48008 497.948 1.10386C497.775 1.06805 497.074 0.898676 496.106 0.913845C494.094 0.943525 491.037 0.974615 489.227 0.929887C488.508 0.912168 486.674 0.838833 485.087 0.850358C484.872 0.852197 485.734 0.892285 484.419 0.896195C479.784 0.909279 474.927 0.905002 470.166 0.917558C468.894 0.92099 470.788 0.962473 468.893 0.966264C463.682 0.976749 457.176 0.966186 452.08 0.953202C450.201 0.948336 451.5 0.913973 451.363 0.910233C449.165 0.849408 447.865 0.931508 447.135 0.936295C442.598 0.96496 439.142 0.926395 434.959 0.936601C433.805 0.939313 434.624 0.978459 434.394 0.981949C432.011 1.01605 433.786 0.945754 432.278 0.938004C428.052 0.916062 423.341 0.919208 419.068 0.92421C417.498 0.926105 419.262 0.971496 417.854 0.972672C409.516 0.980494 400.849 0.97615 392.712 0.951127C391.18 0.946333 392.144 0.911381 391.824 0.903397C389.624 0.847545 386.398 0.923728 385.656 0.930985C382.282 0.964121 380.971 0.933212 377.991 0.938981C363.432 0.967705 345.457 0.947234 331.715 0.934586C313.808 0.918309 299.913 0.885059 282.836 0.893693C281.751 0.894198 282.845 0.940695 281.91 0.941727C269.831 0.952936 257.939 0.934767 245.836 0.948197C244.842 0.949217 246.274 0.993297 244.68 0.996415C241.41 1.00312 237.268 1.00072 233.962 0.986649C232.349 0.979868 234.512 0.942043 232.889 0.93599C229.11 0.921809 225.059 0.91867 221.177 0.925736C219.524 0.92884 222.017 0.973922 219.87 0.974442C205.243 0.978915 190.877 0.986679 176.096 0.9283C175.083 0.92429 174.193 0.832665 172.039 0.850236C171.877 0.875664 171.885 0.905576 171.815 0.932755C150.521 0.947396 129.445 0.915633 108.092 0.910722C107.192 0.910525 108.748 0.959073 107.005 0.958939C96.9168 0.958222 87.1206 0.971671 76.8016 0.923417C75.7778 0.918698 76.303 0.833291 73.2858 0.846208C72.7537 0.848565 68.2094 0.859955 67.0345 0.878495C66.875 0.881292 67.704 0.921156 66.2397 0.922318C57.7301 0.928372 48.8126 0.919271 40.3178 0.894914C38.9468 0.890906 40.4068 0.848454 39.4303 0.845231C32.5036 0.822696 24.9692 0.854967 18.3504 0.816423C13.92 0.79047 15.5603 0.717087 13.206 0.644853C12.873 0.634662 10.1296 0.633047 9.98772 0.591021C9.62349 0.48534 10.9523 0.369621 10.4071 0.256976C10.2919 0.232713 6.61769 0.258846 8.79304 0.200214C8.94501 0.19629 11.6088 0.17683 12.2649 0.15694C12.7217 0.143188 11.8985 0.100447 12.8305 0.0828435C13.7625 0.0652564 14.7865 0.101084 16.3317 0.080402C17.8761 0.0594636 17.197 0.0108407 20.2814 0.0050849ZM278.197 142.319C280.635 142.36 280.995 142.211 278.358 142.247C278.23 142.248 278.071 142.317 278.197 142.319ZM0.262773 122.093C0.196812 125.281 0.293801 127.463 0.344743 125.214C0.39563 122.965 0.282768 121.122 0.262773 122.093ZM0.214617 89.0324C0.16261 92.7586 0.374674 93.3452 0.331804 89.3542C0.329381 89.1221 0.217636 88.8146 0.214617 89.0324ZM24.1239 0.624285C24.0902 0.622299 22.1181 0.620363 22.071 0.622331C21.0209 0.669827 24.9642 0.673665 24.1239 0.624285ZM0.162188 56.2252C0.133501 57.3884 0.166616 60.7377 0.202288 59.2924C0.230984 58.1289 0.197872 54.7765 0.162188 56.2252ZM405.412 142.479C405.451 142.481 406.864 142.483 406.836 142.471C406.74 142.43 404.772 142.442 405.412 142.479ZM3.84052 1.79452C0.732972 3.76122 0.0673089 7.09413 0.0840461 8.5C0.0529584 9.73589 0.0206103 9.91117 0.00476275 8.5C0.00493653 7.73603 0.0622803 6.43481 0.879879 4.81533C1.28236 4.09577 0.821393 4.86124 0.546791 5.64453C0.27247 6.42767 0.141813 7.18706 0.407092 6.1827C1.64471 2.65284 4.15122 0.56723 8.03411 0.440211C8.38963 0.455995 7.36827 0.417904 6.25703 0.71603C5.13496 0.985921 4.02205 1.66534 3.8284 1.80255C3.83244 1.79987 3.83648 1.7972 3.84052 1.79452ZM279.601 142.499C279.65 142.501 281.607 142.503 281.654 142.501C282.714 142.453 278.771 142.45 279.601 142.499ZM487.913 142.572C488.021 142.576 492.563 142.58 492.711 142.576C495.08 142.498 485.898 142.49 487.913 142.572ZM147.787 142.609C145.652 142.656 143.097 142.662 141.394 142.602C143.517 142.605 145.653 142.606 147.787 142.609Z" fill="white"/></svg>
