<svg width="482" height="202" viewBox="0 0 482 202" fill="none" xmlns="http://www.w3.org/2000/svg">
<path d="M0.317505 17.5C0.317505 8.66345 7.48095 1.5 16.3175 1.5H465.318C474.154 1.5 481.318 8.66344 481.318 17.5V184.5C481.318 193.337 474.154 200.5 465.318 200.5H16.3175C7.48095 200.5 0.317505 193.337 0.317505 184.5V17.5Z" fill="white"/>
<path d="M0.317505 17.5C0.317505 8.66345 7.48095 1.5 16.3175 1.5H465.318C474.154 1.5 481.318 8.66344 481.318 17.5V184.5C481.318 193.337 474.154 200.5 465.318 200.5H16.3175C7.48095 200.5 0.317505 193.337 0.317505 184.5V17.5Z" fill="#FF5F40" fill-opacity="0.1"/>
<path d="M29.01 0.0152547C36.4771 -0.0238245 46.2654 0.0179605 53.7043 0.0753131C56.0357 0.0931009 54.8551 0.172613 56.4645 0.188472C59.6121 0.219387 62.5445 0.180391 65.655 0.217219C66.6858 0.229814 65.4026 0.355761 66.4835 0.366084C72.4067 0.421745 78.0102 0.389665 84.0105 0.416438C113.566 0.548528 142.618 0.595807 172.535 0.653192C182.399 0.672006 194.391 0.786308 204.58 0.736322C205.769 0.730373 205.06 0.619823 205.286 0.610712C208.836 0.471225 207.655 0.694402 209.973 0.724054C219.171 0.841131 229.399 0.851313 238.251 0.808648C242.017 0.790173 238.241 0.570593 242.033 0.693841C242.296 0.702169 241.341 0.819565 242.373 0.832086C244.716 0.860247 249.159 0.839264 250.974 0.848565C254.472 0.867085 255.051 0.865904 258.36 0.867242C262.883 0.870092 268.264 0.928449 273.117 0.901849C274.153 0.895822 272.781 0.775478 274.433 0.754999C276.087 0.734553 280.461 0.744757 281.936 0.773126C283.411 0.801509 282.783 0.896098 283.044 0.917779C285.192 1.10077 290.252 0.847326 290.903 0.841058C302.774 0.73426 312.953 0.87864 324.096 0.878228C332.556 0.877609 341.601 0.829944 349.65 0.83648C359.239 0.844733 367.367 0.909946 376.682 0.898736C377.666 0.897691 376.513 0.756194 377.714 0.754632C390.472 0.738167 403.141 0.753591 415.844 0.849114C417.118 0.858819 415.476 0.983052 416.748 1.00018C424.541 1.10227 436.871 1.34754 441.499 0.806634C446.777 0.827755 453.185 0.849578 457.907 0.958611C460.952 1.02879 457.995 1.16413 461.735 1.10638C462.578 1.09351 461.482 0.974986 462.747 0.964654C463.592 0.957762 464.451 0.952937 465.318 0.94945C470.093 0.870389 474.974 3.22798 477.954 6.73306C478.673 7.58094 478.555 7.29069 478.765 7.52939C480.652 9.53601 481.74 13.9836 481.74 14.9326C481.859 15.8103 481.906 16.6664 481.895 17.5C481.811 23.3374 481.853 28.0156 481.85 33.7906C481.849 35.3152 481.992 33.5131 481.996 34.9801C482.016 42.5888 482.004 50.4706 481.941 57.9207C481.926 59.5779 481.805 58.054 481.792 58.8459C481.735 62.3377 481.965 63.1117 481.915 66.4605C481.905 67.1666 481.801 66.7688 481.79 66.8977C481.61 68.9132 481.864 70.6645 481.87 71.1829C481.947 77.7407 481.681 81.9324 481.719 88.2676C481.724 89.0255 481.855 87.3164 481.861 89.4469C481.897 103.64 481.861 118.651 481.756 132.7C481.739 134.884 481.641 133.325 481.628 133.463C481.438 135.703 481.693 137.152 481.703 137.865C481.772 143.484 481.558 148.732 481.862 152.55C481.815 163.221 481.823 173.871 481.822 184.5C482.036 193.308 474.071 201.215 465.318 200.952C460.647 200.928 455.981 200.891 451.317 200.837C451.017 200.834 451.555 200.708 450.956 200.703C443.748 200.632 445.132 200.827 440.363 201.066C439.161 201.126 435.507 200.838 435.183 200.817C434.005 200.739 435.227 200.552 434.832 200.537C431.568 200.418 432.1 201.037 427.695 201.037C427.558 201.036 428.136 200.922 427.767 200.911C426.618 200.875 425.48 200.92 424.356 200.881C421.784 200.791 420.868 200.49 416.939 200.665C416.442 200.688 417.202 201.038 413.269 201.022C411.702 201.015 404.763 201.021 402.818 200.998C400.876 200.975 402.209 200.862 402.071 200.858C396.837 200.708 398.822 200.646 396.2 200.425C393.578 200.204 394.305 200.73 393.236 200.789C392.166 200.847 388.329 200.724 387.385 200.681C386.443 200.638 387.619 200.567 386.781 200.542C381.224 200.384 384.342 200.803 382.511 200.887C378.194 201.084 374.832 200.694 370.88 200.656C369.811 200.646 370.684 200.735 369.731 200.743C365.96 200.775 363.693 200.653 359.402 200.765C358.701 200.783 355.232 201.017 352.987 200.845C352.669 200.82 353.573 200.723 351.966 200.701C349.565 200.669 345.239 200.647 342.658 200.68C340.753 200.704 342.937 200.864 340.538 200.814C339.473 200.792 341.448 200.698 339.446 200.665C337.454 200.631 332.361 200.635 330.423 200.638C328.488 200.641 329.547 200.763 329.391 200.771C328.445 200.818 324.732 200.876 324.404 200.876C307.856 200.891 292.596 200.686 276.485 200.754C275.22 200.759 276.063 200.887 275.87 200.889C271.541 200.943 274.954 200.603 271.93 200.489C272.367 200.748 270.582 200.701 267.533 200.73C266.064 200.744 266.864 200.844 266.73 200.855C264.551 201.008 263.034 200.81 262.643 200.77C261.2 200.621 259.63 200.797 258.648 200.698C257.666 200.599 259.925 200.453 257.001 200.455C256.181 200.548 258.352 200.791 256.131 200.83C247.755 200.979 232.118 200.789 225.383 200.769C218.661 200.749 216.49 200.766 212.573 200.732C205.498 200.672 208.091 200.852 203.698 200.935C199.292 201.017 201.434 200.573 200.801 200.478C200.179 200.383 199.5 200.481 198.727 200.428C197.956 200.376 199.625 200.311 197.812 200.291C195.998 200.272 191.038 200.441 190.395 200.541C189.036 200.752 191.271 200.974 186.471 200.896C186.195 200.892 187.091 200.775 186.034 200.763C177.638 200.673 168.916 200.668 160.531 200.588C159.378 200.577 160.409 200.447 159.738 200.44C152.749 200.356 155.247 200.575 151.417 200.819C152.277 200.495 150.159 200.297 144.855 200.295C141.666 200.294 142.215 200.435 140.153 200.535C139.534 200.565 137.278 200.468 136.869 200.534C135.521 200.751 137.646 200.995 132.177 200.898C131.937 200.893 132.701 200.774 131.872 200.767C126.513 200.72 125.872 200.947 120.079 200.975C115.538 200.996 107.463 200.858 102.293 200.835C102.401 200.471 97.518 200.555 95.5371 200.806C92.1817 200.795 88.5578 200.809 85.3147 200.775C84.1986 200.763 84.9319 200.658 84.7911 200.646C82.6329 200.468 81.1743 200.712 80.4501 200.721C72.6006 200.814 66.2053 200.629 58.7142 200.81C58.4483 200.817 58.0176 201.069 56.0149 200.885C55.8855 200.872 58.3595 200.757 54.8357 200.748C51.3112 200.739 44.6671 200.604 39.7741 200.721C38.5899 200.749 35.595 200.954 33.1913 200.794C32.8711 200.772 33.2215 200.7 32.7592 200.659C31.2648 200.531 30.4489 200.786 28.6926 200.569C26.9362 200.352 23.2828 200.19 18.3482 200.34C18.2212 200.343 17.4339 200.476 16.3175 200.525C16.0504 200.537 15.766 200.537 15.4691 200.521C12.9722 200.455 9.54583 199.302 7.42791 197.802C6.4113 197.094 6.98833 197.648 6.8106 197.527C2.29559 194.199 0.218571 189.515 0.221308 184.5C0.242522 181.99 0.265808 179.348 0.282035 176.372C0.2912 174.736 0.119764 170.037 0.255301 166.871C0.403673 163.395 1.02087 166.967 0.87383 158.977C0.815015 155.754 0.0319843 151.674 0.437674 145.882C0.337147 134.65 0.544777 124.263 0.401236 112.999C0.394877 112.493 0.176339 110.891 0.179313 109.7C0.184151 107.932 0.286292 106.962 0.293021 105.7C0.323788 100.41 0.236399 95.5699 0.249991 90.4702C0.25493 88.534 0.360543 89.2111 0.366446 86.9017C0.37225 84.5939 0.233178 83.055 0.300345 79.9276C0.351542 77.5656 0.635802 75.2041 0.668935 72.0689C0.388545 71.9493 0.39432 69.7961 0.320304 65.969C0.305943 65.2334 0.208352 66.0222 0.196525 65.6742C0.146226 64.258 0.227108 62.9473 0.172355 61.6025C0.159205 61.2754 0.0634498 61.2599 0.0472943 60.9925C-0.093723 58.7184 0.121669 54.9719 0.159171 54.3284C0.301599 51.8623 0.177058 50.7098 0.233146 48.8182C0.289226 46.9297 0.359331 49.7534 0.393363 47.5474C0.463753 42.9747 0.448288 37.0994 0.452689 32.4553C0.453853 30.6023 0.326035 31.8665 0.323233 31.6013C0.290815 27.7697 0.426777 23.8949 0.172172 21.7704C0.639103 19.886 0.411539 19.5124 0.286786 17.5C0.240571 16.6747 0.243979 15.5524 0.623763 13.9929C0.740932 13.5694 1.13137 13.1231 0.852331 14.7234C0.736651 15.4908 0.617702 16.4535 0.60931 17.5C0.598939 18.6649 0.590144 19.924 0.627371 21.1248C0.64409 21.669 0.935809 24.7864 0.95348 25.2117C1.09159 28.5434 0.626372 29.0155 0.60082 29.1919C0.325074 31.1907 0.639346 35.0003 0.661062 36.0034C0.760565 40.5927 0.69514 44.4917 0.766164 48.3302C0.812067 50.8407 1.1168 51.0863 1.10747 53.0576C1.07664 59.6108 0.651538 61.8982 1.02013 68.0735C1.09874 69.3976 1.43181 68.0817 1.16991 72.8263C1.1534 73.1244 0.913812 76.647 1.06536 78.6822C1.08447 78.9377 1.18153 78.9297 1.18969 79.2667C1.24243 81.5259 1.1651 83.0326 1.20214 85.4937C1.23917 87.9545 1.29439 90.9137 1.26146 93.7234C1.24178 95.4167 1.06093 97.5894 1.01665 98.4C0.889103 100.689 1.09823 103.143 0.943776 104.561C0.788545 105.991 0.552803 103.195 0.452505 106.945C0.704691 107.084 0.963535 107.403 1.21715 107.626C1.20827 115.843 1.12673 123.928 1.13787 132.173C1.1395 133.195 1.27508 132.15 1.28032 133.246C1.30186 137.869 1.20521 141.907 1.2437 146.701C1.27401 150.412 1.41756 154.481 1.45372 158.362C1.16515 160.732 1.26311 166.49 1.23674 170.673C1.22763 172.139 1.15056 172.041 1.12542 173.083C1.03242 177.014 1.28743 175.172 1.32756 176.25C1.47207 180.151 1.08378 181.042 0.967444 184.5C0.946432 185.118 0.967866 185.817 1.08214 186.63C1.0327 186.941 2.20666 190.109 2.49446 190.473C3.88731 193.021 2.56656 190.974 3.45617 192.575C5.26435 195.36 7.05569 197.176 10.7133 198.643C11.7239 199.05 14.1768 199.555 16.3175 199.616C16.4571 199.623 16.5954 199.63 16.7318 199.639C17.0404 199.658 16.8698 199.76 17.1181 199.766C21.6136 199.865 21.7319 199.546 24.3007 199.437C26.8701 199.329 30.8384 199.55 31.646 199.613C33.7588 199.778 30.0271 199.684 29.9126 199.7C28.5685 199.892 31.4628 199.859 33.6742 199.875C33.9943 200.188 37.087 200.17 35.9667 199.891C35.8393 199.86 34.1182 199.889 33.6742 199.875C35.6154 199.568 39.0141 199.528 42.7681 199.816C44.5254 199.95 42.864 200.107 48.2021 200.05C50.6246 200.024 49.6885 199.808 51.8264 199.749C56.7106 199.615 63.0573 199.816 68.0927 199.785C69.9202 199.773 68.14 199.655 69.389 199.643C72.7035 199.611 75.6267 199.7 78.9556 199.654C79.2572 199.65 78.5202 199.526 79.5554 199.525C87.403 199.51 94.2363 199.59 102.43 199.592C106.389 199.593 113.467 199.525 117.568 199.538C124.676 199.561 133.42 199.741 139.492 199.697C143.452 199.669 142.583 199.546 144.28 199.462C147.555 199.298 153.351 199.591 154.131 199.636C154.155 199.638 150.747 199.667 152.566 199.73C153.623 199.862 154.093 199.637 154.131 199.636C154.644 199.665 161.452 199.693 162.803 199.67C163.538 199.657 163.127 199.54 163.51 199.535C172.613 199.43 181.732 199.401 190.965 199.455C191.127 199.458 190.882 199.589 191.264 199.593C196.609 199.651 200.032 199.491 204.44 199.395C208.848 199.3 212.343 199.332 214.952 199.557C218.278 199.529 223.049 199.628 225.795 199.689C228.54 199.749 228.923 199.494 229.165 199.489C236.7 199.327 241.055 199.473 248.873 199.496C252.589 199.507 259.961 199.47 263.985 199.443C267.165 199.42 269.081 199.48 272.011 199.442C272.408 199.436 272.007 199.323 272.128 199.319C275.399 199.183 273.827 199.46 274.502 199.51C276.95 199.69 278.463 199.786 282.651 199.701C283.617 199.682 286.431 199.282 288.191 199.259C290.481 199.229 289.617 199.372 292.014 199.338C292.219 199.335 292.176 199.247 293.656 199.25C300.524 199.267 308.011 199.319 315.148 199.31C316.123 199.309 314.873 199.169 316.281 199.165C322.891 199.149 330.135 199.154 336.574 199.219C338.158 199.236 337.165 199.334 337.509 199.363C339.621 199.54 342.616 199.284 343.111 199.279C354.9 199.155 363.922 199.387 375.938 199.277C376.592 199.271 381.627 198.996 383.873 199.231C384.027 199.247 386.249 199.488 388.214 199.323C388.336 199.313 386.951 199.189 389.368 199.202C391.785 199.214 395.674 199.131 398.996 199.268C400.047 199.311 402.533 199.551 405.67 199.359C405.874 199.346 410.717 198.913 412.446 199.212C412.726 199.261 412.433 199.577 416.177 199.415C416.892 199.384 415.594 199.313 417.478 199.269C420.366 199.201 424.192 199.286 427.741 199.145C428.36 199.12 430.995 198.905 433.109 199.068C433.44 199.094 432.811 199.199 433.928 199.211C439.236 199.268 444.794 199.197 450.184 199.27C452.093 199.296 451.117 199.467 453.107 199.512C455.097 199.558 459.106 199.602 461.189 199.524C463.272 199.446 460.996 199.174 464.117 199.152C464.517 199.149 464.917 199.147 465.318 199.144C473.129 199.275 480.132 192.31 480 184.5C480.025 179.768 480.05 175.033 480.058 170.285C480.062 168.276 479.964 169.942 479.962 166.981C479.955 156.066 479.864 137.221 480.071 127.749C480.236 120.16 480.363 129.71 480.43 123.911C480.462 121.113 480.146 118.085 480.136 117.41C480.035 110.81 480.175 106.224 480.132 100.284C480.123 99.0578 479.995 100.261 479.988 99.2169C479.966 95.6512 480.023 91.9036 480.013 88.4963C480.008 86.9678 479.91 87.2494 479.918 85.8429C479.935 82.4773 479.976 79.5012 480.068 76.2203C480.076 75.9213 480.198 77.9377 480.202 75.4477C480.209 71.4177 480.3 66.4154 480.206 61.7789C480.178 60.4032 479.954 60.3492 480.109 57.3921C480.141 56.7718 480.41 57.5632 480.178 54.1185C480.139 53.5391 479.826 47.7526 480.028 44.9127C480.081 44.1636 480.301 42.2515 480.266 40.5971C480.261 40.3727 480.141 41.2715 480.129 39.9007C480.09 35.0693 480.103 30.0059 480.065 25.0424C480.055 23.7169 479.93 25.6911 479.919 23.7157C479.907 21.7734 479.904 19.6585 479.907 17.5C479.951 13.939 478.492 10.3584 476.45 7.99142C475.257 6.65287 476.164 7.49894 476.088 7.39371C474.745 5.72179 473.478 5.25991 472.893 4.9096C470.327 3.45075 467.857 2.84712 465.318 2.81402C464.012 2.80522 462.692 2.79998 461.293 2.8098C460.089 2.81794 460.943 2.93538 460.703 2.94585C458.219 3.04816 460.069 2.83726 458.497 2.81401C454.092 2.74819 449.181 2.75762 444.727 2.77263C443.09 2.77832 444.929 2.91449 443.461 2.91802C434.769 2.94148 425.734 2.92845 417.252 2.85338C415.655 2.839 416.659 2.73414 416.327 2.71019C414.032 2.54264 410.67 2.77118 409.896 2.79296C406.378 2.89236 405.012 2.79964 401.905 2.81694C386.729 2.90311 367.991 2.8417 353.666 2.80376C334.998 2.75493 320.513 2.65518 302.711 2.68108C301.58 2.68259 302.721 2.82209 301.745 2.82518C289.153 2.85881 276.757 2.8043 264.14 2.84459C263.104 2.84765 264.597 2.97989 262.935 2.98924C259.526 3.00936 255.208 3.00217 251.762 2.95995C250.081 2.9396 252.336 2.82613 250.644 2.80797C246.704 2.76543 242.481 2.75601 238.434 2.77721C236.712 2.78652 239.31 2.92177 237.072 2.92333C221.823 2.93674 206.848 2.96004 191.439 2.7849C190.383 2.77287 189.456 2.498 187.21 2.55071C187.041 2.62699 187.05 2.71673 186.976 2.79827C164.779 2.84219 142.808 2.7469 120.549 2.73216C119.61 2.73158 121.232 2.87722 119.415 2.87682C108.899 2.87466 98.6867 2.91501 87.9297 2.77025C86.8624 2.75609 87.4099 2.49987 84.2647 2.53862C83.7099 2.54569 78.9727 2.57987 77.748 2.63549C77.5816 2.64388 78.4459 2.76347 76.9194 2.76696C68.0485 2.78512 58.7524 2.75781 49.897 2.68474C48.4678 2.67272 49.9898 2.54536 48.9718 2.53569C41.751 2.46809 33.8968 2.5649 26.997 2.44927C22.3785 2.37141 24.0884 2.15126 21.6342 1.93456C21.2871 1.90399 18.4272 1.89914 18.2793 1.77306C17.8996 1.45602 19.2848 1.10886 18.7164 0.770929C18.5963 0.69814 14.7662 0.776538 17.0339 0.600641C17.1923 0.588869 19.9692 0.53049 20.6531 0.47082C21.1293 0.429565 20.2712 0.301341 21.2428 0.24853C22.2143 0.195769 23.2818 0.303253 24.8926 0.241206C26.5026 0.178391 25.7946 0.032522 29.01 0.0152547ZM238.157 199.958C240.699 200.081 241.075 199.632 238.325 199.74C238.192 199.745 238.026 199.952 238.157 199.958ZM0.78832 123.882C0.590437 127.206 0.881404 129.48 1.03423 127.135C1.18689 124.791 0.848305 122.87 0.78832 123.882ZM0.64385 89.4179C0.487829 93.3023 1.12402 93.9138 0.995411 89.7534C0.988144 89.5115 0.652909 89.1909 0.64385 89.4179ZM33.0156 1.87285C32.9805 1.8669 30.9246 1.86109 30.8755 1.86699C29.7808 2.00948 33.8916 2.02099 33.0156 1.87285ZM0.486563 55.218C0.400504 56.4306 0.499849 59.922 0.606863 58.4153C0.692953 57.2024 0.593615 53.7078 0.486563 55.218ZM370.774 200.437C370.814 200.444 372.287 200.45 372.258 200.412C372.158 200.29 370.107 200.325 370.774 200.437ZM11.7065 2.34337C7.59044 3.56772 5.03364 6.10758 4.16208 6.92018C3.36872 7.87157 3.53528 6.53184 7.46428 3.77772C8.202 3.32614 7.4172 3.8341 6.74582 4.38573C6.07368 4.93793 5.50379 5.50408 6.35689 4.83304C9.54745 2.55049 12.1467 1.26775 16.2424 1.31986C16.6125 1.34165 15.5525 1.39168 14.3772 1.62038C13.1963 1.83286 11.9281 2.27119 11.6923 2.34845C11.697 2.34675 11.7018 2.34506 11.7065 2.34337ZM239.621 200.497C239.672 200.503 241.712 200.509 241.761 200.503C242.866 200.36 238.756 200.349 239.621 200.497ZM456.777 200.715C456.889 200.727 461.624 200.739 461.779 200.727C464.249 200.494 454.676 200.47 456.777 200.715ZM102.211 200.826C99.985 200.969 97.3219 200.986 95.5473 200.806C97.7596 200.815 99.9868 200.817 102.211 200.826Z" fill="#FF6B6B"/>
</svg>
