<svg width="149" height="26" viewBox="0 0 149 26" fill="none" xmlns="http://www.w3.org/2000/svg">
<path id="Vector 1" d="M1.33683 3.87633C2.35584 4.39101 3.74203 4.91133 4.80264 5.25798C5.13501 5.36699 5.02441 5.17603 5.25587 5.24552C5.70821 5.38135 6.08446 5.61074 6.53294 5.73269C6.68177 5.77247 6.58801 5.50538 6.74211 5.55146C7.5856 5.80508 8.32471 6.17085 9.15073 6.46372C13.2521 7.91999 17.4783 9.50278 21.5307 10.9166C22.9649 11.4205 24.7372 11.8676 26.1397 12.4588C26.3034 12.5281 26.1416 12.6658 26.1683 12.6915C26.5885 13.0889 26.548 12.6793 26.8891 12.7485C28.2422 13.0236 29.6607 13.5007 30.8478 13.9819C31.3527 14.187 30.7178 14.357 31.3032 14.3396C31.3457 14.3394 31.2709 14.1072 31.4271 14.1384C31.7842 14.2105 32.4183 14.4615 32.6857 14.5348C33.2016 14.6752 33.2843 14.7048 33.7612 14.8609C34.4135 15.0724 35.2126 15.2322 35.8876 15.4973C36.0315 15.5544 35.7751 15.6823 35.9991 15.7906C36.2236 15.8991 36.8474 16.0816 37.0693 16.1025C37.2915 16.1237 37.2508 15.9453 37.2986 15.9226C37.6935 15.7286 38.2742 16.3548 38.362 16.3931C39.9495 17.0781 41.4763 17.2922 43.1111 17.7762C44.3398 18.1404 45.6148 18.5894 46.7579 18.898C48.1381 19.2695 49.22 19.4513 50.6419 19.8457C50.7869 19.8857 50.5564 20.0689 50.7335 20.1181C52.6143 20.6403 54.4577 21.0739 56.2954 21.3459C56.4796 21.3729 56.2948 21.1164 56.4815 21.1312C57.581 21.2186 59.5454 21.2429 60.028 22.2691C60.8177 22.4061 61.7641 22.5694 62.4847 22.5322C62.9488 22.5082 62.5669 22.1998 63.0871 22.4042C63.2043 22.4499 63.007 22.6114 63.1858 22.6653C63.9394 22.8919 64.7792 22.9913 65.5061 23.2333C65.6653 23.2851 65.5878 23.4505 65.6281 23.4906C65.9697 23.8183 66.6901 23.5173 66.8341 23.5119C67.9356 23.4776 68.6818 23.6999 69.6459 23.8555C69.8693 23.8913 69.5664 24.082 69.78 24.1247C70.8989 24.3448 71.9915 24.4947 73.128 24.554C73.3849 24.5671 73.181 24.3328 73.3051 24.3287C73.8505 24.3126 73.9143 24.7079 74.4321 24.6961C74.5409 24.694 74.5045 24.514 74.5265 24.4978C74.8705 24.2434 75.0755 24.698 75.1522 24.7177C76.1172 24.9745 76.7906 24.6128 77.7045 24.7832C77.8138 24.8039 77.5399 24.9929 77.8487 25.0377C79.8057 25.3275 82.2771 25.4999 84.2917 25.4608C84.6113 25.4557 84.3957 25.2757 84.4171 25.2568C84.7634 24.9624 84.9436 25.3999 85.0456 25.4225C85.8136 25.5872 86.7027 25.2768 87.2453 25.8082C90.8004 25.7946 94.371 26.0853 97.8602 25.4337C97.9057 25.4258 97.8119 25.2213 97.9025 25.2066C98.9876 25.0235 98.7945 25.36 99.5365 25.7055C99.7243 25.792 100.222 25.2689 100.265 25.2296C100.425 25.0855 100.221 24.7903 100.276 24.7603C100.729 24.5224 100.746 25.5565 101.379 25.4956C101.398 25.492 101.297 25.3113 101.348 25.2874C101.497 25.2132 101.697 25.2686 101.861 25.1856C102.243 24.9927 102.327 24.4807 102.952 24.6996C103.031 24.7277 102.989 25.3234 103.576 25.2212C103.812 25.1812 104.834 25.0494 105.105 24.968C105.378 24.8881 105.158 24.7311 105.177 24.72C105.888 24.3572 105.565 24.3027 105.91 23.8729C106.249 23.4436 106.284 24.3259 106.464 24.3941C106.646 24.4624 107.188 24.1553 107.312 24.0583C107.439 23.9617 107.243 23.877 107.359 23.8138C108.122 23.397 107.8 24.1713 108.095 24.2547C108.795 24.4494 109.131 23.7107 109.669 23.5206C109.829 23.4656 109.729 23.641 109.878 23.6202C110.465 23.5348 110.752 23.2541 111.422 23.2675C111.531 23.2701 112.137 23.5087 112.372 23.141C112.405 23.0883 112.234 22.9697 112.447 22.8694C112.606 22.7942 112.83 22.7038 113.059 22.6234C113.314 22.5352 113.571 22.4573 113.768 22.4207C114.059 22.3663 113.825 22.7259 114.148 22.5299C114.291 22.4425 113.956 22.3916 114.226 22.2399C114.497 22.0895 115.206 21.8399 115.466 21.7443C115.728 21.6497 115.658 21.893 115.684 21.8978C115.836 21.924 116.38 21.8115 116.44 21.7856C118.806 20.8282 120.671 19.4515 122.606 17.9972C122.763 17.8766 122.8 18.1239 122.826 18.1072C123.42 17.7085 122.632 17.6464 122.852 17.1918C123.094 17.5557 123.254 17.3099 123.605 17.0184C123.773 16.8777 123.812 17.0785 123.838 17.0762C124.248 17.0153 124.157 16.6146 124.15 16.5187C124.114 16.18 124.495 16.168 124.454 15.9444C124.409 15.7277 124.019 15.8523 124.27 15.5081C124.468 15.4961 124.611 15.9998 124.859 15.7568C125.082 15.5394 125.336 15.1799 125.533 14.764C125.725 14.3579 125.87 13.8981 125.93 13.3858C126.067 12.4268 125.701 11.4158 125.39 10.956C124.745 10.0004 124.393 9.82729 123.844 9.53498C122.831 9.12668 123.264 9.02364 122.648 8.66133C122.019 8.34132 122.161 9.15312 122.03 9.28135C121.906 9.41471 121.846 9.23325 121.714 9.29556C121.585 9.35894 121.804 9.51219 121.538 9.49361C121.256 9.46651 120.605 9.11207 120.518 8.94349C120.34 8.58053 120.715 8.22307 119.951 8.32183C119.907 8.32839 120.043 8.52645 119.876 8.54189C118.585 8.65995 117.207 8.83945 116.083 9.1941C115.92 9.24498 116.111 9.42796 116.017 9.46005C115.027 9.8092 115.315 9.37782 114.628 9.12576C114.758 9.36544 114.764 9.58393 114.643 9.76947C114.517 9.96324 114.253 10.1208 113.862 10.2265C113.406 10.3508 113.425 10.1022 113.094 10.0207C112.993 9.99657 112.739 10.2353 112.644 10.1472C112.343 9.85678 112.54 9.37604 111.775 9.76692C111.743 9.78455 111.909 9.94201 111.793 9.98896C111.055 10.2925 110.87 9.95014 109.997 10.192C109.832 10.2383 109.646 10.3106 109.456 10.397C109.255 10.487 109.003 10.609 108.787 10.7245C108.374 10.9468 107.892 11.2297 107.559 11.4186C107.859 11.9417 107.126 12.1684 106.663 11.9997C106.55 12.085 106.414 12.1935 106.307 12.2946C106.197 12.3998 106.102 12.4935 105.984 12.6673C105.877 12.8353 105.806 12.9708 105.771 13.2212C105.741 13.4473 105.805 13.6882 105.896 13.8397C106.035 14.0559 106.105 13.8158 106.137 13.8358C106.375 13.9368 106.443 14.0228 106.488 14.1519C106.533 14.2769 106.555 14.4209 106.607 14.4653C107.66 15.2737 108.711 15.1693 109.712 15.7332C109.75 15.7527 109.718 16.1791 110.098 15.9477C110.118 15.9303 109.791 15.6631 110.319 15.7625C110.812 15.855 111.852 15.8206 112.534 16.1283C112.707 16.2047 113.102 16.6139 113.486 16.4011C113.538 16.3723 113.504 16.2452 113.582 16.1888C113.831 16.0094 113.89 16.4484 114.206 16.1282C114.537 15.8099 115.074 15.6122 115.776 15.9534C115.798 15.9636 115.929 16.3206 116.166 16.3446C116.542 16.3827 117.042 16.3717 117.431 16.4186C117.615 16.441 117.473 16.6356 117.504 16.6431C118.737 16.9017 119.636 16.8078 120.945 16.8548C121.184 16.8629 121.861 17.2147 122.357 17.0335C122.886 16.8334 122.452 15.762 123.604 16.1112C124.072 16.251 124.576 17.605 125.477 17.0018C127.142 17.3087 128.704 17.0829 130.339 17.4443C130.413 17.4605 130.623 17.8413 130.801 17.8493C131.065 17.8607 131.222 17.7015 131.412 17.704C132.206 17.7103 132.894 17.9054 133.66 17.9364C133.95 17.9484 133.86 17.7658 134.207 17.7801C134.552 17.7944 134.756 18.0409 135.226 17.9609C135.581 17.8997 135.963 17.4509 136.434 17.4275C136.418 17.8948 136.75 17.9077 137.301 18.0682C137.407 18.0994 137.28 18.2539 137.33 18.277C137.533 18.3746 137.735 18.253 137.927 18.3572C137.974 18.3823 137.966 18.5417 138.003 18.5712C138.324 18.8281 138.905 18.5068 139.005 18.4507C139.387 18.238 139.55 18.4568 139.834 18.3817C140.117 18.3066 139.71 18.1628 140.038 18.1275C140.717 18.0544 141.586 18.1367 142.281 18.1742C142.558 18.1902 142.355 18.3906 142.394 18.3978C142.957 18.4883 143.542 18.2988 143.83 18.7425C144.294 17.6729 144.164 18.8707 144.994 18.7037C145.06 18.6901 145.175 18.1776 144.933 18.0857C144.691 17.994 144.307 18.1319 143.974 17.9915C143.895 17.9586 143.465 17.4437 143.404 17.4103C142.928 17.149 142.809 17.9183 142.78 17.9591C142.461 18.399 141.919 17.8391 141.774 17.7934C141.102 17.5837 140.519 17.655 139.963 17.4999C139.602 17.3995 139.592 16.8899 139.298 16.8861C138.319 16.873 137.934 17.5575 137.07 16.8838C136.882 16.7397 137.114 16.1991 136.377 16.5868C136.331 16.6112 135.78 16.9741 135.497 16.7015C135.462 16.6671 135.474 16.5058 135.425 16.4889C135.098 16.3783 134.868 16.4917 134.513 16.4051C134.152 16.3183 133.714 16.1953 133.294 16.2207C133.041 16.2358 132.7 16.5136 132.576 16.5787C132.222 16.7666 131.896 16.3937 131.661 16.6347C131.428 16.8772 131.819 17.2995 131.245 17.4254C131.255 17.0046 131.239 16.5709 131.236 16.1469C130.016 16.0725 128.814 16.1179 127.599 16.0033C127.45 15.9888 127.621 15.7756 127.461 15.7542C126.805 15.6661 126.16 15.7753 125.469 15.6531C124.934 15.5576 124.353 15.2676 123.781 15.1565C123.378 15.6039 122.587 15.3688 121.94 15.3517C121.721 15.3462 121.723 15.4755 121.565 15.5025C120.971 15.601 121.284 15.2041 121.132 15.1222C120.49 14.7722 120.342 15.7247 119.528 15.6167C119.484 15.6113 119.021 15.0467 118.956 15.0073C118.533 14.7522 118.862 15.1769 118.581 15.1843C118.067 15.1976 117.664 15.2755 117.087 15.056C116.914 14.9907 116.555 14.6255 116.163 14.8253C116.113 14.8517 116.117 15.023 116.079 15.0282C115.393 15.1076 115.45 14.5769 115.11 14.3493C114.784 14.1236 114.123 14.3999 114 14.4883C113.655 14.7144 114.216 14.6387 114.231 14.6676C114.383 15.0129 113.962 14.8971 113.645 14.8761C113.52 15.3857 113.089 15.2871 113.318 14.8522C113.343 14.8048 113.577 14.8902 113.645 14.8761C113.456 14.3294 112.962 14.1866 112.346 14.5665C112.055 14.743 112.263 15.0487 111.504 14.812C111.154 14.7016 111.359 14.3747 111.076 14.2188C110.469 13.8703 109.488 13.9908 108.837 13.7332C108.618 13.6446 108.894 13.525 108.751 13.4587C108.337 13.2683 107.942 13.2723 107.694 13.0467C107.677 13.0287 107.826 12.8772 107.763 12.8373C107.632 12.7684 107.612 12.6547 107.771 12.9472C107.838 13.0743 107.887 13.3796 107.829 13.5785C107.777 13.7735 107.712 13.8333 107.693 13.8499C107.652 13.8674 107.78 13.7211 107.915 13.621C108.046 13.5168 108.305 13.3617 108.5 13.2652C108.948 13.0327 109.901 12.78 110.438 12.572C111.362 12.2053 112.495 11.5576 113.376 11.3907C113.926 11.2878 113.865 11.5188 114.139 11.5906C114.421 11.6649 114.759 11.5034 115.04 11.319C115.275 11.1599 115.454 10.9892 115.498 10.9426C115.503 10.9379 114.999 11.0109 115.237 10.8438C115.339 10.5922 115.493 10.9429 115.498 10.9426C115.565 10.8719 116.5 10.6266 116.68 10.6403C116.781 10.6442 116.76 10.8461 116.812 10.8447C118.073 10.8041 119.269 10.7501 120.451 10.7535C120.471 10.7512 120.459 10.531 120.507 10.5285C121.143 10.4863 121.623 10.8584 121.976 11.1386C122.407 11.4471 122.637 11.5234 123.053 11.3502C123.299 11.5708 123.642 11.7118 123.84 11.8739C124.035 12.0361 123.633 12.213 123.632 12.2254C123.574 12.4811 123.572 12.662 123.579 12.8894C123.582 13.1232 123.578 13.4281 123.424 13.8035C123.269 14.2072 122.764 14.8357 122.352 15.2152C122.08 15.4624 121.983 15.7028 121.657 15.9193C121.613 15.9485 121.524 15.7736 121.507 15.7791C121.038 15.8986 121.496 16.1062 121.483 16.2292C121.404 16.6939 121.391 16.9178 120.846 17.1535C120.72 17.2088 120.021 16.8923 119.798 16.9948C119.512 17.1279 119.717 17.2785 119.436 17.3912C119.411 17.4012 119.337 17.2742 119.18 17.3801C118.46 17.8668 117.505 18.4708 116.653 18.8455C116.531 18.9002 116.589 18.6164 116.411 18.6913C115.557 19.0518 114.627 19.4294 113.829 19.8278C113.628 19.928 113.814 20.0359 113.784 20.0979C113.598 20.4754 113.045 20.2089 112.975 20.2229C111.331 20.5395 110.184 21.2431 108.469 21.4352C108.378 21.445 107.6 21.1418 107.361 21.588C107.346 21.6178 107.108 22.074 106.775 21.8565C106.754 21.8428 106.915 21.6029 106.572 21.6876C106.236 21.7712 105.618 21.7382 105.197 22.035C105.066 22.1283 104.786 22.5785 104.3 22.326C104.268 22.3089 103.492 21.6883 103.31 22.2136C103.28 22.2999 103.392 22.8188 102.814 22.618C102.703 22.5786 102.878 22.439 102.595 22.3991C102.166 22.3367 101.596 22.5419 101.062 22.3581C100.973 22.3253 100.578 22.0038 100.308 22.3004C100.266 22.3469 100.369 22.5145 100.214 22.5479C99.4778 22.7073 98.6695 22.6484 97.8806 22.8165C97.6003 22.8755 97.7616 23.1516 97.4681 23.2439C97.1805 23.3363 96.5491 23.439 96.273 23.3193C95.9758 23.2006 96.2773 22.7354 95.8392 22.7151C93.9748 22.6259 91.8084 22.8995 89.9671 22.8941C89.6795 22.893 89.9223 22.7368 89.4977 22.7226C87.937 22.6767 85.1107 22.3697 83.7769 22.6082C82.659 22.7995 84.0256 23.116 83.1753 23.1627C82.7631 23.1841 82.3621 22.6205 82.2646 22.5953C81.3103 22.3431 80.5976 22.5087 79.7103 22.3441C79.5402 22.3113 79.731 22.1164 79.586 22.0907C79.0911 22.0011 78.551 22.0369 78.0669 21.9629C77.8496 21.9291 77.909 21.7717 77.7064 21.7603C77.2213 21.7309 76.7835 21.7459 76.2861 21.8363C76.2407 21.8445 76.5091 22.0838 76.1447 22.0446C75.5551 21.9803 74.7955 22.0302 74.1238 21.777C73.9243 21.7011 73.9705 21.3312 73.4892 21.5214C73.3921 21.5614 73.4291 22.0203 72.9908 21.5637C72.9191 21.4883 72.1881 20.8493 71.7334 21.1179C71.6138 21.1888 71.2847 21.508 71.0573 21.4129C71.0267 21.3987 71.1868 21.2215 70.9943 21.1706C70.3152 20.9946 69.5812 20.8931 68.8679 20.705C68.6775 20.6543 69.0011 20.5003 68.7163 20.4312C67.9333 20.241 66.9218 20.1097 66.1134 20.0218C65.8346 19.9934 65.992 20.1983 65.9684 20.2129C65.5924 20.4507 65.4801 20.0108 65.3786 19.9667C64.7449 19.6975 64.1996 19.7855 63.5902 19.6094C63.4218 19.5612 63.5823 19.3942 63.5517 19.3701C63.2328 19.1308 63.4254 19.5291 63.1936 19.521C62.5433 19.4992 61.8392 19.3346 61.1975 19.1702C60.9618 19.1095 61.277 18.9455 61.065 18.8935C59.8199 18.5836 58.4335 18.2903 57.2623 18.142C57.0339 18.1126 57.1339 18.3158 57.0782 18.3437C56.6932 18.5397 56.3088 18.0557 56.2086 17.9941C55.7523 17.7135 55.5226 17.8165 55.0886 17.68C52.9904 17.0182 50.1417 16.3725 48.2028 15.897C45.5933 15.2554 43.3987 14.7836 40.9058 13.9727C40.7517 13.9226 40.9763 13.7485 40.8444 13.7025C39.138 13.1177 37.3849 12.6548 35.6194 12.0039C35.4744 11.9508 35.7545 11.811 35.5241 11.7188C35.052 11.5281 34.434 11.3353 33.9184 11.2366C33.667 11.188 33.9297 11.4757 33.6777 11.423C33.0977 11.3031 32.4512 11.1003 31.9352 10.8863C31.7071 10.7918 32.1319 10.699 31.8297 10.5927C29.7715 9.86319 27.7211 9.09648 25.4547 8.57968C25.2993 8.54425 25.0115 8.92687 24.7244 8.7279C24.7444 8.59977 24.7972 8.45987 24.8337 8.32848C21.6322 7.0728 18.7999 6.15678 15.6536 4.93445C15.5229 4.88356 15.8377 4.74753 15.5852 4.64783C14.1438 4.07839 12.6443 3.39857 11.1708 3.05312C11.0195 3.01637 10.9303 3.44161 10.5347 3.20854C10.4653 3.16728 9.85284 2.85213 9.72381 2.69797C9.70686 2.67578 9.89928 2.53991 9.69675 2.44943C8.51823 1.92669 7.24252 1.4387 5.98472 1.03436C5.78152 0.969421 5.90623 1.25345 5.76072 1.20884C4.7287 0.890769 3.71037 0.27553 2.67579 0.034782C1.9824 -0.126122 2.07296 0.313637 1.58609 0.494866C1.5173 0.520434 1.11452 0.352576 1.0092 0.535774C0.743476 0.996187 0.705005 1.61122 0.398886 2.09193C0.333404 2.19576 -0.152508 1.8393 0.0483275 2.2479C0.0627572 2.27573 0.413814 2.53617 0.469808 2.66924C0.509066 2.76151 0.302789 2.90445 0.403909 3.04485C0.505065 3.18516 0.726686 3.08663 0.910937 3.27992C1.09451 3.47424 0.89843 3.65411 1.33683 3.87633ZM124.473 12.9142C124.641 13.2326 123.897 13.1301 124.108 12.8968C124.119 12.886 124.464 12.8993 124.473 12.9142ZM128.78 16.6797C128.258 16.9704 127.961 16.4606 128.328 16.2337C128.695 16.007 128.94 16.5916 128.78 16.6797ZM133.863 17.2926C133.265 17.5114 133.249 16.4473 133.854 16.7046C133.889 16.7192 133.898 17.2799 133.863 17.2926ZM3.12748 1.27857C3.11871 1.28563 2.82982 1.17085 2.82688 1.15881C2.76976 0.875164 3.34709 1.10473 3.12748 1.27857ZM138.908 17.8975C138.718 18.0287 138.212 17.8292 138.447 17.666C138.636 17.5348 139.145 17.7343 138.908 17.8975ZM109.603 23.1613C109.593 23.1751 109.393 23.2315 109.383 23.169C109.348 22.9693 109.657 22.9562 109.603 23.1613ZM147.521 18.4658C146.242 18.4242 145.42 19.2493 146.809 19.239C147.061 19.2372 146.286 18.9257 146.611 18.8673C147.204 18.7611 147.558 19.3347 148.177 19.079C148.289 19.0321 147.594 18.4663 147.519 18.4645C147.519 18.4649 147.52 18.4654 147.521 18.4658ZM125.342 13.208C125.353 13.2159 125.305 13.5197 125.291 13.5255C125.03 13.6262 125.122 13.051 125.342 13.208ZM97.0095 25.273C96.9828 25.296 96.286 25.3457 96.2686 25.3263C95.8897 24.9541 97.2963 24.8528 97.0095 25.273ZM107.556 11.4385C107.194 11.3472 106.682 11.6109 106.665 11.9986C106.793 11.898 106.937 11.8007 107.096 11.7035C107.176 11.6549 107.259 11.6063 107.346 11.5573C107.416 11.5169 107.484 11.4787 107.556 11.4385Z" fill="#A78BFA"/>
</svg>
