<svg width="17" height="19" viewBox="0 0 17 19" fill="none" xmlns="http://www.w3.org/2000/svg">
<path id="Vector 2" d="M16.698 4.51234C16.5834 4.421 16.3617 4.44007 16.1861 4.49478C16.1293 4.51118 16.1224 4.64605 16.081 4.66294C15.9961 4.69477 15.9575 4.61784 15.8759 4.66022C15.8489 4.67495 15.8236 4.88521 15.7964 4.89595C15.6478 4.95341 15.5307 4.8672 15.395 4.877C14.6937 4.91655 14.0259 4.80641 13.3359 4.70183C13.1105 4.66779 12.7859 4.76938 12.5862 4.62183C12.5627 4.60434 12.6318 4.43277 12.6312 4.41672C12.6199 4.17037 12.5382 4.53427 12.4721 4.56587C12.207 4.68928 11.9813 4.6379 11.8034 4.50855C11.7283 4.45316 11.9207 4.12955 11.7753 4.29964C11.7653 4.31107 11.7289 4.50462 11.6997 4.5174C11.6333 4.54602 11.5464 4.48247 11.5015 4.48474C11.415 4.49019 11.4028 4.48431 11.3287 4.46356C11.2272 4.43689 11.0772 4.49188 10.9834 4.41594C10.9635 4.39918 11.0539 4.21733 11.0277 4.17332C11.0014 4.12936 10.8997 4.11517 10.8528 4.14996C10.806 4.18478 10.7724 4.3395 10.7558 4.37214C10.6164 4.64797 10.6312 4.20964 10.62 4.19512C10.41 3.94187 10.1131 4.09966 9.86601 4.01952C9.67895 3.9583 9.50326 3.81796 9.32236 3.77057C9.1064 3.71477 8.89196 3.75893 8.69295 3.67374C8.67187 3.66496 8.77098 3.44931 8.74542 3.43815C8.47113 3.31888 8.1878 3.25179 7.85502 3.30804C7.82171 3.31392 7.79213 3.5224 7.75489 3.54001C7.52804 3.64341 7.12766 3.93945 7.31357 3.0504C7.18547 3.04402 7.03362 3.03056 6.87226 3.16728C6.76801 3.25514 6.75993 3.49088 6.70848 3.37141C6.69662 3.34465 6.78537 3.16628 6.76277 3.1403C6.66768 3.03108 6.51862 3.04746 6.43782 2.91129C6.42155 2.88316 6.48608 2.7182 6.48998 2.68581C6.51984 2.42289 6.28808 2.79393 6.25617 2.81561C6.02292 2.97895 5.94022 2.85334 5.79732 2.80868C5.76419 2.79842 5.88224 2.58803 5.8533 2.57013C5.69816 2.47893 5.51657 2.43557 5.32367 2.47794C5.28043 2.48785 5.24371 2.68994 5.2195 2.70441C5.1115 2.76512 5.22328 2.39874 5.12185 2.44972C5.10057 2.45998 5.04982 2.62602 5.04046 2.64287C4.89351 2.90742 5.00103 2.49574 4.99315 2.48289C4.89613 2.31117 4.65612 2.69379 4.53603 2.58205C4.52228 2.56843 4.63639 2.37691 4.59319 2.35123C4.31618 2.18272 3.96994 2.11414 3.60909 2.15663C3.55483 2.16365 3.52397 2.32903 3.51356 2.34673C3.34863 2.62225 3.47834 2.21567 3.46862 2.19432C3.38801 2.03621 3.15058 2.32248 3.27153 1.82232C3.13242 1.80841 3.01716 1.77232 2.9157 1.72672C2.87482 1.70916 2.81557 1.67678 2.79745 1.66497C2.78872 1.65993 2.77821 1.6508 2.8022 1.66996C2.81735 1.68381 2.82056 1.68184 2.87288 1.74075C2.91852 1.80653 3.11047 1.99478 3.03523 2.42205C3.02715 2.44841 3.03103 2.4724 2.97142 2.6015C2.92884 2.66505 2.90955 2.78923 2.61839 2.96639C2.47454 3.05039 2.21314 3.10072 2.00091 3.03688C1.78712 2.97707 1.6629 2.86102 1.59296 2.78273C1.36109 2.46788 1.42739 2.44687 1.40124 2.39471C1.39581 2.36483 1.39852 2.37905 1.39727 2.37167C1.39532 2.35863 1.39438 2.34995 1.39377 2.3435C1.3926 2.33079 1.39273 2.32672 1.39303 2.32613C1.39372 2.32465 1.39546 2.34159 1.39697 2.3567C1.39976 2.37668 1.40334 2.40434 1.40789 2.43775C1.41706 2.51668 1.42989 2.56634 1.44965 2.6373C1.48897 2.79516 1.55563 2.90165 1.6692 3.05939C1.67438 3.06702 1.88397 3.05556 1.89339 3.07082C2.00923 3.23766 1.68406 3.19823 1.28461 3.30469C1.18431 3.33107 1.66383 3.42554 1.69895 3.43435C1.8284 3.46512 2.14039 3.43904 2.16541 3.44912C2.36175 3.53459 1.33152 3.50337 1.32982 3.60278C1.3315 3.6059 1.52135 3.59551 1.54009 3.60409C1.59894 3.63076 1.52321 3.65566 1.58813 3.68247C1.73836 3.74414 2.23878 3.77241 1.94599 3.86277C1.90799 3.87442 1.32376 3.8467 1.34995 3.94365C1.36088 3.98278 1.34856 4.13564 1.38572 4.18285C1.42287 4.22853 1.6117 4.20043 1.61981 4.20376C1.86701 4.33002 1.97094 4.28533 2.33873 4.35327C2.70512 4.42175 1.82921 4.39093 1.73102 4.4152C1.6331 4.44009 1.83717 4.53509 1.90831 4.55594C1.97945 4.57835 2.09954 4.55363 2.13969 4.57321C2.40197 4.70368 1.70393 4.62198 1.56422 4.66168C1.2334 4.75585 1.88194 4.84497 1.94415 4.94029C1.96095 4.96613 1.81328 4.94295 1.79909 4.96554C1.74481 5.05637 1.94675 5.11155 1.75934 5.20646C1.7288 5.22201 1.33691 5.2959 1.6228 5.35276C1.66403 5.36082 1.82628 5.34219 1.86197 5.38029C1.91555 5.43713 1.94938 5.53992 1.89432 5.60094C1.85359 5.64597 1.58757 5.58957 1.66958 5.64838C1.70621 5.67458 1.86301 5.6294 1.91879 5.67844C1.97456 5.72712 1.96599 5.84175 1.95993 5.88707C1.95376 5.93174 1.75173 5.90426 1.73805 5.90767C1.65962 5.92834 1.56075 6.01344 1.56088 6.02119C1.53039 6.41644 1.86674 6.76761 1.74893 7.14805C1.73999 7.17718 1.52681 7.15499 1.52325 7.1594C1.43255 7.25855 2.00101 7.18664 2.19007 7.25915C1.75708 7.24358 1.83498 7.28592 1.7866 7.35649C1.76294 7.39051 1.59547 7.36977 1.57826 7.37268C1.32291 7.4205 1.65149 7.46016 1.71868 7.47013C1.96586 7.50696 1.67288 7.54039 1.83809 7.5655C2.00207 7.59057 2.2462 7.54026 2.24227 7.6091C2.087 7.62662 1.68244 7.5706 1.61615 7.62225C1.36537 7.81996 1.67939 8.18269 1.71085 8.34335C1.74227 8.50236 1.71321 8.55276 1.7684 8.64433C1.86823 8.81014 1.56816 8.74703 1.42967 8.84861C1.29122 8.95068 2.0313 8.90668 2.19018 8.92283C2.34899 8.93869 2.18526 8.95322 2.27248 8.97205C2.35968 8.9908 2.46812 8.95263 2.50057 8.99532C2.53299 9.03797 2.24933 9.15205 2.08296 9.16596C1.73049 9.19528 1.36119 9.13986 1.49025 9.25393C1.49792 9.26049 1.69256 9.24079 1.71204 9.26584C1.86035 9.46273 1.86835 9.66685 1.99977 9.86403C2.01814 9.89114 2.23463 9.8681 2.24777 9.88387C2.38536 10.0481 2.02083 9.98797 1.61515 10.0759C2.15457 10.0581 2.4843 10.1091 2.48701 10.233C2.48884 10.3074 2.25334 10.2938 2.08715 10.3415C2.03706 10.3558 2.19863 10.4091 2.08783 10.4183C1.72562 10.4487 1.32037 10.3978 1.48145 10.5265C1.4891 10.5321 1.68737 10.5147 1.69932 10.5341C1.7776 10.6598 1.39879 10.6739 1.35273 10.8098C1.31658 10.9168 1.54747 11.1068 1.58513 11.2278C2.1915 11.2249 2.05274 11.3389 1.63474 11.3859C1.65197 11.4644 1.62851 11.5481 1.68651 11.6251C1.70628 11.6514 1.88179 11.6336 1.90077 11.6369C2.19849 11.6869 1.79185 11.7224 1.77597 11.7395C1.62159 11.9249 1.93059 12.073 1.63041 12.2489C1.6196 12.2552 1.19846 12.2679 1.50632 12.3126C1.52754 12.3155 1.71878 12.2559 1.73416 12.3391C1.74958 12.4227 1.9766 12.5775 1.78252 12.6938C1.73579 12.7219 1.39455 12.7955 1.66228 12.8488C1.69864 12.8559 1.81935 12.8465 1.88668 12.8565C2.10123 12.889 1.67573 12.9126 2.03784 12.9492C2.39994 12.9854 2.67175 13.0674 2.42377 13.1873C2.41657 13.1911 2.07952 13.2231 2.08536 13.2597C2.09496 13.3179 2.16645 13.3993 2.16519 13.4595C2.16447 13.4884 1.95467 13.4732 1.95092 13.4783C1.83658 13.6732 2.02581 13.8093 2.11124 14.0186C2.1273 14.0567 1.84404 14.1732 2.07161 14.2412C2.32075 14.3154 3.34707 14.2095 3.10661 14.3962C3.01057 14.4745 1.7086 14.6086 2.3885 14.7248C2.22876 14.988 2.58332 15.2242 2.35539 15.4927C2.34529 15.5047 1.983 15.5573 1.98918 15.5844C1.99904 15.6245 2.1701 15.6385 2.18264 15.6665C2.23987 15.793 2.10029 15.9153 2.1295 16.0322C2.14023 16.0764 2.31508 16.0509 2.32793 16.1028C2.34073 16.1558 2.111 16.1978 2.22774 16.2704C2.31658 16.3229 2.793 16.3478 2.8531 16.4153C2.38713 16.4507 2.40018 16.5006 2.28376 16.5966C2.26117 16.6151 2.09763 16.6096 2.07858 16.619C1.99747 16.6578 2.13419 16.6768 2.04565 16.7141C2.02439 16.7231 1.86535 16.7364 1.83901 16.7446C1.60931 16.8204 1.97531 16.8846 2.0389 16.8934C2.28068 16.9312 2.07658 16.9771 2.17393 17.0121C2.27122 17.0461 2.38111 16.9704 2.44252 17.0146C2.56871 17.0986 2.55953 17.248 2.58061 17.3497C2.58802 17.3904 2.37317 17.391 2.36932 17.3975C2.32738 17.491 2.56426 17.54 2.15543 17.6664C3.24743 17.5404 2.05981 17.7435 2.30141 17.8275C2.32098 17.8338 2.82963 17.7315 2.89795 17.6866C2.96637 17.6425 2.79746 17.6238 2.9057 17.5529C2.93082 17.5354 3.39978 17.3903 3.42773 17.3777C3.64595 17.2821 2.87766 17.3846 2.8348 17.3861C2.37364 17.4082 2.88153 17.2519 2.91495 17.2264C3.06654 17.1003 2.94949 17.0297 3.05906 16.9357C3.12981 16.8734 3.63496 16.8201 3.61554 16.7791C3.55138 16.6403 2.84081 16.6416 3.44335 16.4624C3.57189 16.4234 4.12759 16.4134 3.68483 16.34C3.65693 16.3358 3.25305 16.2828 3.50206 16.2187C3.53346 16.2107 3.69491 16.2005 3.70798 16.1919C3.79233 16.1333 3.66169 16.1086 3.72018 16.0523C3.77865 15.9956 3.86687 15.9259 3.80871 15.8661C3.77391 15.8302 3.47035 15.7963 3.3957 15.7812C3.18069 15.739 3.52603 15.6644 3.26732 15.6431C3.00732 15.6218 2.61784 15.7046 2.44686 15.6262C2.86658 15.6037 3.29721 15.5769 3.71924 15.5527C3.69629 15.3744 3.55308 15.1934 3.56493 14.9994C3.56687 14.9766 3.79349 14.992 3.8014 14.9674C3.83378 14.8639 3.66987 14.7779 3.73073 14.666C3.77871 14.5793 4.01524 14.4783 4.07315 14.3859C3.59094 14.344 3.75098 14.2111 3.70491 14.1162C3.68898 14.083 3.56061 14.0881 3.51819 14.065C3.36128 13.9777 3.78712 14.0111 3.85346 13.9849C4.13665 13.8723 3.17465 13.8825 3.19601 13.7533C3.19679 13.7455 3.70805 13.6561 3.7398 13.6447C3.94678 13.571 3.56114 13.6362 3.5225 13.5928C3.45192 13.5135 3.32857 13.459 3.47732 13.361C3.52139 13.3323 3.84001 13.2608 3.59208 13.2096C3.55961 13.2028 3.39019 13.2091 3.38018 13.2034C3.21335 13.1005 3.74586 13.0907 3.92548 13.0285C4.10508 12.967 3.73647 12.8814 3.63032 12.8637C3.3557 12.8181 3.51358 12.9021 3.48672 12.905C3.16696 12.9394 3.22133 12.8724 3.19375 12.8217C2.67151 12.8197 2.70213 12.7477 3.16728 12.769C3.21808 12.7714 3.16979 12.8117 3.19375 12.8217C3.7056 12.7715 3.77044 12.6932 3.29091 12.6102C3.06617 12.5713 2.80485 12.6124 2.89954 12.4867C2.9423 12.4296 3.30201 12.4488 3.39966 12.398C3.62245 12.2806 3.28617 12.1392 3.33843 12.0216C3.35741 11.9791 3.55443 12.0194 3.57418 11.9904C3.62722 11.9134 3.47926 11.8462 3.55463 11.7684C3.56171 11.7613 3.7678 11.7777 3.77034 11.7536C3.79365 11.5701 3.66136 11.4134 3.65757 11.2232C3.65582 11.1314 3.76949 10.9669 3.74675 10.8714C3.70853 10.706 3.40941 10.5027 3.48266 10.3615C3.52955 10.2695 3.73556 10.2904 3.87611 10.2515C4.14854 10.1766 3.66163 10.04 3.58623 10.0213C3.58373 10.0208 3.5348 10.0998 3.42921 10.0571C3.2089 10.0315 3.58527 10.0222 3.58623 10.0213C3.53751 10.0092 3.49151 9.85027 3.53109 9.81901C3.5527 9.80201 3.74789 9.81264 3.75547 9.80377C3.93134 9.59249 3.98234 9.38303 3.8927 9.16634C3.88878 9.16251 3.67036 9.16657 3.66388 9.15759C3.56773 9.03192 3.83554 8.95427 3.99503 8.85324C4.15445 8.75222 4.10208 8.67099 3.72775 8.60716C3.77565 8.53159 3.61101 8.41668 3.51108 8.35164C3.41116 8.28631 3.83635 8.28173 3.84481 8.27617C4.11559 8.10311 3.87337 7.99951 3.83753 7.81897C3.81978 7.73192 3.88348 7.55848 3.93111 7.46556C3.96946 7.39189 3.87039 7.34617 3.93494 7.27917C3.94356 7.27011 4.13272 7.28175 4.14004 7.27905C4.36744 7.20639 3.90429 7.23685 3.82185 7.22021C3.52207 7.15938 3.36243 7.12495 3.50509 7.02716C3.53777 7.00461 4.20485 6.94682 4.24436 6.90597C4.29451 6.85282 4.05544 6.8699 4.11404 6.8145C4.11884 6.80977 4.26614 6.81272 4.26011 6.77807C4.2341 6.61545 4.15067 6.44975 4.16791 6.2771C4.1697 6.25402 4.40294 6.28698 4.40936 6.25372C4.43931 6.09768 4.43314 5.92933 4.32596 5.78119C4.29885 5.74472 4.1349 5.76487 4.08644 5.75632C3.79323 5.7038 4.22141 5.6366 4.22972 5.62546C4.43924 5.34568 4.05577 5.14491 4.24431 4.85614C4.25536 4.84073 4.71501 4.73048 4.32315 4.67328C4.29708 4.66934 3.89615 4.61229 4.1715 4.57231C4.18873 4.56985 4.39506 4.60418 4.37482 4.54951C4.35468 4.4917 4.49426 4.39798 4.26823 4.31638C4.19703 4.2904 3.7972 4.22564 4.11772 4.1585C4.1401 4.15384 4.86405 4.05487 4.36627 4.00885C4.28434 4.0008 3.75688 3.99953 4.02862 3.91179C4.08129 3.89513 4.19846 3.92842 4.27258 3.8837C4.38681 3.81525 4.24686 3.72283 4.48291 3.6454C4.52471 3.63107 4.88343 3.57963 4.61243 3.52469C4.56999 3.51574 4.39371 3.52927 4.37438 3.50082C4.28165 3.36517 4.40099 3.23804 4.28044 3.11562C4.23815 3.06538 3.95326 3.0876 3.87748 3.03626C3.80173 2.98462 3.72919 2.88828 3.85956 2.8428C3.99 2.79701 4.44336 2.85043 4.48006 2.78143C4.52573 2.6713 4.53635 2.5789 4.52682 2.4827C4.52195 2.41881 4.51192 2.36049 4.49826 2.30267C4.49141 2.27727 4.48393 2.23914 4.47276 2.16533C4.46712 2.13014 4.46103 2.09161 4.45144 2.03338C4.44653 2.00389 4.4408 1.96937 4.4319 1.92163C4.42965 1.90965 4.42719 1.89679 4.42441 1.88277C4.42302 1.87576 4.42155 1.86846 4.41998 1.86083C4.41697 1.84697 4.39989 1.73606 4.35469 1.58721C4.27325 1.42411 4.33437 1.19489 3.68643 0.552108C3.37241 0.241045 2.53307 -0.133361 1.77786 0.0471133C1.03344 0.212826 0.693664 0.596386 0.511021 0.804298C0.167224 1.24873 0.163742 1.40021 0.109439 1.52638C0.070566 1.64498 0.0567776 1.70959 0.0449145 1.76269C-0.156197 2.92884 0.372926 3.478 0.552484 3.71149C0.692073 3.86562 0.687831 3.84829 0.746693 3.90208C0.793052 3.94132 0.835382 3.97387 0.874705 4.00232C1.02662 4.11158 1.16206 4.18125 1.21677 4.20218C1.35484 4.2616 1.49768 4.31566 1.57376 4.34511C1.63625 4.37023 1.51282 4.49013 1.60194 4.53771C1.91749 4.70747 2.32786 5.04062 2.66435 4.80373C2.94572 4.61875 2.79932 4.3337 2.97683 4.28352C3.06292 4.26008 2.93958 4.77831 2.94765 4.79931C3.03268 5.01382 3.22703 4.83829 3.33872 4.95755C3.36042 4.98172 3.25789 5.17144 3.27733 5.18985C3.34323 5.25456 3.46173 5.19726 3.53404 5.24297C3.56637 5.26395 3.5027 5.41446 3.53985 5.41488C3.62934 5.41808 3.72023 5.37858 3.84562 5.26172C3.85707 5.25108 3.88264 5.04403 3.9405 5.05731C4.03416 5.07942 4.19886 4.97896 4.25277 5.16441C4.26825 5.21992 4.1439 5.57179 4.29628 5.35287C4.32836 5.30723 4.46292 4.87943 4.40767 5.27111C4.39826 5.33613 4.35151 5.87432 4.53 5.58063C4.57692 5.50332 4.74372 5.17355 4.76213 5.24129C4.76419 5.25179 4.67626 5.43324 4.70114 5.46286C4.79193 5.56466 4.90633 5.58249 4.99823 5.68143C5.02238 5.70813 4.90896 5.88809 4.94725 5.92167C5.0524 6.01428 5.22683 6.01933 5.36463 5.9985C5.41635 5.99072 5.44253 5.81792 5.45185 5.80136C5.60273 5.53183 5.49847 5.93015 5.50776 5.95871C5.56723 6.13101 5.71201 5.97699 5.79497 6.05949C5.81808 6.08178 5.73493 6.26016 5.73473 6.27855C5.73462 6.45883 5.80766 6.11225 5.85516 6.0876C5.98853 6.0174 6.09318 6.06982 6.18557 6.12772C6.21942 6.14926 6.10473 6.34996 6.13602 6.36682C6.32218 6.47152 6.52864 6.51838 6.76043 6.46424C6.80411 6.45362 6.83705 6.28033 6.85726 6.24501C6.99776 5.9976 6.95272 6.38422 6.95884 6.42453C6.98631 6.60842 7.06471 6.47166 7.12533 6.52227C7.42081 6.77223 7.87492 6.81399 8.21787 6.85917C8.66253 6.9184 9.04044 6.8654 9.42773 7.03411C9.45242 7.04462 9.35622 7.25798 9.37661 7.26989C9.64464 7.41401 9.95025 7.41518 10.2167 7.56887C10.2387 7.58108 10.1391 7.78085 10.1722 7.80753C10.2396 7.86374 10.3411 7.88282 10.4399 7.8398C10.4879 7.81921 10.4931 7.6228 10.5402 7.60575C10.65 7.5656 10.7494 7.57994 10.8318 7.64234C10.8665 7.66928 10.7408 7.86639 10.7911 7.88463C11.1297 8.01245 11.4634 8.15471 11.8936 7.97912C11.9232 7.96708 12.0767 7.53484 12.103 7.63443C12.0705 7.75739 12.0274 7.90061 11.9901 8.0313C12.4743 8.25266 13.0253 8.24863 13.5419 8.36926C13.5633 8.37428 13.4607 8.59754 13.5018 8.60847C13.756 8.67649 13.962 8.80347 14.2871 8.64145C14.3183 8.62541 14.417 8.20978 14.4728 8.29165C14.4828 8.30655 14.5762 8.39045 14.5799 8.48729C14.5806 8.50192 14.5079 8.68889 14.5439 8.70443C14.7571 8.7921 14.9777 8.80189 15.2311 8.73861C15.2704 8.72759 15.2841 8.51243 15.3123 8.50274C15.5001 8.43268 15.6777 8.6399 15.8889 8.4878C16.0418 8.38747 16.0699 8.01833 16.203 7.6769C16.2218 7.62878 16.2916 7.63425 16.3341 7.42838C16.4415 6.91095 16.5229 6.33738 16.6413 5.78664C16.6674 5.6682 16.7087 5.80889 16.7243 5.51353C16.7255 5.49385 16.6956 5.389 16.7023 5.28888C16.7072 5.21975 16.764 5.01317 16.7643 4.92347C16.7648 4.83389 16.7098 5.00553 16.6997 4.89777C16.6901 4.78875 16.7533 4.55375 16.698 4.51234ZM3.06458 8.05838C2.86107 7.99706 3.60886 7.99651 3.42928 8.0584C3.41972 8.06139 3.07456 8.06154 3.06458 8.05838ZM2.98979 15.2147C2.65726 15.1491 3.13997 15.0772 3.39651 15.1232C3.65278 15.1685 3.0906 15.2343 2.98979 15.2147ZM2.78624 16.0194C2.52166 15.9453 3.5797 15.8744 3.37083 15.9789C3.35903 15.9849 2.80161 16.0237 2.78624 16.0194ZM15.9486 7.51741C15.9517 7.50795 16.0008 7.50894 15.9996 7.51876C15.9738 7.75629 15.8743 7.75383 15.9486 7.51741ZM2.58047 16.8234C2.43501 16.8076 2.59282 16.7087 2.77363 16.7301C2.91901 16.7471 2.76133 16.8428 2.58047 16.8234ZM2.30906 4.94851C2.29793 4.94735 2.28844 4.91206 2.35141 4.91377C2.55421 4.91926 2.4962 4.96734 2.30906 4.94851ZM2.77693 18.0172C2.71538 18.0015 1.79712 18.0002 2.0035 18.2921C2.04241 18.3421 2.21781 18.0711 2.31681 18.1095C2.40606 18.1432 2.33038 18.224 2.29558 18.3242C2.28025 18.3742 2.2626 18.4226 2.32806 18.495C2.38166 18.558 2.52495 18.6084 2.64445 18.5312C2.68507 18.5076 2.5464 18.3517 2.60759 18.2141C2.65794 18.0814 2.78311 18.0175 2.77792 18.0165C2.77759 18.0167 2.77726 18.0169 2.77693 18.0172ZM2.16687 8.01463C2.15699 8.01333 2.14814 7.96576 2.15795 7.96474C2.3956 7.94165 2.41359 8.03741 2.16687 8.01463ZM1.8749 2.92881C1.85388 2.92502 1.83499 2.81862 1.85439 2.81642C2.24299 2.76327 2.28236 2.97921 1.8749 2.92881ZM1.60131 11.2297C1.36253 11.282 1.33448 11.3446 1.63443 11.3856C1.61844 11.3339 1.61604 11.2818 1.60131 11.2297Z" fill="#FF6B6B"/>
</svg>
