<svg width="18" height="18" viewBox="0 0 18 18" fill="none" xmlns="http://www.w3.org/2000/svg">
<path id="Vector 2" d="M16.7147 0.0158873C16.5779 -0.0365044 16.3722 0.0487699 16.2215 0.154026C16.1722 0.186858 16.2065 0.317475 16.1722 0.346095C16.1009 0.402106 16.0408 0.340483 15.9758 0.405564C15.9546 0.427758 15.9941 0.635812 15.9714 0.654291C15.8471 0.754018 15.7095 0.707278 15.5831 0.75767C14.9266 1.00753 14.2568 1.10459 13.5675 1.21367C13.3424 1.2494 13.0637 1.44444 12.8287 1.36423C12.801 1.35468 12.815 1.17023 12.8095 1.15512C12.7242 0.923737 12.7564 1.29531 12.703 1.34541C12.4877 1.54325 12.2571 1.56254 12.0483 1.4931C11.96 1.46301 12.0454 1.09636 11.9584 1.30245C11.9523 1.31638 11.9762 1.51186 11.9521 1.53291C11.8975 1.58026 11.7955 1.54598 11.7534 1.56173C11.6726 1.59309 11.6591 1.59119 11.5822 1.59383C11.4774 1.59912 11.3511 1.69691 11.2387 1.65291C11.2147 1.64294 11.2458 1.44227 11.2075 1.40825C11.1692 1.3743 11.068 1.39154 11.0338 1.43888C10.9997 1.48625 11.0145 1.64387 11.0085 1.68001C10.9591 1.9851 10.8407 1.56281 10.8256 1.55236C10.5487 1.37453 10.3135 1.61475 10.0538 1.61311C9.85695 1.61135 9.64704 1.53075 9.46028 1.5403C9.23755 1.55245 9.04652 1.65942 8.83107 1.63843C8.80832 1.63644 8.83754 1.40092 8.8098 1.39801C8.51228 1.36731 8.22194 1.38908 7.92177 1.54338C7.89179 1.55906 7.92668 1.76672 7.8965 1.79477C7.71158 1.96196 7.41951 2.36525 7.32774 1.46162C7.20372 1.4943 7.05491 1.5274 6.94248 1.70654C6.86969 1.82182 6.93332 2.04896 6.84813 1.95065C6.82873 1.92873 6.85935 1.73187 6.82996 1.71394C6.70628 1.63861 6.56916 1.69932 6.45095 1.59398C6.42693 1.57208 6.43853 1.39533 6.43245 1.36328C6.38137 1.10365 6.27272 1.52742 6.24887 1.55774C6.07596 1.78399 5.95913 1.68928 5.80942 1.68995C5.77474 1.6902 5.82361 1.45395 5.7906 1.44565C5.61515 1.40565 5.42895 1.41927 5.2579 1.51801C5.21968 1.54053 5.24583 1.74427 5.22713 1.76539C5.14256 1.85592 5.13826 1.47289 5.05701 1.55217C5.03983 1.56838 5.04169 1.742 5.03786 1.76089C4.97784 2.0575 4.95577 1.63259 4.94437 1.62273C4.79995 1.4884 4.68694 1.92571 4.53868 1.85553C4.52144 1.84671 4.57227 1.62964 4.52333 1.61823C4.20831 1.54143 3.85755 1.58081 3.52647 1.73048C3.47687 1.75359 3.49749 1.92056 3.49293 1.94058C3.41908 2.25309 3.41971 1.82632 3.40398 1.80891C3.27931 1.68259 3.13962 2.02727 3.10358 1.51397C2.96679 1.5428 2.84601 1.54326 2.7355 1.5305C2.69123 1.52613 2.62496 1.51319 2.60412 1.50741C2.59427 1.50525 2.58149 1.49973 2.61016 1.51073C2.62878 1.51935 2.63125 1.5165 2.69894 1.55682C2.76234 1.60572 3.00225 1.72707 3.0598 2.15708C3.06007 2.18465 3.07103 2.20634 3.05327 2.34742C3.03192 2.42088 3.05109 2.54508 2.82718 2.80202C2.71548 2.92561 2.48156 3.05266 2.25996 3.05602C2.03809 3.0637 1.88458 2.99066 1.79424 2.9372C1.47798 2.70726 1.53482 2.66717 1.49412 2.62537C1.4799 2.59853 1.48678 2.61126 1.48336 2.60461C1.47755 2.59277 1.47404 2.58478 1.4715 2.57882C1.46654 2.56706 1.46544 2.56314 1.46554 2.56248C1.46575 2.56087 1.47253 2.57649 1.47854 2.59043C1.48725 2.60863 1.49903 2.63391 1.51348 2.66438C1.54609 2.73684 1.57334 2.78029 1.61365 2.84194C1.69888 2.98051 1.79463 3.06184 1.9506 3.17783C1.95785 3.18354 2.15415 3.10921 2.16775 3.12089C2.32863 3.24487 2.00678 3.30567 1.65825 3.52799C1.57063 3.58347 2.05626 3.52845 2.0924 3.52622C2.2251 3.51638 2.51458 3.39714 2.54147 3.39917C2.75447 3.42123 1.76308 3.70317 1.79153 3.79843C1.79407 3.8009 1.97188 3.73356 1.99234 3.73606C2.0565 3.74368 1.99185 3.79032 2.06184 3.79623C2.22369 3.80957 2.70921 3.68512 2.45748 3.85982C2.42478 3.88242 1.85955 4.03275 1.91384 4.11723C1.9361 4.15123 1.9706 4.30065 2.02031 4.3344C2.06953 4.36671 2.24101 4.28279 2.24975 4.28352C2.52356 4.32907 2.6091 4.25503 2.98021 4.20851C3.35015 4.16294 2.50596 4.39856 2.41971 4.4514C2.33391 4.50475 2.55717 4.53356 2.63127 4.53191C2.70586 4.53174 2.81285 4.47185 2.85704 4.47836C3.1465 4.52338 2.45645 4.65669 2.3353 4.7368C2.04848 4.92664 2.69359 4.81537 2.78172 4.8874C2.80555 4.90695 2.65779 4.92953 2.65109 4.95536C2.62684 5.05835 2.83601 5.04985 2.6861 5.19701C2.66169 5.22107 2.31052 5.41006 2.60022 5.37777C2.64195 5.37297 2.79096 5.30613 2.83651 5.33164C2.90477 5.36961 2.96812 5.45735 2.9341 5.53217C2.9089 5.58741 2.63828 5.61413 2.73425 5.64538C2.77708 5.65927 2.91286 5.56877 2.98087 5.59864C3.04875 5.62815 3.07526 5.74001 3.0832 5.78504C3.09083 5.82948 2.88996 5.86441 2.87794 5.8718C2.80944 5.91523 2.74096 6.02625 2.74343 6.03361C2.83394 6.41956 3.26077 6.65251 3.26359 7.05077C3.26387 7.08123 3.05397 7.12457 3.05191 7.12986C2.99546 7.2518 3.51552 7.01128 3.71766 7.02319C3.30025 7.13935 3.38731 7.15613 3.36255 7.23803C3.35029 7.27762 3.18438 7.30852 3.16887 7.3165C2.93995 7.43933 3.26513 7.37772 3.33219 7.3669C3.57893 7.32723 3.30979 7.44773 3.47486 7.42168C3.63874 7.39596 3.8562 7.27415 3.87328 7.34096C3.73059 7.40463 3.32804 7.47363 3.28049 7.54291C3.10128 7.80722 3.51031 8.05795 3.58891 8.20157C3.66697 8.34362 3.65451 8.40045 3.73482 8.47103C3.88014 8.59887 3.57504 8.62949 3.47377 8.76822C3.37268 8.90739 4.06477 8.64155 4.22109 8.60888C4.37726 8.57595 4.2256 8.63933 4.31443 8.63088C4.40322 8.62237 4.49502 8.55319 4.53887 8.58406C4.58267 8.61491 4.34682 8.80946 4.19245 8.87305C3.86537 9.00763 3.49661 9.06653 3.65414 9.13621C3.66342 9.14014 3.84299 9.06249 3.86913 9.08046C4.07006 9.22326 4.13944 9.4154 4.32435 9.56358C4.35007 9.58385 4.54944 9.49639 4.56674 9.50746C4.74758 9.62241 4.38192 9.67534 4.02185 9.88187C4.53063 9.70174 4.86032 9.65058 4.90038 9.76781C4.92466 9.83825 4.69605 9.89647 4.55208 9.9922C4.50867 10.021 4.67879 10.0229 4.57597 10.0652C4.23995 10.2038 3.83828 10.2779 4.03073 10.3518C4.03973 10.3548 4.22345 10.2783 4.24072 10.2932C4.35335 10.3893 3.99657 10.5173 3.99375 10.6607C3.99167 10.7737 4.26924 10.8849 4.34174 10.9889C4.91883 10.8027 4.82107 10.9533 4.43684 11.1245C4.47704 11.1942 4.48 11.2811 4.55857 11.3369C4.58537 11.356 4.74728 11.2859 4.76635 11.2833C5.06524 11.2409 4.68841 11.3977 4.67844 11.4189C4.5874 11.6423 4.9267 11.6899 4.69383 11.9485C4.68542 11.9577 4.28785 12.0972 4.59482 12.0467C4.6159 12.043 4.78016 11.9283 4.81999 12.003C4.86 12.0781 5.12321 12.1569 4.97339 12.3264C4.93736 12.3674 4.63439 12.5408 4.9057 12.5106C4.94249 12.5063 5.05469 12.4608 5.12191 12.45C5.33622 12.416 4.9378 12.5673 5.29404 12.4927C5.65012 12.4176 5.93399 12.4135 5.73391 12.6028C5.72818 12.6086 5.41663 12.7411 5.43324 12.7742C5.46003 12.8268 5.55278 12.8827 5.5698 12.9405C5.57784 12.9683 5.37329 13.0172 5.37124 13.0232C5.32123 13.2436 5.54277 13.3161 5.68752 13.4897C5.71434 13.5211 5.47961 13.7179 5.71709 13.7139C5.97701 13.7092 6.9232 13.2978 6.75049 13.5485C6.68263 13.6522 5.48225 14.1739 6.16544 14.0789C6.0928 14.3781 6.50223 14.496 6.36619 14.8208C6.3602 14.8353 6.0308 14.9951 6.04488 15.019C6.06642 15.0543 6.23369 15.0159 6.25414 15.0388C6.34696 15.1421 6.25092 15.3009 6.31411 15.4034C6.3377 15.4423 6.49667 15.3652 6.5246 15.4107C6.55285 15.4574 6.3466 15.5669 6.47982 15.6008C6.58037 15.6239 7.042 15.5035 7.11972 15.5497C6.68628 15.7243 6.71382 15.768 6.6319 15.8947C6.61596 15.9191 6.45841 15.9634 6.4431 15.9781C6.37755 16.0397 6.5136 16.0164 6.44049 16.0787C6.42297 16.0938 6.2754 16.1546 6.25277 16.1703C6.05678 16.3121 6.42505 16.2626 6.48831 16.2517C6.73019 16.2145 6.54955 16.3201 6.65292 16.324C6.75594 16.327 6.83777 16.2215 6.90968 16.2451C7.05538 16.287 7.09183 16.4322 7.14268 16.5227C7.16207 16.5593 6.95745 16.6248 6.95575 16.6322C6.94407 16.734 7.18468 16.7091 6.83324 16.9532C7.83596 16.5028 6.76544 17.0557 7.02111 17.0625C7.04168 17.0627 7.49553 16.8113 7.54707 16.7478C7.59894 16.6851 7.4323 16.7184 7.51401 16.618C7.53266 16.5937 7.93576 16.3136 7.95856 16.2931C8.13764 16.1359 7.43636 16.4661 7.39597 16.4805C6.96312 16.6411 7.39991 16.3384 7.42405 16.304C7.53038 16.138 7.39747 16.1061 7.47345 15.9833C7.52204 15.9026 7.98742 15.699 7.9565 15.6658C7.85333 15.5528 7.17647 15.7691 7.69655 15.416C7.80728 15.34 8.3339 15.1623 7.88968 15.2263C7.86183 15.2307 7.46083 15.3024 7.67878 15.1659C7.70629 15.1488 7.8571 15.0903 7.86694 15.0781C7.9296 14.9967 7.79764 15.0127 7.83632 14.9413C7.8749 14.8696 7.9379 14.7765 7.86437 14.7371C7.82035 14.7134 7.52076 14.7729 7.44504 14.7811C7.22733 14.8059 7.53392 14.6303 7.28089 14.6883C7.02663 14.7467 6.68045 14.9434 6.49376 14.9204C6.88703 14.772 7.28936 14.6162 7.68431 14.4655C7.60846 14.3024 7.41721 14.1732 7.36981 13.9847C7.36476 13.9624 7.58542 13.9085 7.58552 13.8827C7.58506 13.7742 7.40282 13.7419 7.42697 13.6168C7.44648 13.5197 7.64138 13.3519 7.6686 13.2462C7.19633 13.3522 7.30866 13.1771 7.23603 13.1006C7.21081 13.0738 7.08999 13.1175 7.04258 13.1083C6.86661 13.0726 7.28259 12.9756 7.33789 12.9305C7.57377 12.7375 6.65993 13.0383 6.64119 12.9087C6.63958 12.901 7.09984 12.6612 7.12664 12.6406C7.30162 12.5078 6.95378 12.6866 6.90384 12.6569C6.81256 12.6027 6.67849 12.588 6.79062 12.4496C6.82396 12.409 7.10602 12.2445 6.85421 12.2706C6.82122 12.274 6.66163 12.3312 6.65038 12.3289C6.46022 12.2812 6.96483 12.1108 7.11719 11.9971C7.26979 11.8842 6.89253 11.9141 6.78601 11.9294C6.51047 11.969 6.68636 12.0013 6.66163 12.0122C6.36726 12.1417 6.39881 12.0614 6.35718 12.0214C5.85883 12.1775 5.86621 12.0996 6.31602 11.9792C6.36518 11.9662 6.33132 12.0191 6.35718 12.0214C6.82988 11.8187 6.86797 11.7244 6.38581 11.7904C6.15982 11.8213 5.92319 11.9396 5.97542 11.7911C5.99891 11.7238 6.34755 11.6332 6.42528 11.5553C6.60211 11.376 6.23878 11.3429 6.25302 11.215C6.25827 11.1688 6.45824 11.1476 6.46829 11.114C6.49557 11.0246 6.33419 11.0052 6.38249 10.9083C6.38711 10.8994 6.5885 10.8527 6.58364 10.829C6.55033 10.647 6.37682 10.5376 6.31568 10.3575C6.28624 10.2706 6.3448 10.0794 6.29423 9.99517C6.20776 9.8491 5.86115 9.74582 5.88824 9.58905C5.90512 9.48722 6.1078 9.44484 6.22999 9.36524C6.46698 9.21136 5.96156 9.2285 5.88405 9.23352C5.88151 9.23377 5.85879 9.32392 5.7452 9.3151C5.52749 9.35737 5.8834 9.23465 5.88405 9.23352C5.83394 9.23667 5.74203 9.09915 5.77029 9.05738C5.78575 9.03464 5.97501 8.98571 5.97955 8.97496C6.08326 8.72038 6.0685 8.50531 5.9175 8.3259C5.91261 8.32343 5.70564 8.39338 5.69675 8.38678C5.5671 8.29609 5.79886 8.14106 5.9203 7.99651C6.04169 7.852 5.96721 7.79041 5.5911 7.84282C5.6139 7.7563 5.42221 7.69659 5.30729 7.66483C5.19228 7.63279 5.59616 7.49978 5.60254 7.49193C5.80827 7.24506 5.54606 7.2196 5.45728 7.05836C5.41403 6.98075 5.42227 6.79618 5.43956 6.6932C5.45382 6.61137 5.34556 6.59777 5.38682 6.51439C5.3923 6.50314 5.5761 6.45701 5.58226 6.45222C5.77702 6.31416 5.34479 6.48332 5.26118 6.4924C4.95705 6.52512 4.79448 6.5406 4.90087 6.40423C4.92519 6.37286 5.54352 6.11595 5.56883 6.06506C5.60055 5.99923 5.37785 6.08783 5.41694 6.0173C5.42008 6.01134 5.56138 5.96959 5.54515 5.93839C5.47115 5.79127 5.3415 5.65857 5.30571 5.48879C5.30042 5.46626 5.5327 5.4271 5.52877 5.39346C5.5101 5.23567 5.45329 5.07708 5.30631 4.9683C5.26944 4.94174 5.11927 5.01055 5.07049 5.01706C4.77514 5.05571 5.16292 4.86212 5.16747 4.84899C5.28253 4.51894 4.85629 4.44358 4.94863 4.11131C4.95449 4.09328 5.35925 3.84913 4.96845 3.91316C4.94241 3.91729 4.54301 3.98422 4.79336 3.86281C4.80903 3.85525 5.01608 3.82555 4.98025 3.77956C4.94356 3.73056 5.04826 3.599 4.80813 3.5896C4.7324 3.58638 4.33172 3.64563 4.61691 3.48466C4.63683 3.47345 5.29691 3.1601 4.80853 3.26682C4.72801 3.28394 4.22488 3.44231 4.45734 3.27646C4.50251 3.24466 4.62425 3.24093 4.68138 3.17589C4.76954 3.07609 4.60819 3.03033 4.80975 2.88513C4.84525 2.85881 5.1716 2.70126 4.89668 2.73088C4.85352 2.73519 4.6896 2.80142 4.66257 2.78015C4.53313 2.67891 4.60842 2.52164 4.45649 2.44142C4.40098 2.40634 4.13616 2.5137 4.0484 2.4877C3.96058 2.46139 3.86229 2.39152 3.97279 2.30872C4.08326 2.22561 4.53154 2.13937 4.54565 2.0625C4.55586 1.94372 4.53802 1.85243 4.49984 1.76362C4.47587 1.7042 4.44867 1.65165 4.41815 1.60067C4.40394 1.57853 4.38527 1.54445 4.35229 1.47748C4.33628 1.44565 4.31881 1.41076 4.29205 1.35817C4.27845 1.33154 4.26254 1.30037 4.23962 1.25757C4.23386 1.24683 4.22762 1.23531 4.22073 1.22279C4.21728 1.21653 4.21367 1.21002 4.20987 1.20322C4.2028 1.19093 4.15297 1.09038 4.06486 0.962171C3.93789 0.831354 3.9268 0.594389 3.11475 0.177758C2.72134 -0.0237248 1.80806 -0.126653 1.14284 0.273845C0.483441 0.657008 0.275632 1.12539 0.16445 1.37881C-0.028779 1.90643 0.013733 2.05187 0.000145548 2.18855C-0.00102486 2.31335 0.00538056 2.37911 0.010137 2.4333C0.171257 3.60565 0.841725 3.96899 1.08351 4.13723C1.26319 4.2419 1.2539 4.22667 1.32628 4.26012C1.38234 4.2835 1.43253 4.30172 1.47862 4.31694C1.65647 4.37512 1.80664 4.40055 1.86512 4.40395C2.01469 4.41881 2.1672 4.42712 2.24862 4.43218C2.31578 4.43721 2.23441 4.58884 2.33375 4.60722C2.68588 4.67356 3.1778 4.86694 3.42685 4.53936C3.63907 4.27792 3.41329 4.05051 3.5673 3.94898C3.64227 3.9006 3.68149 4.43186 3.69553 4.44943C3.84148 4.62816 3.97362 4.40206 4.11616 4.48194C4.14415 4.49841 4.10383 4.71026 4.12792 4.72193C4.21031 4.76367 4.30592 4.6732 4.38867 4.69489C4.42583 4.70511 4.41068 4.86783 4.44622 4.85699C4.53248 4.83297 4.60717 4.76782 4.69133 4.6185C4.69902 4.6049 4.66074 4.39981 4.71992 4.39497C4.81588 4.38771 4.94247 4.24212 5.04995 4.40257C5.0815 4.4508 5.06943 4.8238 5.14845 4.56904C5.16521 4.51583 5.16404 4.06737 5.22988 4.4574C5.24058 4.52223 5.35884 5.04934 5.44011 4.71541C5.46145 4.62753 5.52066 4.26276 5.55871 4.32175C5.56384 4.33113 5.53493 4.53068 5.5676 4.55139C5.68494 4.62094 5.79937 4.60333 5.9169 4.66983C5.94799 4.68798 5.89433 4.89382 5.94099 4.91423C6.06923 4.97069 6.23701 4.92273 6.36205 4.86119C6.40899 4.83813 6.38167 4.6655 6.38555 4.64691C6.44781 4.34436 6.46894 4.75556 6.48644 4.77996C6.59525 4.9262 6.68665 4.73559 6.79068 4.78913C6.81945 4.80338 6.79416 4.99857 6.79954 5.01615C6.85397 5.18802 6.81874 4.83558 6.85655 4.79771C6.96244 4.69045 7.07803 4.70876 7.18361 4.73599C7.2224 4.74628 7.1738 4.97227 7.20872 4.97888C7.41784 5.02235 7.6288 5.00455 7.83335 4.88282C7.87177 4.85948 7.85073 4.68435 7.85931 4.64457C7.91838 4.36625 7.99242 4.74838 8.01044 4.78495C8.09226 4.95191 8.12561 4.79784 8.1987 4.82774C8.55596 4.97659 9.00142 4.87901 9.34196 4.81831C9.78371 4.74024 10.1279 4.57539 10.5481 4.61902C10.5748 4.62157 10.5476 4.85404 10.5707 4.85922C10.8697 4.91549 11.1614 4.82416 11.4619 4.89002C11.4865 4.89501 11.452 5.11556 11.4916 5.13098C11.5729 5.16414 11.6754 5.15162 11.7565 5.08075C11.796 5.0466 11.7416 4.85781 11.7814 4.8273C11.8739 4.75581 11.9729 4.73941 12.0703 4.77397C12.1115 4.78915 12.0514 5.01506 12.1048 5.01722C12.4662 5.03661 12.8274 5.07124 13.1843 4.77372C13.2089 4.75329 13.2244 4.29486 13.2796 4.38183C13.2858 4.50888 13.288 4.65843 13.292 4.79427C13.8206 4.85875 14.3445 4.68823 14.8733 4.64691C14.8953 4.64523 14.865 4.88905 14.9075 4.88703C15.1704 4.87495 15.4051 4.93367 15.666 4.68088C15.6909 4.65616 15.6592 4.23014 15.7372 4.29129C15.7512 4.30249 15.8656 4.35418 15.8984 4.44537C15.9035 4.45912 15.8908 4.6593 15.9298 4.66322C16.1596 4.68228 16.3728 4.62488 16.5951 4.48789C16.6293 4.4655 16.5772 4.25628 16.6012 4.2385C16.7589 4.11493 16.991 4.25869 17.1462 4.04983C17.2616 3.90796 17.1767 3.5476 17.2003 3.18191C17.2037 3.13035 17.2718 3.11446 17.25 2.90537C17.1958 2.37971 17.0999 1.80839 17.0462 1.24761C17.0353 1.12683 17.1171 1.24845 17.0426 0.962221C17.0379 0.943077 16.9776 0.852193 16.9537 0.75474C16.9375 0.687363 16.9291 0.473274 16.9023 0.387693C16.8757 0.302153 16.8751 0.482397 16.8329 0.382753C16.7907 0.281747 16.78 0.038623 16.7147 0.0158873ZM4.79298 7.52039C4.58047 7.52352 5.29304 7.29676 5.1406 7.41008C5.13239 7.41582 4.80345 7.52038 4.79298 7.52039ZM6.88676 14.3639C6.54996 14.402 6.9883 14.1875 7.24674 14.1537C7.50472 14.1194 6.98879 14.3522 6.88676 14.3639ZM6.93621 15.1925C6.6616 15.2019 7.64862 14.8143 7.48114 14.9771C7.47172 14.9864 6.95215 15.192 6.93621 15.1925ZM16.9096 3.10685C16.9097 3.09689 16.9567 3.08301 16.9586 3.0927C17.0058 3.32692 16.9103 3.35467 16.9096 3.10685ZM6.98334 16.0211C6.83989 16.05 6.96038 15.908 7.13921 15.8738C7.28291 15.846 7.16157 15.9849 6.98334 16.0211ZM3.13201 4.78484C3.12106 4.7871 3.10134 4.75634 3.16187 4.73891C3.35682 4.68279 3.31608 4.74617 3.13201 4.78484ZM7.53173 17.0995C7.46833 17.1032 6.5927 17.3798 6.87774 17.5956C6.92994 17.6314 7.01514 17.3201 7.1211 17.3267C7.21639 17.3318 7.16868 17.4317 7.16585 17.5378C7.16636 17.5901 7.16419 17.6416 7.24847 17.6908C7.3186 17.7346 7.47043 17.7392 7.56099 17.6296C7.59255 17.5947 7.41322 17.4881 7.42991 17.3384C7.43776 17.1967 7.53773 17.0979 7.53247 17.0985C7.53222 17.0989 7.53198 17.0992 7.53173 17.0995ZM3.92411 7.75029C3.9143 7.75203 3.89147 7.70938 3.90051 7.70543C4.12004 7.61153 4.16615 7.69736 3.92411 7.75029ZM2.10716 2.99114C2.08598 2.99388 2.03578 2.89819 2.05361 2.89023C2.40792 2.72199 2.51077 2.9159 2.10716 2.99114ZM4.35774 10.9858C4.14598 11.1079 4.13817 11.176 4.43648 11.1244C4.4056 11.08 4.38754 11.031 4.35774 10.9858Z" fill="#E8A200"/>
</svg>
