<svg width="137" height="63" viewBox="0 0 137 63" fill="none" xmlns="http://www.w3.org/2000/svg">
<path id="Vector 1" d="M0.934818 3.46283C1.86424 4.35774 3.17575 5.39138 4.19233 6.12658C4.51081 6.35739 4.44486 6.12795 4.66828 6.2822C5.10488 6.58357 5.43797 6.9485 5.8741 7.2334C6.01901 7.32723 5.99012 7.02944 6.13887 7.13139C6.95268 7.69067 7.6288 8.32008 8.41426 8.90683C12.5508 12.0103 16.2044 14.7654 20.4707 17.7875C21.8468 18.7609 23.5882 19.7779 24.9094 20.806C25.0636 20.9263 24.8625 21.0102 24.8842 21.044C25.2282 21.5687 25.2828 21.1528 25.6217 21.3289C26.9555 22.0211 28.4921 23.0473 29.6845 23.9249C30.1983 24.3032 29.464 24.2553 30.1117 24.4379C30.1564 24.4508 30.1299 24.1987 30.2866 24.2773C30.642 24.4563 31.2451 24.8934 31.5069 25.045C32.0119 25.3367 32.0913 25.3903 32.5522 25.6844C33.1867 26.0869 33.9655 26.4665 34.6309 26.9355C34.7787 27.0399 34.4695 27.0831 34.6957 27.2648C34.9224 27.4471 35.576 27.8324 35.817 27.9249C36.0584 28.0179 36.0487 27.8268 36.1059 27.8196C36.5803 27.7538 37.0979 28.5629 37.1874 28.6288C38.8246 29.8264 40.408 30.4713 41.9831 31.3627C43.2476 32.0788 44.5901 32.9043 45.7894 33.5286C47.232 34.2783 48.4361 34.7741 49.8324 35.4877C49.9854 35.5653 49.7006 35.6876 49.8874 35.7828C51.8716 36.7931 53.8259 37.6748 55.7914 38.363C55.9885 38.4317 55.8262 38.1346 56.0277 38.1916C57.2781 38.5579 59.4296 39.0044 59.8045 40.1195C60.646 40.4175 61.6531 40.7651 62.4392 40.8629C62.9454 40.9257 62.5722 40.5477 63.1085 40.8473C63.2311 40.9149 62.9885 41.0367 63.1899 41.1284C64.0441 41.5167 65.0131 41.7871 65.8285 42.1677C65.9943 42.2455 65.8911 42.3976 65.93 42.4442C66.2612 42.8273 67.0731 42.6414 67.2283 42.6579C68.4299 42.7972 69.1473 43.1094 70.2854 43.4293C70.5405 43.5002 70.1744 43.6436 70.4178 43.72C71.6809 44.1124 72.9793 44.4274 74.1979 44.607C74.4689 44.6463 74.2714 44.3916 74.4029 44.4002C74.985 44.4395 74.9995 44.8352 75.6034 44.8838C75.728 44.8937 75.6967 44.7093 75.7228 44.6956C76.13 44.4784 76.3378 44.9545 76.4244 44.9821C77.5114 45.3374 78.2916 45.0341 79.3138 45.2732C79.4362 45.302 79.1204 45.4712 79.4669 45.5386C81.7935 45.9919 84.3729 46.2348 86.7641 46.1904C87.144 46.1841 86.8826 46.0048 86.9077 45.9859C87.3098 45.6896 87.5354 46.1244 87.6572 46.1455C88.6157 46.3004 89.4853 45.9533 90.11 46.4575C94.2148 46.2649 98.2713 46.0756 102.016 44.4727C102.061 44.4534 101.917 44.2785 102.007 44.241C103.172 43.7491 103.036 44.1289 103.952 44.2215C104.186 44.2429 104.585 43.5676 104.617 43.5147C104.748 43.3205 104.443 43.1091 104.493 43.0612C104.906 42.6734 105.218 43.6667 105.944 43.3347C105.965 43.3228 105.792 43.1942 105.843 43.1495C106.002 43.0102 106.215 42.9916 106.361 42.8463C106.693 42.5102 106.595 42.0013 107.301 41.942C107.392 41.9323 107.565 42.514 108.13 42.1477C108.379 41.9959 109.414 41.3277 109.652 41.0954C109.898 40.8678 109.601 40.8518 109.616 40.831C110.17 40.1008 109.822 40.2326 109.947 39.6587C110.055 39.0904 110.525 39.8369 110.733 39.7868C110.944 39.7364 111.289 39.1326 111.345 38.9711C111.406 38.8094 111.183 38.8628 111.252 38.7362C111.691 37.901 111.838 38.7542 112.161 38.6119C112.94 38.2373 112.798 37.3526 113.1 36.784C113.182 36.6269 113.227 36.8289 113.325 36.7032C113.731 36.1544 113.743 35.716 114.209 35.1251C114.281 35.0433 114.885 34.5879 114.726 34.1063C114.703 34.0405 114.504 34.1449 114.547 33.8654C114.616 33.4453 114.721 32.7323 114.812 32.2778C114.879 31.9483 115.118 32.3537 115.062 31.9203C115.034 31.7302 114.864 32.0686 114.82 31.7185C114.786 31.372 114.732 30.5031 114.669 30.1721C114.616 29.843 114.846 29.9839 114.855 29.9552C114.909 29.777 114.833 29.1003 114.809 29.0429C113.893 26.0944 111.469 24.439 109.154 23.086C108.96 22.9749 109.19 22.8544 109.162 22.8355C108.504 22.4043 108.799 23.1841 108.238 23.1254C108.483 22.7632 108.197 22.7094 107.749 22.47C107.531 22.3549 107.718 22.2506 107.704 22.2262C107.456 21.8498 107.086 22.0652 107.002 22.1057C106.685 22.2527 106.522 21.8877 106.304 21.9902C106.089 22.0931 106.389 22.4454 105.904 22.2867C105.811 22.0951 106.304 21.8246 105.942 21.6429C104.717 20.9669 101.905 20.7853 100.827 20.7338C99.9563 20.668 99.5129 20.6316 99.0433 20.6218C98.8923 20.6191 98.7407 20.6203 98.5742 20.6273C97.3436 20.6978 97.802 20.4094 97.0728 20.2843C96.2539 20.1827 96.6947 20.906 96.5901 21.0697C96.4934 21.2353 96.3661 21.0806 96.2446 21.1792C96.126 21.2778 96.4073 21.36 96.1168 21.4206C95.9724 21.4512 95.7017 21.4198 95.4577 21.3698C95.1794 21.3242 94.9163 21.2649 94.8458 21.1952C94.5438 20.9065 94.8262 20.4409 94.0462 20.7883C94.0039 20.8091 94.2032 20.9521 94.0399 21.022C92.6605 21.5478 91.2297 22.7086 91.1536 24.2569C91.1407 24.4489 91.3814 24.3151 91.3783 24.4229C91.4328 25.5523 91.1138 25.1497 90.7701 25.8642C91.2904 25.6351 91.6312 25.9814 91.864 26.7622C92.0182 27.2483 91.7722 27.2413 91.7425 27.6384C91.7364 27.7657 92.0202 28.0277 91.9481 28.1364C91.713 28.4904 91.1716 28.3162 91.7444 29.1292C91.7707 29.1643 91.8863 28.9529 91.9638 29.0804C92.4516 29.8471 92.1739 30.1251 92.6733 31.018C93.0428 31.6823 94.0469 32.7001 94.6142 33.3598C95.0807 32.9746 95.4894 33.7179 95.3693 34.2268C95.7343 34.6454 96.1264 35.1417 96.5351 35.5179C96.6714 35.6426 96.7231 35.4359 96.7527 35.4407C97.2093 35.508 97.0695 35.9593 97.1397 36.0606C97.9334 37.163 98.874 37.6905 99.582 38.8151C99.6082 38.856 99.3623 39.2059 99.8156 39.2186C99.8457 39.2183 99.6857 38.795 100.115 39.1921C100.538 39.5843 101.535 40.2164 101.992 40.8958C102.105 41.0628 102.248 41.6545 102.731 41.7265C102.796 41.7355 102.832 41.6059 102.935 41.6076C103.266 41.6153 103.088 42.0263 103.552 41.9523C104.017 41.8788 104.637 42.0615 105.107 42.7866C105.122 42.8091 105.054 43.1934 105.258 43.3581C105.587 43.6231 106.083 43.9422 106.415 44.2149C106.574 44.3461 106.339 44.4252 106.364 44.4508C107.375 45.423 108.275 45.8936 109.513 46.734C109.74 46.8882 110.205 47.5952 110.762 47.7246C111.377 47.869 111.502 46.6893 112.433 47.6682C112.811 48.0614 112.612 49.5242 113.795 49.5228C115.251 50.7373 116.883 51.404 118.347 52.6119C118.413 52.666 118.446 53.1171 118.618 53.2189C118.874 53.3692 119.102 53.3103 119.288 53.412C120.07 53.8346 120.688 54.377 121.437 54.7918C121.721 54.9492 121.712 54.7401 122.051 54.9264C122.389 55.1121 122.497 55.4423 123.008 55.6047C123.395 55.7265 123.971 55.5075 124.454 55.7122C124.245 56.1303 124.564 56.2975 125.067 56.7114C125.164 56.7911 124.97 56.8712 125.012 56.9163C125.181 57.1031 125.439 57.0887 125.595 57.2757C125.633 57.3209 125.56 57.463 125.588 57.5079C125.815 57.8963 126.542 57.8714 126.666 57.8651C127.142 57.8451 127.219 58.1175 127.543 58.1783C127.867 58.2381 127.5 57.9202 127.854 58.0364C128.587 58.2776 129.461 58.7364 130.163 59.062C130.442 59.1929 130.161 59.2948 130.199 59.318C130.752 59.6409 131.44 59.7082 131.588 60.2416C132.447 59.4254 131.898 60.5011 132.827 60.6704C132.9 60.683 133.191 60.2441 132.97 60.0639C132.749 59.8839 132.301 59.8622 132 59.5955C131.929 59.5328 131.659 58.8745 131.607 58.818C131.201 58.3761 130.805 59.0452 130.759 59.0711C130.262 59.346 129.914 58.5983 129.78 58.493C129.166 58.0116 128.531 57.8167 128.019 57.4234C127.682 57.166 127.878 56.6955 127.582 56.5598C126.599 56.1067 125.922 56.5483 125.318 55.5195C125.188 55.2988 125.646 54.919 124.749 54.9211C124.693 54.9218 123.988 54.9853 123.818 54.5985C123.797 54.5499 123.878 54.4099 123.836 54.3705C123.555 54.1095 123.275 54.0973 122.953 53.8398C122.631 53.5822 122.256 53.2556 121.83 53.0653C121.573 52.9507 121.109 53.0239 120.956 53.0175C120.522 53.0036 120.354 52.4924 120.019 52.5885C119.68 52.6837 119.872 53.2637 119.25 53.0762C119.452 52.7067 119.634 52.3121 119.826 51.9335C118.666 51.2304 117.462 50.6162 116.339 49.8441C116.2 49.748 116.469 49.6561 116.324 49.5484C115.714 49.0963 115.063 48.8467 114.45 48.3424C113.976 47.9504 113.57 47.3704 113.082 46.944C112.481 47.105 111.806 46.411 111.232 46.0365C111.03 45.9044 110.964 46.0154 110.8 45.9447C110.183 45.6736 110.685 45.5196 110.583 45.3583C110.148 44.668 109.509 45.3916 108.815 44.82C108.779 44.7916 108.634 44.0245 108.591 43.9489C108.318 43.466 108.413 44.0357 108.138 43.8647C107.637 43.5524 107.243 43.3915 106.815 42.8447C106.695 42.6883 106.522 42.129 106.066 42.0684C106.006 42.0601 105.919 42.2079 105.881 42.1889C105.203 41.8327 105.536 41.4147 105.337 41.0048C105.143 40.5996 104.403 40.4388 104.232 40.4282C103.787 40.3997 104.357 40.6949 104.354 40.7277C104.312 41.117 103.982 40.7545 103.69 40.5296C103.302 40.8837 102.94 40.5158 103.39 40.295C103.439 40.2713 103.619 40.4981 103.69 40.5296C103.79 39.9319 103.422 39.5127 102.651 39.4516C102.288 39.4211 102.306 39.7985 101.719 39.116C101.455 38.8066 101.816 38.653 101.629 38.3389C101.214 37.6336 100.22 37.1214 99.687 36.4936C99.4943 36.2668 99.8366 36.3378 99.7106 36.1785C99.3873 35.7658 98.9317 35.4972 98.6213 35.046C98.5934 35.0049 98.8264 34.9545 98.7147 34.8282C97.8938 33.8897 97.0548 33.1168 96.2382 32.0721C95.8404 31.568 95.2716 30.5876 94.904 30.0597C94.2635 29.1697 93.3246 28.0718 93.0812 27.23C92.9078 26.6448 93.158 26.7054 93.2176 26.439C93.3409 25.9716 92.7544 25.3357 92.6854 25.2534C92.6779 25.244 92.6779 25.6714 92.5464 25.4569C92.3122 25.3435 92.6849 25.2559 92.6854 25.2534C92.6589 25.2298 92.6195 24.9867 92.6248 24.7733C92.6264 24.5604 92.6757 24.3524 92.7146 24.2946C92.7562 24.2315 92.9307 24.3288 92.9481 24.299C93.3148 23.693 94.0588 23.3021 95.3039 22.9482C95.3259 22.9397 95.2475 22.7327 95.3012 22.7153C96.0555 22.4751 96.5741 22.7098 97.262 22.845C97.8849 22.9872 98.4327 22.9535 98.8953 22.6032C98.9071 22.6049 98.9191 22.6064 98.9312 22.6079C99.4937 22.6755 100.262 22.5804 100.701 22.5309C101.151 22.4798 101.154 22.9114 101.191 22.924C102.264 23.3367 103.063 23.2275 104.235 23.4756C104.77 23.5823 105.879 23.9843 106.43 24.2538C106.864 24.4608 107.16 24.4795 107.511 24.7119C107.564 24.7462 107.427 24.8907 107.441 24.9054C107.799 25.3278 107.781 24.8078 107.914 24.7801C108.386 24.6833 108.691 24.6575 109.149 25.1036C109.265 25.213 109.206 25.9693 109.398 26.1574C109.635 26.3931 109.681 26.1279 109.914 26.3859C109.933 26.4079 109.838 26.5183 109.997 26.6435C110.708 27.201 111.457 27.9357 111.866 28.7417C111.923 28.8526 111.643 28.8223 111.718 28.9798C112.061 29.709 112.281 30.5286 112.412 31.3034C112.444 31.4946 112.605 31.3718 112.654 31.4133C112.955 31.6868 112.497 32.0616 112.481 32.1142C112.113 33.5098 111.939 34.8294 110.78 36.0811C110.718 36.1528 109.915 36.4124 109.984 36.9043C109.991 36.9351 110.065 37.4441 109.665 37.4485C109.641 37.4479 109.639 37.1631 109.405 37.4175C109.173 37.6704 108.637 37.9575 108.396 38.4305C108.325 38.5767 108.273 39.1239 107.697 39.1335C107.655 39.1387 106.66 38.9332 106.689 39.4938C106.7 39.5818 106.989 40.0302 106.377 40.071C106.259 40.0778 106.368 39.8813 106.089 39.9538C105.664 40.0625 105.21 40.4574 104.603 40.4803C104.503 40.4822 103.957 40.3374 103.795 40.6998C103.767 40.7579 103.922 40.884 103.776 40.9664C103.082 41.3596 102.228 41.5456 101.425 41.9221C101.151 42.0511 101.384 42.2779 101.112 42.4384C100.843 42.5985 100.254 42.8353 99.898 42.7887C99.5442 42.742 99.7876 42.2164 99.2992 42.2961C97.1779 42.6345 95.0583 43.1845 92.9724 43.3565C92.6546 43.3818 92.9096 43.2048 92.4388 43.2276C90.6153 43.3289 87.7483 43.1206 86.0963 43.3343C84.8706 43.5193 86.3604 43.844 85.4405 43.8854C84.9947 43.9036 84.561 43.3322 84.4561 43.3051C83.4243 43.033 82.65 43.1735 81.6714 42.964C81.4694 42.9201 81.6998 42.7371 81.5277 42.702C80.914 42.5758 80.37 42.5859 79.8263 42.4762C79.5877 42.4271 79.6597 42.2738 79.4363 42.2476C78.9013 42.1823 78.4151 42.1614 77.8558 42.2072C77.8045 42.2113 78.092 42.4751 77.687 42.4027C77.0406 42.2867 76.1464 42.2507 75.4593 41.9328C75.2576 41.8382 75.3354 41.474 74.8193 41.6168C74.7107 41.6459 74.7297 42.1124 74.2836 41.6056C74.2077 41.5219 73.4328 40.7905 72.8976 40.9964C72.7569 41.0511 72.3579 41.3247 72.107 41.1969C72.0735 41.1782 72.2699 41.0239 72.0555 40.9453C71.3115 40.6751 70.429 40.4435 69.7097 40.1606C69.5137 40.0835 69.8728 39.9755 69.5792 39.8667C68.7725 39.5677 67.7146 39.285 66.8637 39.0675C66.55 38.9878 66.7066 39.2217 66.6785 39.2319C66.2218 39.3991 66.1397 38.9366 66.0282 38.873C65.3331 38.4818 64.6813 38.454 64.0181 38.157C63.8442 38.0787 64.0383 37.9415 64.0088 37.912C63.6995 37.6163 63.8524 38.0474 63.605 37.9972C62.9109 37.8569 62.1766 37.5597 61.5086 37.27C61.2633 37.1632 61.6261 37.0622 61.4051 36.9688C60.1101 36.4158 58.6573 35.8336 57.3384 35.3937C57.096 35.3139 57.1724 35.538 57.1078 35.5533C56.6603 35.6626 56.3195 35.094 56.2208 35.0099C55.7708 34.6267 55.5053 34.6758 55.0559 34.4383C52.852 33.2749 49.974 31.9605 47.9125 30.9422C45.1485 29.5764 42.9139 28.5087 40.4583 27.0115C40.2992 26.9145 40.5793 26.81 40.4437 26.7238C38.7158 25.6369 36.7603 24.5397 35.1226 23.4165C34.9845 23.3225 35.3058 23.266 35.0883 23.1088C34.6429 22.7851 34.047 22.4155 33.5354 22.1666C33.2861 22.0448 33.4927 22.405 33.2436 22.2789C32.663 21.9852 32.0702 21.6138 31.5275 21.2103C31.2968 21.0381 31.7826 21.0909 31.4732 20.8816C29.3391 19.4315 27.3294 17.9919 25.121 16.7712C24.968 16.6863 24.5769 16.9699 24.3262 16.6813C24.3778 16.5617 24.4664 16.4412 24.5359 16.3238C21.5689 14.0971 18.5466 12.0134 15.6609 9.77709C15.5377 9.68148 15.8995 9.65723 15.6618 9.47113C14.2855 8.39242 12.9821 7.26179 11.3967 6.27845C11.2389 6.17986 11.0414 6.5704 10.6893 6.19832C10.6278 6.13292 10.0724 5.60235 9.97807 5.40384C9.96618 5.37587 10.2011 5.31148 10.014 5.1493C8.92412 4.20921 7.72423 3.26238 6.52075 2.39838C6.32622 2.25917 6.38202 2.58538 6.24219 2.48752C5.25091 1.79173 4.35151 0.803893 3.33702 0.175674C2.65689 -0.245168 2.63574 0.22308 2.08064 0.217402C2.00222 0.21659 1.62644 -0.10234 1.46846 0.0384588C1.07028 0.392011 0.868596 0.984966 0.423005 1.34322C0.32741 1.4209 -0.0861839 0.882907 0.0161491 1.36347C0.0239127 1.39653 0.322 1.78792 0.345599 1.94072C0.362372 2.04685 0.109561 2.10946 0.178347 2.28675C0.247198 2.46396 0.504379 2.451 0.646134 2.712C0.786934 2.97368 0.535153 3.07707 0.934818 3.46283ZM102.703 22.362C103.166 22.2388 103.084 22.9847 102.667 22.726C102.646 22.7127 102.679 22.368 102.703 22.362ZM117.166 51.088C116.521 51.0609 116.473 50.4469 116.938 50.4487C117.402 50.4495 117.362 51.096 117.166 51.088ZM121.921 54.3151C121.23 54.21 121.685 53.2467 122.17 53.7816C122.198 53.8123 121.961 54.3212 121.921 54.3151ZM3.4817 1.57357C3.47072 1.57726 3.19971 1.35522 3.1998 1.34221C3.21457 1.04076 3.75602 1.48461 3.4817 1.57357ZM126.786 57.3124C126.54 57.3461 126.1 56.9267 126.406 56.8867C126.652 56.8546 127.092 57.2707 126.786 57.3124ZM112.805 36.5682C112.811 36.5798 112.686 36.7827 112.637 36.7428C112.48 36.6144 112.707 36.3774 112.805 36.5682ZM135.588 61.3957C134.251 60.9001 133.094 61.3553 134.592 61.8735C134.863 61.9656 134.13 61.3808 134.496 61.4464C135.162 61.5656 135.365 62.2401 136.099 62.2103C136.231 62.2044 135.665 61.4228 135.587 61.3937C135.587 61.3944 135.588 61.3951 135.588 61.3957ZM103.112 21.5237C103.123 21.5152 103.472 21.5734 103.478 21.5851C103.617 21.8541 102.921 21.7378 103.112 21.5237ZM101.096 44.5256C101.086 44.5525 100.321 44.7723 100.288 44.758C99.7983 44.4844 101.326 44.0453 101.096 44.5256ZM94.6356 33.361C94.6846 33.8144 94.9521 34.1919 95.368 34.2257C95.1263 33.956 94.8841 33.6573 94.6356 33.361Z" fill="#FF6B6B"/>
</svg>
