<svg width="14" height="14" viewBox="0 0 14 14" fill="none" xmlns="http://www.w3.org/2000/svg">
<path id="Vector" d="M8.90628 5.05182C9.00331 4.76075 9.04741 4.61963 9.12679 4.59316C9.16207 4.58434 9.19735 4.58434 9.23263 4.59316C9.31202 4.61963 9.35612 4.76075 9.45314 5.05182C9.85006 6.2602 10.0441 6.85998 10.4234 7.33627C10.5998 7.55678 10.7938 7.75083 11.0143 7.92723C11.4906 8.29769 12.0904 8.50055 13.2988 8.89747C13.5899 8.99449 13.731 9.03859 13.7574 9.11797C13.7663 9.15325 13.7663 9.18853 13.7574 9.22382C13.731 9.3032 13.5899 9.3473 13.2988 9.44432C12.0904 9.84124 11.4906 10.0353 11.0143 10.4146C10.7938 10.591 10.5998 10.785 10.4234 11.0055C10.0529 11.4818 9.85006 12.0816 9.45314 13.29C9.35612 13.581 9.31202 13.7222 9.23263 13.7486C9.19735 13.7574 9.16207 13.7574 9.12679 13.7486C9.04741 13.7222 9.00331 13.581 8.90628 13.29C8.50937 12.0816 8.31533 11.4818 7.93605 11.0055C7.75965 10.785 7.5656 10.591 7.34509 10.4146C6.8688 10.0441 6.26902 9.84124 5.06064 9.44432C4.76957 9.3473 4.62845 9.3032 4.60198 9.22382C4.59316 9.18853 4.59316 9.15325 4.60198 9.11797C4.62845 9.03859 4.76957 8.99449 5.06064 8.89747C6.26902 8.50055 6.8688 8.30651 7.34509 7.92723C7.5656 7.75083 7.75965 7.55678 7.93605 7.33627C8.31533 6.85998 8.50937 6.2602 8.90628 5.05182ZM2.88203 2.6086C2.94377 2.41455 2.97905 2.31753 3.03197 2.29989C3.05843 2.29107 3.07607 2.29107 3.10254 2.29989C3.15546 2.31753 3.18192 2.41455 3.25248 2.6086C3.51709 3.41125 3.64939 3.81698 3.89636 4.13451C4.01103 4.28445 4.14333 4.41676 4.29327 4.53142C4.6108 4.77839 5.01654 4.91069 5.81918 5.1753C6.01323 5.23705 6.11025 5.27233 6.12789 5.32525C6.13671 5.35171 6.13671 5.36935 6.12789 5.39581C6.11025 5.44873 6.01323 5.47519 5.81918 5.54576C5.01654 5.81036 4.6108 5.94267 4.29327 6.18964C4.14333 6.3043 4.01103 6.4366 3.89636 6.58655C3.64939 6.90408 3.51709 7.30981 3.25248 8.11246C3.19074 8.30651 3.15546 8.40353 3.10254 8.42117C3.07607 8.42999 3.05843 8.42999 3.03197 8.42117C2.97905 8.40353 2.95259 8.30651 2.88203 8.11246C2.61742 7.30981 2.48512 6.90408 2.23815 6.58655C2.12348 6.4366 1.99118 6.3043 1.84123 6.18964C1.5237 5.94267 1.11797 5.81036 0.315325 5.54576C0.121279 5.48401 0.0242558 5.44873 0.00661521 5.39581C-0.00220507 5.36935 -0.00220507 5.35171 0.00661521 5.32525C0.0242558 5.27233 0.121279 5.24587 0.315325 5.1753C1.11797 4.91069 1.5237 4.77839 1.84123 4.53142C1.99118 4.41676 2.12348 4.28445 2.23815 4.13451C2.48512 3.80816 2.61742 3.41125 2.88203 2.6086ZM7.15987 0.200661C7.19515 0.0771775 7.22161 0.0242558 7.24807 0.00661521C7.26571 -0.00220507 7.27453 -0.00220507 7.29217 0.00661521C7.32745 0.0154355 7.34509 0.0771775 7.38037 0.200661C7.54796 0.703418 7.62734 0.950386 7.78611 1.15325C7.85667 1.24146 7.94487 1.32966 8.03308 1.40022C8.23594 1.55899 8.48291 1.63837 8.98567 1.80595C9.10915 1.84123 9.16207 1.8677 9.17971 1.89416C9.18853 1.9118 9.18853 1.92062 9.17971 1.93826C9.17089 1.97354 9.10915 1.99118 8.98567 2.02646C8.48291 2.19405 8.23594 2.27343 8.03308 2.43219C7.94487 2.50276 7.85667 2.59096 7.78611 2.67916C7.62734 2.88203 7.54796 3.129 7.38037 3.63175C7.34509 3.75524 7.31863 3.80816 7.29217 3.8258C7.27453 3.83462 7.26571 3.83462 7.24807 3.8258C7.21279 3.81698 7.19515 3.75524 7.15987 3.63175C6.99228 3.129 6.9129 2.88203 6.75413 2.67916C6.68357 2.59096 6.59537 2.50276 6.50717 2.43219C6.3043 2.27343 6.05733 2.19405 5.55458 2.02646C5.43109 1.99118 5.37817 1.96472 5.36053 1.93826C5.35171 1.92062 5.35171 1.9118 5.36053 1.89416C5.36935 1.85888 5.43109 1.84123 5.55458 1.80595C6.05733 1.63837 6.3043 1.55899 6.50717 1.40022C6.59537 1.32966 6.68357 1.24146 6.75413 1.15325C6.90408 0.950386 6.99228 0.703418 7.15987 0.200661Z" fill="#FFA666"/>
</svg>
