<svg width="435" height="9" viewBox="0 0 435 9" fill="none" xmlns="http://www.w3.org/2000/svg">
<path id="Vector 10" d="M4.14578 0.605881C6.58659 0.579268 9.78334 0.604317 12.2157 0.637392C12.9751 0.647659 12.5904 0.701485 13.1169 0.710875C14.1438 0.729109 15.1043 0.700448 16.1191 0.721658C16.4561 0.728931 16.0368 0.814301 16.3904 0.819992C18.3276 0.850482 20.1554 0.821035 22.1167 0.827679C26.5487 0.842615 30.9466 0.832869 35.3511 0.795931C39.0853 0.802271 42.8868 0.186727 46.7493 0.162584C48.1621 0.127462 49.5938 0.107326 51.0155 0.0936397C54.247 0.0622546 58.1665 0.126684 61.4998 0.109632C61.8886 0.107559 61.6574 0.0327384 61.7314 0.0270276C62.8918 -0.0594891 62.5083 0.0871871 63.2639 0.112402C65.4659 0.186982 67.8483 0.235509 70.0999 0.292109C70.9292 0.313253 71.7408 0.33918 72.5197 0.368547C73.7543 0.418261 72.5259 0.207306 73.7635 0.35708C73.8499 0.367598 73.5307 0.427673 73.8702 0.455549C74.6357 0.516883 76.0893 0.604186 76.6806 0.656429C77.8212 0.755931 78.0103 0.771793 79.0874 0.858822C80.5601 0.979212 82.3045 1.15325 83.8827 1.20741C84.2188 1.21856 83.7769 1.11894 84.3147 1.12841C84.7224 1.13598 85.6417 1.16702 86.2686 1.18497C86.4716 1.19113 86.6418 1.19925 86.759 1.20708C87.2454 1.241 87.0357 1.29811 87.1211 1.3153C87.8243 1.46272 89.4752 1.37835 89.691 1.38027C92.9928 1.45524 95.9051 1.55204 98.9607 1.60285C99.4633 1.61079 99.9926 1.61726 100.516 1.62132C103.284 1.64241 106.236 1.6253 108.867 1.64336C112.002 1.665 114.659 1.72194 117.704 1.73405C118.025 1.73544 117.649 1.63866 118.042 1.64018C122.213 1.6569 126.354 1.70124 130.507 1.82461C130.92 1.83712 130.386 1.91212 130.799 1.92962C132.35 1.99378 134.458 2.10739 136.197 2.12154C137.329 2.13063 138.304 2.09816 138.896 1.97529C140.623 2.04155 142.72 2.13677 144.259 2.27971C145.243 2.37176 144.283 2.41706 145.503 2.43653C145.777 2.44127 145.423 2.34485 145.837 2.35824C147.584 2.41507 149.475 2.54788 151.201 2.6141C151.55 2.62719 151.458 2.55061 151.558 2.54403C152.4 2.49284 153.778 2.75388 154.074 2.78586C156.368 3.02869 158.048 3.11005 160.19 3.22928C160.686 3.25614 160.106 3.13039 160.581 3.15232C161.825 3.2094 163.089 3.25845 164.342 3.28092C165.613 3.30449 166.858 3.39515 168.061 3.45416C168.599 3.48235 168.101 3.54632 168.358 3.56381C169.498 3.63828 169.749 3.49128 170.843 3.55044C171.079 3.56256 170.945 3.62888 170.988 3.63747C171.634 3.77159 172.218 3.61298 172.385 3.61234C174.525 3.59961 175.898 3.79228 177.958 3.78729C178.208 3.78642 177.643 3.69351 178.35 3.69638C179.139 3.69925 179.941 3.70267 180.769 3.70686C184.657 3.72608 188.682 3.76629 192.484 3.83284C193.194 3.84516 192.687 3.90999 192.732 3.91821C193.458 4.04672 193.937 3.87744 194.171 3.87145C196.002 3.82858 197.724 3.97296 198.969 3.77112C206.747 3.8459 214.491 3.72002 222.201 3.85942C222.299 3.86098 222.125 3.94574 222.319 3.94849C224.678 3.9817 224.23 3.85393 225.779 3.68391C226.183 3.6411 227.358 3.82417 227.475 3.8372C227.864 3.88593 227.462 4.01391 227.592 4.02289C228.659 4.09276 228.488 3.68236 229.918 3.66837C229.963 3.66861 229.777 3.74633 229.896 3.75269C230.267 3.7727 230.653 3.73853 231.014 3.76071C231.647 3.80054 232.009 3.92704 232.697 3.92085C232.91 3.91886 233.153 3.90539 233.441 3.87466C233.608 3.85638 233.332 3.62927 234.635 3.61555C235.139 3.61307 237.395 3.54768 238.041 3.53414C238.661 3.52501 238.239 3.61696 238.283 3.61851C239.992 3.64539 239.362 3.7125 240.211 3.8168C241.092 3.91408 240.807 3.57835 241.166 3.51686C241.512 3.45804 242.768 3.44522 243.073 3.4436C243.378 3.44462 242.999 3.52727 243.278 3.51797C245.102 3.44102 244.044 3.26508 244.639 3.14334C246.011 2.84238 247.121 2.92212 248.376 2.61881C248.71 2.53548 248.426 2.55238 248.72 2.46404C249.535 2.21521 250.128 2.03567 250.871 1.80721C251.19 1.70894 251.543 1.5986 251.955 1.48217C252.178 1.40957 253.28 1.04906 254.032 1.0802C254.138 1.08418 253.846 1.18361 254.379 1.13537C255.154 1.06442 256.572 0.962454 257.411 0.8884C258.038 0.832434 257.324 0.769804 258.097 0.755923C258.45 0.750228 257.798 0.850395 258.466 0.834695C259.11 0.81877 260.779 0.740365 261.407 0.716101C262.043 0.690022 261.693 0.622213 261.743 0.614814C262.051 0.571371 263.269 0.492601 263.368 0.490335C266.389 0.394324 269.257 0.389057 272.155 0.386174C274.432 0.384809 276.713 0.387528 279.04 0.360565C279.452 0.355952 279.177 0.271364 279.24 0.269779C280.644 0.230483 279.534 0.460106 280.524 0.534039C280.379 0.361096 280.972 0.391102 281.96 0.371274C282.441 0.361621 282.179 0.294734 282.223 0.287831C282.942 0.185481 283.433 0.317247 283.56 0.344185C284.029 0.443309 284.545 0.32665 284.869 0.393173C285.191 0.459219 284.456 0.555802 285.405 0.555636C285.672 0.493961 284.966 0.330959 285.688 0.30565C288.424 0.208632 293.542 0.357376 295.742 0.384624C297.935 0.410903 298.646 0.404781 299.928 0.436378C302.238 0.494224 301.393 0.367669 302.83 0.324183C304.27 0.281169 303.567 0.571231 303.774 0.63656C303.977 0.701869 304.199 0.63834 304.451 0.675499C304.703 0.71265 304.157 0.751101 304.75 0.769434C305.343 0.787672 306.963 0.689646 307.175 0.625257C307.621 0.488682 306.892 0.33358 308.46 0.400977C308.55 0.404958 308.257 0.479838 308.602 0.491141C311.346 0.578436 314.197 0.614122 316.938 0.701236C317.314 0.713334 316.976 0.795677 317.195 0.803701C319.477 0.888023 318.668 0.731895 319.915 0.586187C319.627 0.798193 320.333 0.939182 322.054 0.96452C323.104 0.980194 322.924 0.883455 323.597 0.826776C323.796 0.809627 324.534 0.88523 324.67 0.842971C325.113 0.70481 324.428 0.53202 326.203 0.623817C326.283 0.628115 326.029 0.703477 326.303 0.712529C328.06 0.771536 328.275 0.623365 330.16 0.636875C331.644 0.647505 334.287 0.788184 335.977 0.83796C335.958 0.953307 336.313 1.00836 336.746 1.01767C337.251 1.02845 337.846 0.984402 338.176 0.904242C339.294 0.935724 340.454 0.953679 341.524 1.00425C341.888 1.02152 341.647 1.08555 341.693 1.09432C342.373 1.23097 342.884 1.08237 343.11 1.08226C345.68 1.09314 347.762 1.28303 350.21 1.27802C350.288 1.27768 350.453 1.11592 351.096 1.27311C351.135 1.28385 350.322 1.3166 351.472 1.3849C352.625 1.44782 354.79 1.70813 356.382 1.80187C356.551 1.81 356.834 1.80615 357.167 1.81105C357.59 1.8172 358.092 1.84165 358.526 1.93658C358.63 1.9594 358.511 1.99844 358.66 2.03727C359.139 2.16125 359.42 2.01234 359.98 2.20011C360.541 2.38791 361.725 2.58497 363.341 2.59703C363.393 2.59771 363.782 2.48952 364.288 2.52622C365.096 2.58499 366.241 2.68976 367.084 2.74487C367.488 2.77123 367.235 2.67043 367.305 2.67356C370.023 2.80751 371.953 3.0063 374.857 3.25217C375.389 3.29718 376.93 3.30004 377.954 3.47741C379.076 3.67417 377.881 3.97487 380.485 4.11794C380.936 4.14438 381.448 4.08899 382.028 4.05613C382.807 4.01331 383.711 4.0102 384.764 4.29635C388.416 4.68212 391.744 5.3633 395.385 5.90058C395.549 5.92483 396.09 5.87109 396.472 5.93994C397.041 6.04262 397.342 6.16419 397.747 6.23926C399.447 6.55529 401.015 6.76452 402.661 7.01867C403.287 7.11358 403.056 7.1525 403.805 7.26011C404.088 7.30019 404.342 7.32069 404.597 7.33924C405.003 7.37527 405.439 7.39987 406.071 7.48481C406.836 7.58705 407.595 7.8303 408.619 7.90983C408.667 7.72468 409.367 7.77069 410.62 7.77277C410.861 7.77294 410.606 7.69751 410.72 7.69423C411.193 7.67965 411.606 7.74843 412.052 7.72646C412.158 7.72112 412.165 7.65747 412.252 7.64945C413.004 7.58007 414.215 7.75168 414.427 7.78043C415.231 7.89158 415.611 7.81404 416.226 7.85935C416.844 7.90397 415.918 7.94011 416.642 7.9709C418.135 8.03451 420.058 8.02356 421.576 8.00577C422.182 7.99828 421.767 7.91872 421.854 7.91567C423.105 7.8768 424.374 7.93305 425.064 7.73951C425.943 8.14604 425.816 7.67759 427.607 7.67546C427.749 7.67479 427.941 7.87273 427.397 7.93194C426.863 7.99036 426.034 7.96231 425.285 8.0356C425.108 8.05387 424.093 8.27908 423.953 8.29366C422.864 8.41316 422.702 8.10309 422.644 8.08775C421.989 7.91722 420.745 8.14029 420.416 8.15622C418.915 8.2328 417.638 8.18353 416.382 8.21659C415.561 8.23703 415.474 8.43837 414.831 8.4207C412.68 8.35556 411.948 8.05049 409.912 8.20923C409.476 8.24006 409.898 8.48873 408.348 8.22899C408.253 8.21334 407.105 7.98362 406.432 8.0276C406.345 8.03324 406.342 8.09797 406.231 8.09397C405.591 8.06787 405.15 7.9932 404.514 7.90864L404.525 7.91012C404.419 7.89757 404.307 7.88527 404.189 7.87344C403.383 7.79346 402.413 7.68933 401.506 7.52387C400.96 7.42496 400.274 7.1898 400.019 7.11714C399.294 6.91026 398.477 6.91074 398.04 6.7304C397.596 6.54833 398.523 6.54997 397.328 6.27415C397.254 6.43192 397.121 6.58401 397.021 6.7381C394.376 6.26946 391.789 5.76268 389.131 5.36982C388.801 5.32138 389.125 5.46132 388.771 5.41185C387.28 5.20482 385.986 4.96193 384.433 4.79704C383.647 4.71399 382.811 4.66382 381.97 4.61139C381.529 4.58413 381.084 4.55614 380.647 4.52199C379.897 4.25383 378.021 4.15218 376.664 4.0288C376.188 3.98512 376.223 3.93647 375.886 3.89364C374.611 3.7345 375.199 3.94995 374.845 3.95023C373.331 3.9537 373.231 3.56096 371.453 3.44816C371.36 3.44198 370.195 3.56885 370.036 3.57109C369.023 3.58687 369.874 3.48868 369.244 3.43149C368.095 3.3272 367.298 3.22576 365.943 3.19541C365.548 3.18684 364.595 3.2509 363.836 3.09952C363.736 3.07967 363.796 3.01587 363.716 3.00633C362.254 2.83862 362.201 3.04767 361.356 3.05909C360.512 3.07058 359.228 2.82462 358.968 2.76116C358.288 2.59761 359.5 2.75599 359.538 2.74773C359.986 2.6536 359.041 2.60384 358.32 2.53464C358.232 2.31848 357.223 2.24761 357.573 2.46315C357.613 2.48699 358.176 2.51362 358.32 2.53464C358.007 2.60858 357.585 2.63159 357.1 2.6019C356.569 2.56978 355.969 2.46723 355.35 2.30558C354.79 2.16324 355.34 2.09843 353.604 1.99242C352.818 1.95054 353.113 2.11624 352.413 2.1087C350.832 2.09506 348.767 1.87183 347.123 1.83397C346.531 1.82043 347.108 1.91978 346.698 1.91322C345.623 1.89701 344.655 1.80783 343.576 1.80711C343.475 1.80708 343.719 1.89647 343.372 1.88767C341.1 1.83234 339.057 1.74328 336.733 1.68467C336.468 1.67801 336.196 1.6717 335.916 1.66586C334.616 1.63848 332.305 1.64079 330.969 1.60862C328.646 1.55247 325.792 1.38787 323.803 1.38807C322.515 1.38799 322.793 1.47456 322.235 1.52279C321.172 1.61649 319.272 1.39614 319.021 1.36277C319.014 1.36164 320.122 1.35689 319.532 1.30675C319.189 1.21404 319.034 1.36255 319.021 1.36277C318.853 1.34088 316.631 1.29391 316.186 1.30444C315.945 1.31011 316.079 1.38985 315.953 1.39133C312.978 1.42506 309.998 1.41256 306.982 1.34732C306.929 1.34524 307.01 1.25865 306.885 1.25484C305.14 1.19953 304.019 1.29667 302.579 1.34828C301.136 1.39993 299.997 1.37033 299.144 1.21434C298.059 1.22549 296.496 1.14924 295.603 1.10392C294.703 1.05852 294.578 1.22801 294.499 1.23092C292.036 1.32562 290.615 1.22217 288.058 1.19988C286.856 1.18887 284.427 1.20995 283.125 1.22904C282.074 1.24418 281.467 1.20492 280.499 1.23208C280.368 1.23573 280.5 1.3112 280.461 1.31418C279.39 1.40696 279.905 1.22087 279.685 1.18829C278.903 1.07015 278.38 1.00732 277.025 1.07005C276.699 1.08446 275.797 1.35576 275.216 1.37529C274.462 1.40024 274.743 1.30264 273.969 1.33182C273.902 1.33429 273.925 1.39291 273.431 1.39459C273.007 1.39622 272.584 1.3974 272.165 1.39856C270.283 1.40419 268.317 1.41113 266.423 1.4566C266.098 1.46424 266.515 1.54859 266.049 1.56126C263.893 1.62052 261.549 1.68776 259.448 1.74779C258.936 1.76239 259.252 1.68102 259.139 1.66726C258.453 1.5836 257.483 1.81563 257.327 1.83023C255.016 2.05187 253.034 2.15056 251.147 2.71673C249.907 3.0915 248.496 3.58101 246.939 3.88282C246.724 3.93877 245.076 4.37681 244.32 4.29086C244.27 4.28642 243.514 4.20611 242.883 4.36888C242.842 4.37889 243.311 4.42346 242.506 4.48149C241.705 4.53857 240.433 4.67446 239.334 4.6339C238.999 4.62108 238.173 4.49791 237.146 4.65889C237.085 4.67125 235.498 5.00564 234.926 4.81655C234.834 4.78515 234.93 4.57453 233.701 4.70389C233.469 4.72853 233.894 4.76908 233.279 4.80786C233.101 4.81897 232.91 4.82652 232.708 4.83208C231.876 4.85569 230.866 4.84402 229.916 4.9298C229.726 4.94838 228.841 5.1001 228.165 4.9972C228.057 4.9811 228.261 4.90892 227.897 4.90415C226.161 4.88107 224.338 4.94064 222.577 4.90199C221.953 4.88839 222.274 4.77276 221.624 4.74577C220.966 4.71885 219.665 4.69582 218.978 4.75079C218.301 4.80576 219.044 4.98411 218.024 5.00287C213.59 5.08387 209.194 4.98636 204.767 4.97368C204.109 4.97174 204.654 5.03641 203.686 5.03808C200.119 5.0453 193.951 5.09932 190.863 4.95224C188.374 4.83484 191.5 4.75948 189.607 4.70911C188.687 4.68496 187.71 4.8925 187.481 4.89829C185.321 4.95778 183.829 4.85745 181.883 4.8747C181.475 4.8782 181.873 4.96613 181.528 4.96814C181.27 4.96981 181.014 4.96886 180.761 4.96636C179.817 4.95719 178.9 4.92795 178.023 4.92527C177.519 4.92385 177.628 4.99022 177.157 4.98042C176.069 4.95789 175.078 4.9184 174.009 4.84122C173.913 4.83419 174.564 4.76274 173.763 4.74762C172.429 4.72236 170.815 4.63182 169.285 4.65005C168.835 4.65527 168.811 4.80554 167.844 4.66839C167.648 4.63912 167.908 4.47177 166.774 4.58052C166.612 4.59814 165.274 4.67558 164.324 4.63655C164.126 4.62816 163.941 4.61192 163.783 4.58608C163.537 4.54595 162.911 4.38331 162.366 4.38591C162.292 4.3868 162.585 4.4781 162.134 4.4689C160.545 4.43343 158.883 4.3248 157.263 4.24614C156.827 4.22495 157.466 4.34932 156.824 4.31542C155.048 4.22089 152.84 4.05057 151.114 3.91856C150.476 3.86952 150.922 3.82811 150.876 3.81778C150.137 3.65061 149.68 3.78839 149.437 3.78377C147.896 3.75153 146.726 3.61212 145.305 3.56392C144.914 3.55064 145.188 3.6421 145.109 3.64535C144.294 3.67535 144.9 3.56288 144.394 3.52404C142.961 3.41454 141.361 3.35754 139.907 3.3191C139.379 3.30538 139.971 3.41571 139.495 3.40248C138.389 3.37272 137.294 3.3444 136.169 3.31539C134.413 3.27017 132.645 3.22366 130.947 3.16743C130.423 3.15004 130.754 3.08506 130.645 3.06748C129.902 2.9447 128.8 3.08277 128.546 3.09419C127.398 3.14627 126.953 3.07955 125.935 3.0803C120.979 3.0852 114.855 3.01083 110.173 2.96162C106.067 2.91808 102.567 2.86534 98.9492 2.81556C97.1849 2.79054 95.4093 2.76439 93.5084 2.72758C93.1432 2.72022 93.513 2.82179 93.1894 2.81629C90.8684 2.78807 88.4924 2.63255 86.2472 2.56793C84.4531 2.53906 82.663 2.44081 80.8707 2.31949C80.5314 2.29634 81.0137 2.42081 80.4689 2.38617C79.3515 2.31523 77.9458 2.19281 76.8304 2.07949C76.2855 2.02442 77.0216 2.00441 76.4752 1.95093C75.199 1.82622 73.8301 1.73062 72.5172 1.68229C71.9609 1.66245 72.7958 1.79134 72.0722 1.75927C71.4016 1.73073 70.7322 1.70795 70.0611 1.69042C65.7929 1.58664 61.551 1.56515 57.2043 1.46963C56.86 1.46237 56.556 1.27965 55.8233 1.31777C55.7682 1.36886 55.7714 1.42868 55.7475 1.48314C52.7522 1.50962 49.758 1.534 46.7911 1.60758C43.0128 1.63091 39.2897 2.23691 35.3709 2.25027C34.9387 2.2552 34.5051 2.26009 34.0716 2.26497C33.7649 2.26843 34.2963 2.3589 33.7024 2.36602C30.2634 2.40692 26.9249 2.46326 23.4071 2.38914C23.0578 2.38186 23.236 2.2101 22.208 2.24197C22.0264 2.24786 20.4775 2.27896 20.0784 2.31782C20.0239 2.32368 20.3073 2.40206 19.8075 2.40677C16.9077 2.43262 13.8688 2.4232 10.9741 2.37932C10.5056 2.37208 11.0041 2.28636 10.6708 2.28046C8.31311 2.23923 5.74236 2.30538 3.48825 2.22872C1.98083 2.17707 2.5367 2.0302 1.73634 1.8858C1.61997 1.86543 0.690446 1.86222 0.639121 1.77817C0.51434 1.56681 0.969639 1.33537 0.782723 1.11008C0.739719 1.06156 -0.503554 1.11382 0.232368 0.996555C0.282401 0.988709 1.19308 0.949783 1.41461 0.90999C1.57042 0.882481 1.28941 0.79701 1.6077 0.761789C1.93009 0.726598 2.27027 0.798236 2.80176 0.756799C3.32543 0.714833 3.09575 0.617667 4.14578 0.605881ZM291.564 0.903825C290.734 0.818747 290.608 1.11736 291.508 1.04947C291.552 1.04584 291.606 0.908011 291.564 0.903825ZM391.837 5.56064C390.787 5.25517 390.025 5.33371 390.763 5.55322C391.503 5.774 392.157 5.65387 391.837 5.56064ZM402.964 7.32844C401.721 7.0389 401.458 7.42679 402.821 7.54447C402.9 7.55123 403.037 7.34511 402.964 7.32844ZM5.45512 1.84378C5.44247 1.83982 4.7744 1.83624 4.75699 1.84017C4.4 1.93531 5.74063 1.94242 5.45512 1.84378ZM414.131 7.99244C413.74 7.92739 412.594 7.96229 413.084 8.04698C413.479 8.11601 414.623 8.0746 414.131 7.99244ZM248.448 2.75092C248.434 2.75143 247.967 2.86603 247.98 2.88745C248.034 2.96065 248.678 2.76779 248.448 2.75092ZM433.107 7.22421C432.546 7.34475 432.019 7.3855 431.592 7.48171C431.59 7.48232 431.583 7.48361 431.581 7.48384C429.846 7.55886 429.245 7.39834 431.551 7.20257L431.513 7.21005C431.543 7.20164 431.574 7.19355 431.605 7.18585C431.815 7.13753 431.706 7.17641 431.524 7.24876L431.555 7.24265C431.258 7.31066 430.727 7.41058 431.174 7.38683C431.312 7.37923 431.443 7.36864 431.567 7.35574L431.556 7.35798C432.628 7.12146 433.374 6.86836 434.522 6.62475C434.761 6.58622 433.274 7.20944 433.102 7.22573C433.103 7.22522 433.105 7.22472 433.107 7.22421ZM291.087 0.542612C291.07 0.538565 290.4 0.532235 290.385 0.536122C290.022 0.629685 291.37 0.642468 291.087 0.542612ZM220.418 3.95053C220.386 3.94237 218.827 3.94165 218.783 3.94951C217.976 4.10849 221.107 4.11055 220.418 3.95053ZM336.004 0.844967C336.246 0.818149 336.5 0.800951 336.751 0.794767C337.285 0.782947 337.798 0.815641 338.173 0.904049C337.713 0.889749 337.239 0.877714 336.75 0.865091C336.504 0.858688 336.256 0.852122 336.004 0.844967Z" fill="#E8A200"/>
</svg>
