<svg width="435" height="8" viewBox="0 0 435 8" fill="none" xmlns="http://www.w3.org/2000/svg">
<path id="Vector 6" d="M4.14635 0.239116C6.58734 0.186449 9.78403 0.239353 12.2163 0.310662C12.9757 0.332787 12.5911 0.439622 13.1176 0.459584C14.1445 0.498427 15.1048 0.443769 16.1196 0.489529C16.4566 0.505198 16.0376 0.674533 16.3912 0.687105C18.3284 0.7547 20.156 0.703864 22.1171 0.728354C26.5463 0.783673 30.9413 0.802434 35.3426 0.788246C39.0114 0.816784 42.8483 0.214957 46.7325 0.204777C48.1539 0.17493 49.5908 0.160206 51.0185 0.152075C54.2555 0.133246 58.1781 0.273937 61.5149 0.223643C61.9043 0.217616 61.673 0.0690895 61.7472 0.0573065C62.9094 -0.122168 62.5246 0.17328 63.2811 0.218286C65.4805 0.349756 67.8592 0.417309 70.1123 0.469102C70.9498 0.488667 71.7695 0.509828 72.5565 0.531939C73.7963 0.569729 72.5713 0.212213 73.8096 0.444465C73.896 0.460552 73.5713 0.59867 73.9114 0.634978C74.6783 0.71529 76.1372 0.789088 76.729 0.847628C77.8711 0.959691 78.0602 0.974781 79.1372 1.06269C80.6096 1.18496 82.3465 1.39715 83.9183 1.43293C84.253 1.43993 83.8172 1.26037 84.3522 1.25593C84.7545 1.25296 85.6541 1.28453 86.2763 1.31158C86.4898 1.32101 86.6687 1.33345 86.791 1.34628C87.2823 1.39948 87.0676 1.51944 87.1535 1.55114C87.8583 1.82109 89.5138 1.56757 89.7275 1.56519C93.0156 1.57854 95.9176 1.73614 98.9647 1.80604C99.4739 1.81738 100.009 1.82597 100.54 1.83004C103.308 1.85067 106.26 1.80178 108.892 1.8242C112.028 1.85135 114.685 1.95177 117.731 1.95644C118.052 1.95714 117.677 1.76602 118.069 1.76651C122.242 1.77229 126.385 1.82698 130.54 2.01419C130.953 2.03318 130.417 2.19096 130.832 2.21991C132.374 2.32502 134.467 2.51406 136.203 2.50295C137.348 2.49573 138.336 2.40313 138.939 2.13722C140.668 2.21776 142.768 2.3278 144.304 2.54356C145.289 2.68251 144.323 2.8178 145.546 2.79893C145.82 2.79514 145.469 2.6197 145.885 2.62634C147.635 2.65448 149.528 2.81328 151.257 2.83888C151.606 2.84354 151.518 2.69621 151.62 2.67703C152.468 2.5228 153.838 2.95439 154.133 2.99872C156.423 3.33399 158.104 3.37893 160.242 3.4998C160.736 3.52705 160.163 3.30655 160.637 3.32541C161.868 3.37484 163.114 3.42143 164.348 3.44898C165.65 3.47878 166.897 3.58282 168.111 3.66323C168.645 3.70083 168.147 3.8459 168.403 3.87209C169.539 3.98379 169.795 3.68385 170.888 3.7759C171.124 3.79479 170.988 3.93044 171.03 3.94662C171.674 4.2002 172.263 3.87221 172.427 3.86774C174.566 3.80371 175.935 4.17315 177.998 4.14305C178.248 4.139 177.682 3.95835 178.391 3.95765C179.166 3.95631 179.956 3.95694 180.771 3.95968C184.671 3.97219 188.708 4.0389 192.525 4.16391C193.233 4.18701 192.727 4.31777 192.772 4.33412C193.498 4.58959 193.978 4.25018 194.212 4.23778C196.043 4.14878 197.764 4.43581 199.01 4.03134C206.789 4.17636 214.535 3.93663 222.245 4.25742C222.343 4.26108 222.17 4.42962 222.363 4.4362C224.724 4.5164 224.274 4.25843 225.823 3.92911C226.226 3.84632 227.404 4.22161 227.521 4.24874C227.91 4.34939 227.509 4.60202 227.639 4.62106C228.705 4.7699 228.534 3.94726 229.961 3.93311C230.006 3.93404 229.821 4.08764 229.94 4.10154C230.315 4.14518 230.697 4.08088 231.059 4.12916C231.681 4.21376 232.04 4.46124 232.696 4.469C232.921 4.4713 233.18 4.44906 233.49 4.38937C233.658 4.35811 233.376 3.8904 234.688 3.90514C235.196 3.9088 237.471 3.90799 238.111 3.95151C238.751 3.99146 238.309 4.13549 238.353 4.14265C240.067 4.37375 239.407 4.445 240.265 4.76289C241.093 5.08313 240.904 4.37668 241.249 4.31092C241.606 4.24444 242.851 4.46913 243.155 4.54634C243.46 4.62162 243.065 4.69409 243.343 4.74312C245.138 5.07152 244.163 4.44851 244.77 4.37919C246.209 4.20335 247.203 4.90996 248.459 4.63507C248.788 4.56317 248.497 4.51917 248.779 4.42811C248.821 4.41434 248.863 4.40052 248.905 4.38664C250.144 4.08178 250.867 4.30199 252.227 4.14323C252.452 4.11876 253.599 3.82125 254.328 4.06647C254.433 4.1017 254.129 4.22498 254.664 4.26503C255.451 4.32489 256.854 4.38559 257.705 4.3604C258.319 4.34144 257.612 4.11302 258.398 4.1958C258.75 4.23266 258.099 4.34425 258.75 4.40276C259.407 4.46185 261.057 4.48588 261.697 4.4905C262.325 4.49537 261.984 4.32836 262.034 4.31822C262.355 4.26075 263.554 4.19755 263.67 4.19868C267.392 4.22614 270.924 4.34877 274.496 4.36049C276.075 4.3658 277.688 4.33089 279.311 4.24587C279.729 4.22414 279.445 4.0634 279.508 4.05832C280.905 3.93463 279.815 4.43038 280.809 4.54335C280.65 4.20276 281.246 4.2427 282.23 4.1605C282.709 4.1202 282.442 3.99797 282.485 3.98228C283.194 3.74584 283.693 3.98457 283.824 4.0321C284.302 4.20694 284.807 3.94668 285.137 4.06202C285.461 4.17655 284.739 4.40977 285.687 4.35712C285.947 4.21899 285.224 3.9331 285.943 3.84193C288.665 3.50072 293.778 3.43058 295.978 3.30882C298.175 3.18904 298.88 3.11755 300.159 3.0757C302.474 2.99927 301.609 2.81702 303.035 2.60943C304.466 2.4016 303.807 3.03966 304.022 3.15249C304.233 3.26554 304.446 3.11989 304.703 3.17249C304.959 3.22513 304.421 3.34839 305.014 3.33441C305.607 3.32029 307.21 2.98548 307.41 2.83887C307.835 2.52808 307.084 2.28154 308.659 2.28088C308.75 2.28106 308.468 2.4557 308.814 2.44852C311.561 2.38649 314.408 2.21227 317.152 2.1604C317.529 2.15354 317.202 2.34568 317.422 2.34369C319.703 2.32609 318.881 2.08039 320.11 1.68993C319.85 2.13625 320.563 2.36018 322.287 2.27946C323.33 2.23181 323.144 2.05222 323.81 1.88949C324.008 1.84047 324.749 1.93849 324.882 1.84455C325.311 1.53782 324.609 1.23873 326.394 1.30069C326.473 1.30394 326.227 1.47158 326.501 1.47124C328.261 1.47354 328.462 1.16272 330.356 1.08284C331.838 1.0195 334.497 1.18105 336.193 1.2432C336.176 1.4355 336.417 1.53764 336.748 1.57258C337.282 1.62631 338.002 1.5214 338.399 1.32849C339.513 1.36697 340.665 1.3755 341.745 1.44976C342.106 1.47491 341.865 1.60914 341.91 1.6255C342.598 1.88163 343.102 1.57024 343.326 1.56378C345.907 1.51388 347.982 1.82772 350.439 1.70527C350.534 1.7015 350.673 1.3699 351.329 1.65186C351.372 1.67138 350.553 1.77935 351.705 1.8555C352.858 1.92461 355.015 2.28743 356.614 2.29922C356.744 2.2987 356.942 2.27733 357.181 2.25876C357.646 2.22209 358.254 2.19956 358.762 2.38178C358.863 2.41896 358.742 2.50629 358.888 2.57178C359.361 2.78092 359.653 2.46192 360.203 2.79374C360.753 3.12544 361.931 3.43007 363.554 3.34212C363.606 3.33987 364.005 3.09694 364.511 3.13564C365.319 3.19776 366.462 3.33042 367.306 3.38464C367.709 3.4105 367.462 3.22609 367.532 3.22768C370.255 3.31486 372.178 3.58839 375.082 3.86826C375.613 3.91958 377.165 3.80965 378.182 4.07799C379.296 4.37448 378.066 5.08379 380.672 5.13173C381.065 5.14066 381.509 5.02132 382.004 4.90757C382.849 4.71702 383.839 4.5352 384.986 4.99486C388.65 5.23625 392.007 5.84424 395.697 5.9153C395.863 5.91858 396.404 5.66385 396.793 5.69265C397.367 5.73583 397.675 5.89026 398.088 5.92252C399.812 6.05955 401.397 6.00362 403.062 6.04652C403.693 6.06101 403.471 6.20043 404.226 6.21199C404.321 6.21323 404.412 6.21128 404.5 6.20708C405.11 6.17809 405.611 6.04801 406.505 6.13291C407.279 6.20705 408.043 6.59378 409.068 6.64848C409.114 6.27494 409.813 6.29045 411.066 6.20316C411.307 6.18613 411.05 6.05374 411.164 6.03898C411.63 5.97599 412.056 6.08717 412.495 6.01705C412.602 6.00021 412.608 5.87257 412.696 5.85157C413.439 5.6687 414.663 5.95866 414.872 6.00828C415.679 6.19825 416.055 6.03077 416.673 6.10211C417.291 6.17282 416.367 6.27258 417.09 6.31288C418.585 6.39637 420.509 6.34114 422.027 6.29251C422.634 6.27227 422.214 6.11683 422.301 6.10998C423.55 6.02175 424.827 6.13326 425.498 5.74896C426.421 6.56442 426.247 5.6239 428.038 5.64041C428.178 5.64123 428.399 6.03802 427.863 6.14895C427.324 6.2597 426.495 6.19649 425.748 6.34081C425.572 6.37623 424.572 6.82537 424.432 6.85527C423.345 7.09631 423.162 6.47913 423.103 6.44843C422.434 6.11065 421.203 6.56937 420.874 6.60619C419.373 6.7793 418.094 6.70836 416.837 6.81178C416.015 6.87788 415.935 7.28398 415.289 7.27258C413.139 7.23109 412.395 6.65659 410.37 7.12982C409.936 7.23037 410.361 7.67892 408.813 7.31387C408.719 7.29091 407.567 6.9595 406.903 7.15614C406.819 7.18092 406.82 7.31035 406.71 7.32033C405.973 7.38496 405.485 7.27849 404.683 7.32673C404.623 7.33042 404.562 7.33429 404.5 7.33826C403.726 7.38681 402.823 7.43582 401.966 7.37388C401.406 7.33433 400.699 7.06867 400.434 6.9992C399.688 6.80106 398.869 7.04007 398.413 6.80923C397.956 6.57683 398.887 6.31451 397.669 6.1115C397.604 6.44453 397.48 6.78288 397.386 7.116C394.684 6.94114 392.05 6.60737 389.356 6.36759C389.025 6.33826 389.347 6.55055 388.99 6.5235C387.475 6.40726 386.178 6.14688 384.608 6.03624C383.747 5.97603 382.816 5.98421 381.892 5.96227C381.527 5.9543 381.156 5.94233 380.796 5.92079C380.07 5.46046 378.193 5.42227 376.838 5.28045C376.365 5.23058 376.402 5.13062 376.067 5.07087C374.798 4.84921 375.373 5.23457 375.018 5.26139C373.499 5.37821 373.426 4.60152 371.648 4.49774C371.553 4.49185 370.376 4.82317 370.216 4.83818C369.197 4.9369 370.058 4.68449 369.43 4.61214C368.283 4.48011 367.489 4.32977 366.13 4.35948C365.733 4.3687 364.77 4.56042 364.018 4.31055C363.919 4.2778 363.984 4.14634 363.903 4.13286C362.444 3.89948 362.376 4.32104 361.526 4.40471C360.675 4.48842 359.4 4.09633 359.142 3.99076C358.468 3.71815 359.679 3.93868 359.717 3.9196C360.176 3.69761 359.227 3.6702 358.507 3.59069C358.435 3.16627 357.424 3.10867 357.76 3.50932C357.799 3.55344 358.362 3.56016 358.507 3.59069C358.138 3.78867 357.63 3.86535 357.05 3.811C356.569 3.76641 356.048 3.62958 355.522 3.40446C354.972 3.17194 355.527 3.00423 353.799 2.93208C353.012 2.90536 353.294 3.21509 352.6 3.24569C351.006 3.31739 348.977 2.9598 347.318 2.94142C346.735 2.93556 347.299 3.11356 346.896 3.11499C345.819 3.11942 344.854 2.97085 343.78 3.00016C343.68 3.00297 343.919 3.17475 343.576 3.16698C341.218 3.11757 339.141 2.98043 336.72 2.91349C336.525 2.90808 336.326 2.90363 336.123 2.90025C334.829 2.87465 332.55 2.97456 331.214 2.98219C328.905 2.98843 326.052 2.84975 324.073 2.99549C322.789 3.08958 323.076 3.24262 322.525 3.38066C321.48 3.64713 319.566 3.35747 319.31 3.31146C319.303 3.30959 320.408 3.21195 319.813 3.1588C319.46 3.00102 319.322 3.31004 319.31 3.31146C319.137 3.28072 316.924 3.3677 316.479 3.42643C316.24 3.45772 316.384 3.60574 316.26 3.61909C313.304 3.93371 310.336 4.16675 307.322 4.29582C307.268 4.29623 307.336 4.11655 307.211 4.11969C305.463 4.15936 304.363 4.44876 302.933 4.67343C301.506 4.89795 300.359 4.93358 299.49 4.69187C298.405 4.80349 296.841 4.77571 295.939 4.75474C295.041 4.73355 294.934 5.08112 294.856 5.09302C292.416 5.46777 290.97 5.3651 288.415 5.48473C287.207 5.54125 284.783 5.72236 283.474 5.82099C282.424 5.90114 281.811 5.8486 280.839 5.93928C280.708 5.95136 280.846 6.09733 280.807 6.10477C279.739 6.3282 280.242 5.93761 280.019 5.88015C279.213 5.66902 278.706 5.56066 277.334 5.71138C277.01 5.74626 276.118 6.30051 275.521 6.34119C274.86 6.38632 274.994 6.2421 274.516 6.2427C274.446 6.24273 274.363 6.24567 274.264 6.25247C274.196 6.2569 274.21 6.37481 273.723 6.37415C271.469 6.37246 269.026 6.31072 266.676 6.31098C266.357 6.31054 266.764 6.49962 266.306 6.50193C264.142 6.51258 261.762 6.4751 259.652 6.34746C259.14 6.31563 259.463 6.19081 259.351 6.14982C258.657 5.9014 257.678 6.22223 257.514 6.22512C254.518 6.32331 251.464 5.92827 249.461 6.22168C248.748 6.45139 247.743 6.65748 246.854 6.65605C246.56 6.67941 244.846 6.91097 244.169 6.54865C244.118 6.52392 243.43 6.15372 242.787 6.33891C242.748 6.35077 243.182 6.5394 242.408 6.48132C241.636 6.4237 240.384 6.48638 239.316 6.28137C238.968 6.21615 238.188 5.87896 237.156 6.12598C237.098 6.14187 235.528 6.7127 234.961 6.31769C234.87 6.25292 234.973 5.82804 233.75 6.05358C233.521 6.0976 233.94 6.18769 233.333 6.25233C233.143 6.27263 232.938 6.28496 232.719 6.29357C231.896 6.32702 230.906 6.29666 229.972 6.45583C229.781 6.49106 228.901 6.78597 228.22 6.57444C228.112 6.54133 228.316 6.39871 227.951 6.38607C226.214 6.32525 224.388 6.43198 222.628 6.34463C222.002 6.31393 222.323 6.08442 221.673 6.02693C221.016 5.96953 219.713 5.91718 219.026 6.0242C218.349 6.13123 219.093 6.49104 218.073 6.52433C213.636 6.66848 209.238 6.46456 204.81 6.43635C204.152 6.43209 204.697 6.56169 203.728 6.5646C200.16 6.57669 193.989 6.69165 190.901 6.40662C188.409 6.17872 191.539 6.0192 189.644 5.92388C188.726 5.87829 187.744 6.29679 187.517 6.30924C185.356 6.43622 183.864 6.24246 181.916 6.28842C181.508 6.29787 181.906 6.4713 181.561 6.47744C181.29 6.4826 181.02 6.48209 180.755 6.47831C179.823 6.46538 178.917 6.41553 178.052 6.4183C177.547 6.42022 177.653 6.55187 177.185 6.53708C176.094 6.50326 175.102 6.43635 174.032 6.29801C173.935 6.2854 174.591 6.13272 173.786 6.11458C172.455 6.08479 170.831 5.9338 169.299 6.0146C168.842 6.03845 168.822 6.33816 167.85 6.09786C167.65 6.04699 167.923 5.70071 166.778 5.9642C166.61 6.00358 165.235 6.23428 164.312 6.15843C164.125 6.14353 163.95 6.11505 163.8 6.06944C163.551 5.99392 162.924 5.68479 162.374 5.71045C162.3 5.71502 162.591 5.88643 162.137 5.88507C160.535 5.87577 158.866 5.7583 157.243 5.7047C156.806 5.69035 157.441 5.89758 156.796 5.87115C155.015 5.79738 152.812 5.60615 151.089 5.44821C150.453 5.38952 150.902 5.27946 150.857 5.26168C150.125 4.97301 149.661 5.27488 149.417 5.27972C147.875 5.30479 146.712 5.08839 145.293 5.0606C144.903 5.05277 145.172 5.22241 145.093 5.23265C144.277 5.33082 144.889 5.07792 144.383 5.02355C142.955 4.87023 141.359 4.81951 139.907 4.79106C139.38 4.78114 139.967 4.98219 139.493 4.97132C138.38 4.9474 137.278 4.92125 136.146 4.88966C134.403 4.84102 132.647 4.77953 130.96 4.69305C130.436 4.66605 130.769 4.53119 130.66 4.49765C129.919 4.26316 128.816 4.55356 128.561 4.57949C127.413 4.69782 126.969 4.56928 125.952 4.58155C120.997 4.64382 114.875 4.52847 110.191 4.45396C106.076 4.38835 102.571 4.29805 98.9418 4.23152C97.1811 4.19858 95.4099 4.16934 93.5098 4.13826C93.1446 4.13194 93.5133 4.32648 93.188 4.32303C90.8612 4.30777 88.4201 4.14368 86.2335 4.078C84.4238 4.04677 82.6187 3.94767 80.8217 3.83777C80.4804 3.81655 80.9589 4.02909 80.4106 4.0005C79.2861 3.94255 77.8807 3.81534 76.7717 3.67421C76.2295 3.60571 76.9695 3.51017 76.4255 3.4447C75.1562 3.29198 73.7955 3.19049 72.4912 3.15657C71.9381 3.14302 72.7628 3.36179 72.0448 3.33094C71.3744 3.30356 70.7054 3.28211 70.0346 3.26571C65.7895 3.1695 61.5539 3.14552 57.2178 2.94927C56.8739 2.93398 56.5696 2.56801 55.8377 2.64126C55.7829 2.7432 55.7864 2.86284 55.7627 2.97166C52.7685 3.0102 49.7732 3.0308 46.8162 3.09479C43.0697 3.10493 39.3886 3.68828 35.382 3.69696C34.9519 3.70094 34.5204 3.70505 34.089 3.70933C33.7821 3.71239 34.3151 3.89994 33.7206 3.90681C30.2788 3.94632 26.9379 4.0296 23.4173 3.85899C23.0677 3.84227 23.2449 3.4997 22.2166 3.55741C22.0349 3.56802 20.4853 3.62191 20.0862 3.69785C20.0318 3.70929 20.3157 3.8674 19.8155 3.87444C16.9142 3.91242 13.8737 3.8848 10.9777 3.79221C10.509 3.77696 11.0076 3.60633 10.6741 3.59398C8.31547 3.50769 5.74386 3.63838 3.4891 3.48463C1.98127 3.38108 2.53726 3.08744 1.73671 2.79857C1.62031 2.75782 0.690592 2.75138 0.639255 2.58327C0.514447 2.16055 0.969836 1.69767 0.782879 1.24709C0.739869 1.15005 -0.503657 1.25458 0.232416 1.02005C0.282463 1.00435 1.19331 0.926508 1.41487 0.846935C1.57071 0.791922 1.28965 0.620968 1.60799 0.550541C1.93044 0.480176 2.27067 0.623469 2.80222 0.540668C3.32593 0.456825 3.09625 0.262413 4.14635 0.239116ZM291.879 4.65716C291.041 4.54596 290.957 5.15054 291.843 4.95177C291.885 4.94143 291.922 4.66247 291.879 4.65716ZM392.106 6.14931C391.045 5.7925 390.268 6.10945 391.014 6.38214C391.761 6.65379 392.429 6.25734 392.106 6.14931ZM403.399 6.57605C402.129 6.34967 401.908 7.19277 403.283 7.04347C403.363 7.03477 403.474 6.58895 403.399 6.57605ZM5.45636 2.71541C5.44372 2.70748 4.77545 2.70003 4.75807 2.7079C4.40102 2.89803 5.74199 2.91282 5.45636 2.71541ZM414.581 6.44456C414.184 6.3298 413.042 6.45725 413.534 6.60203C413.932 6.71902 415.075 6.58792 414.581 6.44456ZM248.563 4.90992C248.549 4.90819 248.072 5.0046 248.091 5.04815C248.153 5.21017 248.819 5.00224 248.563 4.90992ZM433.539 5.08933C430.754 5.56461 428.973 5.09335 431.996 4.70165C432.543 4.62671 430.857 5.11301 431.561 5.06298C432.852 4.96399 433.62 4.40976 434.91 4.30169C435.165 4.2923 433.707 5.07629 433.534 5.09126C433.536 5.09062 433.537 5.08997 433.539 5.08933ZM291.358 3.96988C291.342 3.96299 290.675 3.99681 290.658 4.00559C290.309 4.21749 291.653 4.14955 291.358 3.96988ZM220.463 4.43035C220.431 4.41375 218.871 4.40519 218.827 4.42081C218.02 4.73507 221.153 4.75347 220.463 4.43035ZM336.219 1.25656C336.394 1.21366 336.575 1.18092 336.756 1.15959C337.366 1.09235 337.957 1.13582 338.395 1.32817C337.853 1.30652 337.32 1.2916 336.754 1.27367C336.577 1.26796 336.399 1.26237 336.219 1.25656Z" fill="#FF5F40"/>
</svg>
