<svg width="424" height="12" viewBox="0 0 424 12" fill="none" xmlns="http://www.w3.org/2000/svg">
<path id="Vector 7" d="M4.11619 3.51583C6.48975 3.71021 9.56466 4.0736 11.9224 4.37237C12.6602 4.4657 12.2762 4.53606 12.7805 4.60444C13.7765 4.73862 14.711 4.77136 15.685 4.90665C16.0068 4.95186 15.5858 5.08338 15.93 5.12746C17.7994 5.36576 19.5791 5.47008 21.4762 5.64725C26.1953 6.05416 31.017 6.52732 35.4997 6.22198C40.0407 5.77497 44.5995 5.00191 49.3103 4.5083C52.4658 4.16573 56.3216 4.04461 59.5872 3.8779C59.6558 3.87423 59.7049 3.86681 59.7396 3.85699C59.8944 3.81172 59.7507 3.71503 59.8088 3.70312C60.9043 3.47408 60.5494 3.78537 61.2741 3.78304C64.1455 3.76478 67.3633 3.25245 70.1615 2.8279C71.3548 2.64538 70.1152 2.51228 71.3428 2.51894C71.4273 2.51935 71.1458 2.7131 71.4738 2.68806C72.223 2.62905 73.6299 2.43427 74.2134 2.38341C75.3364 2.2852 75.5091 2.26611 76.5704 2.16327C77.7706 2.04958 79.1614 1.98337 80.4861 1.88033C80.75 1.8597 81.031 1.83759 81.2869 1.81548C81.6201 1.78696 81.1654 1.65339 81.7017 1.59441C82.2304 1.53389 83.6426 1.48815 84.1137 1.51271C84.5916 1.53525 84.3914 1.668 84.4762 1.69424C85.1717 1.91506 86.7822 1.5453 86.989 1.53479C90.7863 1.33347 94.0324 1.54332 97.5798 1.51974C99.5251 1.50594 101.571 1.45046 103.499 1.35998C104.243 1.32478 104.972 1.28691 105.677 1.25093C108.711 1.09129 111.31 0.977543 114.285 0.82614C114.604 0.809646 114.226 0.638529 114.604 0.618755C118.684 0.408673 122.722 0.329668 126.776 0.3819C127.185 0.387431 126.66 0.562578 127.071 0.578031C127.66 0.598774 128.271 0.629796 128.973 0.655243C131.237 0.741626 133.839 0.779067 134.96 0.212153C136.653 0.222772 138.683 0.234967 140.198 0.369815C141.166 0.456727 140.223 0.643489 141.42 0.558629C141.691 0.53975 141.337 0.383949 141.744 0.367612C143.43 0.299201 145.301 0.341423 146.974 0.253598C147.315 0.235358 147.221 0.0941081 147.318 0.0682581C148.14 -0.141294 149.484 0.196329 149.784 0.220465C152.031 0.400019 153.676 0.325429 155.77 0.329815C156.256 0.330975 155.681 0.140717 156.149 0.135027C158.576 0.108145 161.091 0.128765 163.466 0.220817C163.994 0.241772 163.507 0.402199 163.76 0.420511C164.873 0.499436 165.121 0.194392 166.189 0.265074C166.414 0.279611 166.286 0.417752 166.327 0.433167C166.969 0.675133 167.529 0.339116 167.695 0.332471C169.785 0.241036 171.123 0.60319 173.14 0.568214C173.382 0.563714 172.838 0.384025 173.518 0.382151C178.048 0.368905 182.831 0.470408 187.312 0.684877C188.009 0.718071 187.509 0.841599 187.552 0.858576C188.263 1.12444 188.721 0.792341 188.955 0.783707C190.756 0.723635 192.4 1.04333 193.646 0.666456C194.547 0.703926 195.49 0.738606 196.383 0.770212C203.046 1.00997 209.713 1.12483 216.294 1.99221C216.39 2.00448 216.205 2.15697 216.394 2.18073C218.673 2.4766 218.257 2.1805 219.809 2.02033C220.205 1.98081 221.323 2.49705 221.42 2.53829C221.778 2.68614 221.363 2.88709 221.484 2.92202C222.498 3.20665 222.435 2.36535 223.834 2.55476C223.878 2.56212 223.673 2.68725 223.789 2.7183C224.141 2.81451 224.516 2.80636 224.859 2.90718C225.133 2.98722 225.339 3.09066 225.54 3.18904C225.933 3.37934 226.322 3.55484 227.159 3.51181C227.32 3.50249 227.142 3.00812 228.38 3.19343C228.874 3.26847 231.066 3.54238 231.677 3.64934C232.287 3.75694 231.847 3.8532 231.89 3.86522C233.519 4.27108 232.882 4.27401 233.674 4.67037C234.467 5.0653 234.324 4.34091 234.671 4.30526C235.019 4.26989 236.213 4.58314 236.504 4.6766C236.795 4.77014 236.412 4.8193 236.673 4.88412C238.405 5.31078 237.487 4.63393 238.08 4.59495C239.478 4.50197 240.478 5.14937 241.721 5.35604C242.058 5.41197 241.797 5.25996 242.099 5.28666C243.297 5.39433 243.994 5.64565 245.37 5.67267C245.595 5.67706 246.733 5.50928 247.413 5.8308C247.509 5.8769 247.206 5.96749 247.711 6.06356C247.914 6.1025 248.163 6.14636 248.433 6.1911C249.158 6.31182 250.047 6.42237 250.645 6.45823C251.251 6.49414 250.585 6.20479 251.336 6.35524C251.67 6.42193 251.032 6.47714 251.66 6.59194C252.284 6.7062 253.902 6.87581 254.514 6.93912C255.13 7.00253 254.809 6.80434 254.861 6.79905C255.168 6.76967 256.356 6.82405 256.456 6.83592C258.273 7.03445 260.035 7.27212 261.776 7.52428C265.024 7.97595 268.275 8.1432 271.628 8.18259C272.032 8.18665 271.768 8.00868 271.829 8.00754C273.21 7.97308 272.111 8.39762 273.07 8.57553C272.939 8.22557 273.508 8.30268 274.481 8.2938C274.949 8.28957 274.699 8.1477 274.742 8.13525C275.444 7.9532 275.923 8.23513 276.043 8.29368C276.498 8.50938 277.007 8.29844 277.316 8.44739C277.616 8.59407 276.906 8.74669 277.793 8.79846C277.803 8.79903 277.812 8.7996 277.822 8.80015C277.957 8.74665 277.857 8.62933 277.81 8.52374C277.787 8.4699 277.777 8.41908 277.819 8.38123C277.86 8.34408 277.955 8.31961 278.13 8.31758C280.826 8.32415 285.738 8.90194 287.891 8.9641C290.024 9.05573 290.72 9.04461 291.964 9.11624C294.22 9.24086 293.389 8.98401 294.799 8.89718C296.196 8.80818 295.516 9.38954 295.714 9.51977C295.916 9.64982 296.122 9.52177 296.368 9.595C296.613 9.66816 296.079 9.74755 296.659 9.78149C296.766 9.78775 296.91 9.78583 297.075 9.7777C297.762 9.74149 298.867 9.58327 299.026 9.47644C299.461 9.19909 298.758 8.89649 300.283 9.0155C300.37 9.0225 300.085 9.17537 300.42 9.1943C303.098 9.33954 305.876 9.36537 308.548 9.48488C308.915 9.50154 308.585 9.67299 308.8 9.68464C311.028 9.80595 310.233 9.51021 311.457 9.19109C311.182 9.62138 311.853 9.88848 313.545 9.89659C314.559 9.90147 314.391 9.71245 315.046 9.58149C315.242 9.54201 315.961 9.67324 316.092 9.58492C316.522 9.29618 315.85 8.97058 317.588 9.10332C317.665 9.10961 317.421 9.26771 317.685 9.27783C319.395 9.34377 319.6 9.04108 321.445 9.00615C322.893 8.97876 325.466 9.16379 327.115 9.19237C327.08 9.67756 328.638 9.56506 329.268 9.22962C330.338 9.24185 331.488 9.22079 332.527 9.26458C332.883 9.2795 332.65 9.4205 332.694 9.43557C333.382 9.67198 333.845 9.34527 334.078 9.33186C336.58 9.20065 338.618 9.43921 341.005 9.18564C341.09 9.1765 341.228 8.83886 341.866 9.0813C341.907 9.09802 341.124 9.25581 342.24 9.26128C343.374 9.2667 345.478 9.43335 347.041 9.26386C347.421 9.22312 348.365 8.94133 349.142 9.14734C349.245 9.17534 349.133 9.27309 349.282 9.3254C349.765 9.49191 350 9.14888 350.579 9.43188C350.8 9.54194 351.11 9.63996 351.49 9.70574C352.125 9.8086 352.902 9.83092 353.882 9.68766C353.934 9.68069 354.293 9.40308 354.787 9.39457C355.585 9.38149 356.71 9.4016 357.52 9.36721C357.921 9.35017 357.657 9.19298 357.727 9.18712C360.378 8.97916 362.264 9.02241 365.1 8.82397C365.613 8.78939 367.085 8.40496 368.103 8.45083C369.224 8.4928 368.199 9.49383 370.724 8.89376C371.746 8.63786 372.805 7.38996 374.722 7.45481C375.986 7.07801 377.211 6.69111 378.417 6.30579C380.526 5.7798 382.647 5.40576 384.859 4.88523C385.015 4.84847 385.468 4.4726 385.844 4.41301C386.401 4.32504 386.727 4.40998 387.128 4.35461C388.8 4.12876 390.308 3.79637 391.924 3.60226C392.54 3.52882 392.339 3.69632 393.074 3.61126C393.8 3.52811 394.27 3.28354 395.269 3.25709C395.789 3.24414 396.327 3.37977 396.941 3.44379L396.919 3.44552C397.183 3.49203 397.478 3.52481 397.782 3.52588C397.809 3.15085 398.488 3.12895 399.707 2.98854C399.944 2.96134 399.685 2.83994 399.797 2.82037C400.242 2.7382 400.664 2.83261 401.093 2.74648C401.198 2.72572 401.198 2.59798 401.282 2.5739C402.006 2.36363 403.2 2.61861 403.411 2.66325C404.199 2.83258 404.565 2.65752 405.169 2.71772C405.772 2.77809 404.873 2.89302 405.579 2.92162C407.037 2.98089 408.911 2.92059 410.389 2.89736C410.981 2.88725 410.574 2.72481 410.659 2.71941C411.879 2.65217 413.116 2.81064 413.788 2.45888C414.651 3.32118 414.523 2.36018 416.272 2.5052C416.41 2.517 416.592 2.92895 416.064 2.99913C415.538 3.06925 414.737 2.95366 414.004 3.06198C413.833 3.08734 412.844 3.49455 412.711 3.52065C411.651 3.72466 411.491 3.10755 411.433 3.07454C410.792 2.71902 409.582 3.16231 409.265 3.19787C407.809 3.36042 406.56 3.30069 405.341 3.42449C404.545 3.50486 404.477 3.91309 403.847 3.91672C401.764 3.93074 401.015 3.38454 399.07 3.94462C398.653 4.06552 399.085 4.49066 397.572 4.2033C397.534 4.19494 397.266 4.13519 396.949 4.09387L397.012 4.08893C396.612 4.06506 396.119 4.07469 395.779 4.22508C395.701 4.25962 395.718 4.3879 395.614 4.41089C394.908 4.5634 394.424 4.51709 393.654 4.66175C392.886 4.80638 391.966 4.99901 391.079 5.07595C390.543 5.12235 389.832 4.97992 389.566 4.95913C388.823 4.89464 388.098 5.2879 387.621 5.15487C387.141 5.02182 387.97 4.57015 386.77 4.62799C386.78 4.96699 386.738 5.32357 386.722 5.66894C384.159 6.08123 381.633 6.45598 379.135 7.10933C378.827 7.19111 379.188 7.2843 378.858 7.37737C378.807 7.39206 378.755 7.40649 378.705 7.42066L378.78 7.39801C377.455 7.85931 376.181 8.14502 374.731 8.56199C373.563 8.90036 372.299 9.35893 371.048 9.62283C370.217 9.38143 368.405 9.78324 367.05 9.89862C366.57 9.94114 366.603 9.83364 366.262 9.83671C364.985 9.84425 365.616 10.1198 365.273 10.2079C363.807 10.5726 363.611 9.81815 361.873 9.95938C361.773 9.96798 360.682 10.4473 360.519 10.481C359.534 10.7029 360.345 10.3483 359.728 10.3511C358.577 10.3548 357.803 10.2907 356.481 10.4569C356.083 10.5063 355.179 10.7899 354.416 10.61C354.318 10.5864 354.369 10.4496 354.29 10.4435C352.845 10.3432 352.824 10.7672 351.999 10.9242C351.848 10.9526 351.68 10.9665 351.505 10.9697C350.763 10.9834 349.85 10.7838 349.651 10.7165C348.978 10.5041 350.16 10.6176 350.196 10.5955C350.623 10.3348 349.711 10.3889 348.998 10.3741C348.881 9.95759 347.912 9.99165 348.268 10.3603C348.309 10.4006 348.849 10.3565 348.998 10.3741C348.382 10.7901 347.295 10.8525 346.099 10.4788C345.529 10.3035 346.068 10.0906 344.362 10.1792C343.584 10.2191 343.893 10.5047 343.211 10.5874C341.653 10.7763 339.625 10.5183 338.023 10.5672C337.439 10.5849 338.009 10.74 337.609 10.7576C336.553 10.8045 335.614 10.6896 334.559 10.7533C334.463 10.7593 334.698 10.9234 334.368 10.9265C331.865 10.9528 329.685 10.8512 327.072 10.8504C325.809 10.8501 323.552 10.9412 322.245 10.922C319.978 10.8901 317.191 10.6456 315.253 10.6985C313.992 10.7323 314.264 10.8978 313.724 11.0085C312.683 11.2231 310.836 10.8258 310.583 10.7642C310.575 10.7622 311.667 10.7278 311.086 10.6408C310.746 10.4631 310.595 10.7634 310.583 10.7642C310.42 10.7247 308.244 10.677 307.821 10.706C307.589 10.7219 307.717 10.8788 307.594 10.8842C304.679 11.0079 301.785 11.0269 298.83 10.9222C298.779 10.9185 298.858 10.7446 298.737 10.738C298.122 10.7027 297.552 10.7069 297.063 10.7322C296.173 10.775 295.412 10.8792 294.532 10.9455C293.128 11.0501 291.994 10.9851 291.174 10.667C290.114 10.6821 288.586 10.5088 287.713 10.3993C286.844 10.2903 286.702 10.6241 286.629 10.6285C284.2 10.7511 282.8 10.4809 280.306 10.2575C279.661 10.2 278.68 10.1345 277.715 10.0947C276.927 10.062 276.126 10.0501 275.551 10.0463C274.548 10.0411 273.939 9.94498 273.006 9.97031C272.88 9.9737 273.003 10.1285 272.965 10.1333C271.918 10.2864 272.429 9.92982 272.216 9.85794C271.442 9.59632 270.963 9.4569 269.621 9.52874C269.312 9.54522 268.393 10.0479 267.824 10.0561C267.086 10.0656 267.372 9.88698 266.598 9.89769C266.532 9.89816 266.539 10.0172 266.063 9.98763C264.619 9.89663 263.081 9.76135 261.525 9.55127C260.727 9.44219 259.929 9.33957 259.144 9.25023C258.836 9.21474 259.209 9.44727 258.762 9.39914C256.675 9.17353 254.392 8.91479 252.36 8.60672C251.861 8.53006 252.189 8.43416 252.085 8.38364C251.442 8.07738 250.45 8.31046 250.29 8.29832C249.56 8.24688 248.862 8.17752 248.178 8.08903C245.398 7.72985 242.975 7.24418 239.895 6.98188C239.687 6.96472 238.051 7.13158 237.379 6.73223C237.333 6.70547 236.669 6.29981 236.02 6.44115C235.98 6.45001 236.398 6.66839 235.635 6.55717C234.873 6.44601 233.627 6.40316 232.598 6.09086C232.272 5.99229 231.525 5.57557 230.499 5.70239C230.433 5.71226 228.824 6.08826 228.327 5.62064C228.247 5.54372 228.395 5.13854 227.18 5.19584C226.948 5.20722 227.347 5.35542 226.742 5.33397C226.3 5.31837 225.797 5.2473 225.267 5.18002C224.681 5.10543 224.071 5.03424 223.476 5.05196C223.273 5.05741 222.416 5.22982 221.786 4.93225C221.688 4.88582 221.901 4.77019 221.557 4.71171C219.908 4.43143 218.166 4.34845 216.472 4.10433C215.883 4.0196 216.199 3.81762 215.579 3.70531C214.954 3.59224 213.7 3.43943 213.026 3.49803C212.362 3.55713 213.061 3.96764 212.07 3.93096C207.784 3.77884 203.528 3.38857 199.228 3.22175C198.591 3.19743 199.121 3.34332 198.169 3.31731C197.615 3.30254 196.999 3.28964 196.317 3.27681C192.863 3.21062 188.22 3.17482 185.699 2.90614C183.278 2.64916 186.335 2.52592 184.479 2.40881C183.596 2.35317 182.622 2.76244 182.404 2.77295C180.309 2.88112 178.842 2.67826 176.953 2.71725C176.563 2.72542 176.944 2.90008 176.612 2.90517C175.47 2.92406 174.286 2.83771 173.196 2.84335C172.71 2.84633 172.799 2.97762 172.351 2.96428C171.278 2.93393 170.332 2.87291 169.287 2.74443C169.192 2.73273 169.836 2.57394 169.042 2.56334C167.758 2.54671 166.165 2.4183 164.687 2.53756C164.249 2.57349 164.231 2.87184 163.289 2.66265C163.092 2.61901 163.345 2.26114 162.247 2.56781C162.064 2.61864 160.216 3.03206 159.314 2.76165C159.075 2.69041 158.465 2.39626 157.939 2.44189C157.867 2.44919 158.153 2.60979 157.717 2.62505C156.178 2.67611 154.563 2.65922 152.984 2.71125C152.564 2.72548 153.191 2.89064 152.563 2.90659C150.824 2.95069 148.679 2.91381 146.977 2.86834C146.354 2.85124 146.784 2.71215 146.739 2.69737C146.014 2.45686 145.577 2.78722 145.335 2.80745C143.833 2.92891 142.682 2.78099 141.293 2.83073C140.908 2.84409 141.182 2.99889 141.105 3.01335C140.314 3.15506 140.901 2.8699 140.402 2.84232C139.002 2.76422 137.425 2.78961 136.021 2.82309C135.498 2.83572 136.09 3.01155 135.617 3.02087C133.439 3.06697 131.187 3.0883 129.011 3.06956C128.409 3.06487 127.85 3.05671 127.277 3.04569C126.761 3.0357 127.083 2.89014 126.976 2.86012C126.247 2.64959 125.173 2.97597 124.936 3.01012C123.816 3.16644 123.385 3.05283 122.398 3.10044C117.569 3.32049 111.691 3.52605 107.109 3.79545C105.896 3.8566 104.735 3.9007 103.601 3.92849C99.1386 4.01969 95.294 3.89254 90.7764 3.94982C90.417 3.95388 90.7803 4.13777 90.4708 4.14373C87.1616 4.20616 83.8865 4.18852 80.6814 4.4363C79.9925 4.49196 79.3153 4.55266 78.6413 4.62047C78.3116 4.6534 78.8005 4.78739 78.2757 4.84623C77.2082 4.96741 75.8536 5.0914 74.7689 5.15437C74.2437 5.18503 74.926 4.95732 74.4 4.99132C73.1517 5.07338 71.839 5.22321 70.5668 5.42183C70.0305 5.50623 70.8656 5.57601 70.167 5.67212C66.8203 6.13254 63.3947 6.71984 59.832 6.74809C58.4105 6.76354 56.9829 6.78377 55.5461 6.80642C55.2189 6.81162 54.8952 6.46478 54.1981 6.5871C54.1522 6.69256 54.1641 6.81165 54.149 6.92182C48.0714 7.39181 42.081 8.44667 35.8193 9.10626C34.8601 9.205 33.9328 9.2311 33.0191 9.2422C32.7089 9.24493 33.2411 9.43391 32.651 9.4387C29.195 9.4439 25.9215 9.29547 22.4961 8.86772C22.1598 8.8248 22.3417 8.49632 21.3475 8.47506C21.1666 8.47193 19.6535 8.40158 19.2561 8.44336C19.2024 8.45026 19.4638 8.63123 18.9798 8.59705C16.1387 8.39257 13.1877 8.08828 10.3856 7.72084C9.93133 7.66097 10.4333 7.53877 10.1094 7.49457C7.82079 7.18318 5.31281 7.05893 3.13924 6.6771C1.69324 6.42148 2.25958 6.18549 1.5094 5.81586C1.40618 5.76404 0.50268 5.66155 0.472193 5.48915C0.396459 5.05597 0.885359 4.64257 0.752671 4.1753C0.726861 4.07508 -0.508685 4.04797 0.241298 3.89237C0.29472 3.88238 1.18466 3.89897 1.40671 3.84242C1.56218 3.80358 1.31065 3.60501 1.62317 3.56731C1.93257 3.52931 2.26592 3.70865 2.78239 3.67964C3.3024 3.64983 3.08558 3.4319 4.11619 3.51583ZM283.776 9.87368C282.973 9.665 282.814 10.2546 283.705 10.162C283.749 10.1568 283.819 9.88402 283.776 9.87368ZM381.569 6.05805C380.482 6.024 379.873 6.57274 380.639 6.60168C381.402 6.63458 381.896 6.06989 381.569 6.05805ZM392.325 4.07962C391.072 4.03408 390.993 4.90091 392.279 4.55826C392.354 4.53872 392.399 4.08226 392.325 4.07962ZM5.12844 6.11007C5.11373 6.10063 4.47091 6.02678 4.45331 6.03283C4.08852 6.18631 5.38355 6.33489 5.12844 6.11007ZM403.138 3.10719C402.75 3.00248 401.642 3.16667 402.124 3.29564C402.515 3.39905 403.624 3.23699 403.138 3.10719ZM241.719 5.64999C241.707 5.63954 241.242 5.57342 241.245 5.6246C241.257 5.78955 241.911 5.82511 241.719 5.64999ZM421.66 2.73248C418.923 2.7463 417.251 2.0741 420.234 2.10272C420.774 2.10794 419.074 2.34573 419.762 2.39732C421.021 2.49122 421.849 2.03742 423.135 2.25176C423.368 2.29104 421.817 2.73324 421.655 2.73354C421.657 2.73319 421.659 2.73283 421.66 2.73248ZM283.35 9.13002C283.33 9.12137 282.684 9.0745 282.668 9.0809C282.303 9.24885 283.612 9.34426 283.35 9.13002ZM214.544 2.01644C214.507 1.99546 213.003 1.87159 212.949 1.88469C212.14 2.13802 215.19 2.38925 214.544 2.01644ZM327.141 9.20529C327.849 9.01371 328.7 8.99026 329.265 9.22938C328.56 9.21761 327.848 9.2165 327.141 9.20529Z" fill="#FF5F40"/>
</svg>
