<svg width="423" height="6" viewBox="0 0 423 6" fill="none" xmlns="http://www.w3.org/2000/svg">
<path id="Vector 8" d="M4.07763 0.00633693C6.44522 0.112867 9.53444 0.370839 11.8836 0.59246C12.6182 0.661615 12.2387 0.744418 12.7465 0.796752C13.7397 0.898768 14.6686 0.902182 15.6509 1.0085C15.9751 1.04414 15.5605 1.18831 15.9009 1.22182C17.7697 1.40417 19.5443 1.45848 21.4407 1.59088C28.0646 2.05387 34.6141 2.36282 41.2507 2.56277C43.9649 2.64473 46.7047 2.70892 49.4592 2.76275C52.586 2.82434 56.3869 3.00111 59.6194 2.94173C59.9964 2.93469 59.772 2.78675 59.8437 2.77477C60.969 2.59111 60.5957 2.88789 61.3299 2.92844C64.2468 3.0882 67.4885 3.09471 70.3001 3.02387C71.4927 2.99317 70.2905 2.7067 71.4986 2.86449C71.5824 2.87512 71.2794 3.03336 71.6079 3.0482C72.349 3.08169 73.7575 3.04436 74.336 3.05235C75.4437 3.06872 75.6345 3.06556 76.6768 3.05834C78.1153 3.04956 79.8224 3.11008 81.3619 3.0565C81.6893 3.04461 81.2552 2.88929 81.7748 2.8558C82.3007 2.82241 83.6917 2.81822 84.1547 2.84959C84.6184 2.88111 84.4262 3.00985 84.5088 3.03763C85.1998 3.27238 86.7855 2.91054 87.0028 2.89854C87.1889 2.88858 87.3713 2.87946 87.55 2.8711C91.0861 2.70983 94.1613 2.81192 97.524 2.74357C100.211 2.68851 103.081 2.58237 105.633 2.56315C108.679 2.54069 111.247 2.60845 114.22 2.57504C114.539 2.57171 114.173 2.38525 114.546 2.38093C116.986 2.35311 119.419 2.34403 121.862 2.3664C123.429 2.38124 125.041 2.4095 126.648 2.45511C127.047 2.46684 126.533 2.63404 126.932 2.65566C129.417 2.78415 133.323 3.10178 134.787 2.37745C136.472 2.40187 138.501 2.4269 139.998 2.56947C140.962 2.66124 140.024 2.84343 141.213 2.76424C141.482 2.74659 141.132 2.5892 141.536 2.57469C143.222 2.51378 145.078 2.56202 146.744 2.47771C147.085 2.46018 146.991 2.31873 147.088 2.29308C147.909 2.08526 149.242 2.42458 149.54 2.44894C151.785 2.63052 153.42 2.55539 155.499 2.55702C155.984 2.55748 155.411 2.36807 155.877 2.36168C158.295 2.33108 160.793 2.34413 163.161 2.42544C163.686 2.44399 163.203 2.60664 163.454 2.62379C164.562 2.69745 164.807 2.39112 165.871 2.45586C166.095 2.46912 165.969 2.60798 166.01 2.62316C166.65 2.86146 167.205 2.52192 167.37 2.51423C169.45 2.40933 170.784 2.76132 172.792 2.7086C173.033 2.70193 172.49 2.52715 173.167 2.51914C177.673 2.46476 182.439 2.50642 186.897 2.63973C187.588 2.66022 187.095 2.79284 187.139 2.80902C187.843 3.06184 188.311 2.72083 188.537 2.70765C190.318 2.61249 191.994 2.89488 193.195 2.48742C199.265 2.58885 205.271 2.4521 211.286 2.56377C212.807 2.59123 214.277 2.63398 215.758 2.69908C215.855 2.70283 215.683 2.87121 215.876 2.87797C218.14 2.96101 217.74 2.7024 219.229 2.37558C219.631 2.29335 220.755 2.67102 220.875 2.69839C221.257 2.79982 220.863 3.05165 220.991 3.07095C222.041 3.22202 221.843 2.39907 223.252 2.3886C223.295 2.38966 223.115 2.54274 223.231 2.55697C223.584 2.60174 223.957 2.53858 224.315 2.58798C225.116 2.70237 225.429 3.10061 226.668 2.85604C226.827 2.82419 226.579 2.35924 227.827 2.36888C228.316 2.37363 230.52 2.34049 231.141 2.36196C231.747 2.38416 231.333 2.54039 231.377 2.54634C233.035 2.72265 232.419 2.81362 233.246 3.09621C234.09 3.3768 233.837 2.67958 234.181 2.59565C234.509 2.51236 235.742 2.6546 236.037 2.70596C236.339 2.75739 235.966 2.86029 236.233 2.88755C237.993 3.0647 237.001 2.52449 237.577 2.40185C238.94 2.1111 240.018 2.60943 241.271 2.64055C241.611 2.649 241.33 2.53491 241.636 2.51918C242.105 2.49536 242.503 2.50539 242.905 2.5158C243.496 2.53197 244.097 2.54894 244.914 2.45163C245.134 2.42523 246.235 2.10327 246.948 2.32766C247.05 2.36002 246.762 2.49161 247.275 2.51699C248.036 2.5551 249.41 2.5751 250.229 2.52743C250.834 2.49214 250.139 2.28236 250.902 2.34465C251.239 2.37252 250.615 2.50062 251.249 2.54257C251.883 2.58446 253.5 2.57136 254.114 2.56434C254.729 2.55718 254.391 2.39676 254.441 2.38563C254.74 2.32179 255.919 2.23853 256.023 2.23828C260.73 2.19881 265.117 2.4033 269.647 2.33192C270.176 2.3232 270.699 2.31014 271.228 2.2918C271.63 2.27799 271.359 2.11189 271.42 2.10802C272.79 2.0108 271.716 2.48564 272.679 2.6179C272.533 2.27421 273.101 2.32602 274.066 2.26315C274.53 2.23239 274.273 2.10487 274.315 2.09004C275.001 1.86786 275.489 2.11611 275.613 2.16625C276.078 2.35026 276.567 2.10003 276.882 2.22179C277.198 2.34243 276.489 2.56188 277.415 2.52729C277.672 2.39411 276.971 2.09457 277.674 2.01706C280.319 1.72517 285.287 1.76047 287.429 1.72955C287.861 1.72173 288.233 1.71453 288.566 1.70789C289.842 1.67533 290.47 1.56995 291.465 1.51742C293.717 1.40258 292.873 1.23668 294.266 1.03442C295.665 0.846209 295.013 1.47638 295.22 1.59223C295.419 1.70956 295.637 1.56802 295.879 1.62711C296.128 1.68601 295.597 1.79598 296.181 1.79664C296.754 1.79607 298.319 1.51774 298.515 1.38035C298.944 1.08675 298.219 0.808664 299.749 0.8739C299.836 0.878007 299.557 1.04023 299.891 1.04809C300.328 1.0571 300.74 1.06483 301.186 1.07074C303.443 1.10379 305.76 1.09735 307.993 1.16672C308.362 1.17835 308.033 1.35427 308.248 1.36302C310.469 1.45593 309.668 1.17069 310.886 0.838119C310.615 1.27151 311.292 1.5303 312.973 1.52421C313.983 1.52093 313.808 1.33341 314.464 1.19776C314.659 1.15686 315.375 1.28349 315.506 1.19444C315.934 0.903325 315.255 0.580934 316.994 0.704783C317.07 0.710705 316.828 0.869964 317.091 0.878826C318.793 0.937296 318.995 0.633826 320.834 0.594895C322.275 0.564327 324.841 0.749442 326.482 0.782257C326.446 1.26721 327.996 1.15879 328.626 0.826055C329.685 0.842351 330.848 0.827247 331.87 0.877725C332.227 0.894983 331.992 1.03445 332.037 1.04981C332.724 1.29079 333.184 0.967688 333.417 0.956097C335.074 0.882072 336.527 0.972985 338.008 0.978862C338.774 0.982063 339.506 0.963354 340.318 0.892146C340.398 0.884462 340.549 0.54901 341.174 0.803271C341.218 0.820853 340.43 0.96358 341.549 0.990517C342.66 1.01719 344.777 1.23419 346.327 1.12169C346.705 1.09408 347.665 0.849049 348.421 1.08951C348.522 1.12203 348.408 1.21477 348.552 1.27358C349.02 1.4614 349.291 1.13055 349.837 1.43943C350.374 1.74262 351.498 1.99921 353.034 1.847C353.059 1.84446 353.084 1.8418 353.109 1.83902C353.158 1.83417 353.534 1.57166 354.027 1.58372C354.813 1.60348 355.927 1.67308 356.75 1.67999C357.142 1.6832 356.893 1.51293 356.961 1.51058C359.604 1.44417 361.485 1.60693 364.315 1.70906C364.834 1.72798 366.328 1.52147 367.332 1.72275C368.43 1.94509 367.283 2.7363 369.812 2.60787C369.96 2.601 370.112 2.57461 370.269 2.53626C371.223 2.30735 372.428 1.65356 373.977 2.19868C377.539 2.26094 380.824 2.72228 384.406 2.62327C384.561 2.61915 385.086 2.34167 385.457 2.35455C385.944 2.37182 386.219 2.47714 386.552 2.51935C386.608 2.5267 386.664 2.53208 386.724 2.53464C388.402 2.61004 389.936 2.51536 391.557 2.55251C392.174 2.56611 391.95 2.70453 392.69 2.72016C393.416 2.73525 393.909 2.55451 394.902 2.6522C395.649 2.72647 396.401 3.11098 397.392 3.16131C397.433 2.78765 398.115 2.79984 399.331 2.70726C399.564 2.68926 399.315 2.55791 399.426 2.54268C399.875 2.47784 400.292 2.58758 400.718 2.5164C400.822 2.49931 400.827 2.37166 400.912 2.35047C401.635 2.16555 402.823 2.45685 403.026 2.50746C403.813 2.6999 404.171 2.53483 404.777 2.61122C405.373 2.68752 404.48 2.77872 405.178 2.82586C406.629 2.92338 408.494 2.90598 409.968 2.91359C410.555 2.91584 410.155 2.74494 410.239 2.7413C411.457 2.69951 412.683 2.88169 413.36 2.54264C414.201 3.42088 414.095 2.45803 415.831 2.63439C415.968 2.64864 416.142 3.06379 415.616 3.12455C415.091 3.18524 414.292 3.05515 413.565 3.1497C413.391 3.1719 412.401 3.56017 412.267 3.58361C411.207 3.76687 411.061 3.14636 411.004 3.11225C410.368 2.74399 409.16 3.16146 408.841 3.18991C407.383 3.32043 406.148 3.23071 404.929 3.3223C404.13 3.38142 404.053 3.78748 403.427 3.77314C401.344 3.72524 400.624 3.15557 398.659 3.63688C398.235 3.73929 398.657 4.18619 397.148 3.82776C397.055 3.80523 395.94 3.47842 395.288 3.6753C395.207 3.70015 395.208 3.82959 395.102 3.83962C394.386 3.90423 393.911 3.79705 393.123 3.8388C392.344 3.8806 391.397 3.94386 390.507 3.88831C389.971 3.85518 389.277 3.60383 389.027 3.54084C388.295 3.35953 387.519 3.62439 387.067 3.40942C386.649 3.20848 387.388 2.93819 386.547 2.77428C386.481 2.76187 386.407 2.75003 386.323 2.73885C386.272 3.07405 386.162 3.41685 386.084 3.75334C383.469 3.68336 380.897 3.48636 378.273 3.36632C377.95 3.35193 378.272 3.54953 377.922 3.53843C376.451 3.49083 375.177 3.28497 373.663 3.25862C372.574 3.2402 371.387 3.35647 370.242 3.3824C370.156 3.38439 370.07 3.38581 369.984 3.38657C369.247 2.97751 367.426 3.06522 366.102 3.00906C365.638 2.9892 365.672 2.88705 365.342 2.84841C364.098 2.70609 364.677 3.05483 364.335 3.1035C362.868 3.31273 362.751 2.54191 361.021 2.54286C360.931 2.54261 359.805 2.94177 359.651 2.96588C358.668 3.12298 359.491 2.82153 358.877 2.7853C357.756 2.71898 356.978 2.61391 355.661 2.71854C355.28 2.74961 354.35 2.9936 353.606 2.78269C353.508 2.75509 353.565 2.62046 353.487 2.61114C353.311 2.59172 353.153 2.58086 353.019 2.5772C352.03 2.54941 351.906 2.88856 351.183 2.9942C350.357 3.11407 349.106 2.77331 348.855 2.6799C348.196 2.43713 349.37 2.6044 349.409 2.58436C349.843 2.34376 348.926 2.35451 348.225 2.30882C348.141 1.88755 347.159 1.88098 347.5 2.26409C347.542 2.30595 348.088 2.28489 348.225 2.30882C347.6 2.69742 346.527 2.71531 345.348 2.30433C344.801 2.11261 345.328 1.91255 343.637 1.95581C342.858 1.97628 343.166 2.26938 342.482 2.33659C341.143 2.46969 339.47 2.27103 337.997 2.23399C337.772 2.2282 337.549 2.22633 337.33 2.23031C336.742 2.241 337.307 2.40291 336.915 2.41578C335.858 2.45046 334.945 2.32658 333.881 2.38137C333.787 2.38655 334.017 2.5526 333.692 2.55298C331.198 2.55935 329.032 2.44709 326.436 2.44014C325.18 2.43671 322.934 2.52666 321.633 2.5095C319.379 2.48002 316.603 2.24701 314.677 2.31334C313.421 2.35591 313.696 2.51975 313.161 2.6346C312.12 2.85714 310.284 2.47892 310.033 2.42053C310.024 2.41851 311.112 2.37241 310.53 2.29164C310.192 2.11757 310.046 2.41969 310.033 2.42053C309.878 2.38217 307.705 2.36197 307.286 2.398C307.053 2.41742 307.184 2.57238 307.062 2.57957C305.115 2.69268 303.162 2.76502 301.218 2.80048C300.27 2.81795 299.325 2.82809 298.377 2.83281C298.327 2.83119 298.398 2.65424 298.278 2.65262C296.586 2.6282 295.528 2.88765 294.156 3.09698C292.787 3.30712 291.724 3.366 290.866 3.14995C290.238 3.23532 289.384 3.27777 288.607 3.24268C288.129 3.22111 287.686 3.19424 287.342 3.17306C286.472 3.11985 286.362 3.46481 286.286 3.47391C283.913 3.77128 282.527 3.63856 280.044 3.70709C278.865 3.74013 276.52 3.87511 275.24 3.94794C274.227 4.00722 273.616 3.9428 272.683 4.01413C272.556 4.02365 272.688 4.1723 272.649 4.17895C271.611 4.38152 272.104 4.00091 271.887 3.93914C271.184 3.7358 270.719 3.61877 269.664 3.69137C269.549 3.69939 269.426 3.70977 269.292 3.72266C268.975 3.75232 268.101 4.29434 267.532 4.33038C266.812 4.37612 267.074 4.18291 266.319 4.23509C266.255 4.23935 266.263 4.35722 265.797 4.3554C263.615 4.3485 261.236 4.2916 258.97 4.31368C258.661 4.31624 259.058 4.5014 258.612 4.50817C256.513 4.53973 254.215 4.54234 252.17 4.46477C251.668 4.44509 251.982 4.31266 251.873 4.27433C251.201 4.04242 250.252 4.38919 250.097 4.39659C247.489 4.52603 245.292 4.42385 242.928 4.42202C241.9 4.42164 240.848 4.44102 239.701 4.50688C239.495 4.519 237.909 4.91686 237.188 4.61705C237.14 4.59708 236.43 4.28973 235.808 4.52112C235.768 4.53559 236.213 4.69288 235.444 4.69024C234.678 4.68758 233.437 4.81905 232.379 4.65241C232.057 4.59982 231.254 4.29063 230.264 4.55834C230.204 4.57716 228.649 5.17313 228.114 4.77962C228.031 4.71476 228.095 4.29252 226.927 4.52017C226.699 4.56426 227.118 4.65446 226.511 4.7189C225.605 4.81789 224.38 4.71511 223.257 4.91133C223.071 4.94602 222.207 5.23864 221.555 5.02555C221.449 4.9922 221.649 4.85003 221.293 4.8366C219.617 4.77194 217.819 4.87606 216.133 4.78667C215.523 4.75532 215.82 4.5262 215.195 4.46805C214.59 4.40985 213.271 4.35675 212.638 4.46325C211.978 4.56993 212.707 4.93008 211.706 4.96293C211.57 4.96735 211.433 4.97144 211.295 4.97522C207.157 5.09257 202.986 4.90235 198.828 4.88123C198.196 4.87794 198.723 5.0067 197.786 5.01114C194.323 5.02827 188.329 5.16024 185.328 4.88875C182.919 4.67139 185.943 4.49853 184.109 4.41136C183.225 4.36978 182.26 4.79314 182.045 4.80674C179.956 4.9447 178.494 4.75981 176.611 4.81971C176.221 4.83214 176.604 5.00265 176.272 5.01133C175.136 5.04253 173.953 4.96776 172.868 4.98315C172.382 4.99045 172.472 5.12095 172.026 5.11145C170.959 5.09023 170.013 5.03655 168.972 4.91547C168.877 4.90444 169.516 4.74112 168.726 4.7361C167.448 4.72844 165.859 4.60971 164.387 4.73634C163.951 4.77443 163.935 5.07298 162.996 4.86803C162.799 4.82523 163.049 4.46643 161.956 4.7776C161.77 4.82931 159.939 5.24949 159.034 4.98141C158.796 4.91085 158.188 4.61833 157.664 4.66514C157.593 4.67259 157.878 4.83256 157.444 4.84879C155.906 4.9032 154.312 4.88831 152.726 4.94081C152.305 4.95515 152.932 5.12018 152.305 5.13624C150.589 5.18066 148.435 5.14167 146.741 5.09245C146.119 5.07399 146.549 4.93584 146.504 4.92096C145.776 4.67883 145.35 5.00794 145.11 5.02748C143.593 5.14467 142.48 4.99234 141.076 5.03573C140.693 5.04728 140.965 5.20336 140.889 5.21747C140.101 5.35534 140.687 5.07305 140.189 5.04298C138.805 4.95781 137.234 4.97351 135.819 4.99655C135.297 5.00525 135.884 5.18555 135.416 5.19126C132.664 5.2285 129.797 5.21816 127.098 5.12612C126.596 5.10845 126.911 4.96769 126.807 4.93607C126.098 4.71478 124.996 5.02308 124.763 5.0529C123.684 5.18907 123.191 5.06719 122.232 5.09388C122.112 5.09725 121.993 5.10049 121.873 5.10362C117.116 5.22418 111.354 5.17645 106.935 5.17252C101.021 5.1619 96.4444 5.13876 90.7916 5.28638C90.4306 5.29527 90.7993 5.4743 90.4861 5.48435C89.5226 5.51331 88.5646 5.53405 87.5933 5.55032C84.5833 5.60062 81.5709 5.60657 78.5391 5.67749C78.2077 5.68484 78.688 5.85646 78.1547 5.87414C77.0823 5.91143 75.6947 5.91379 74.6078 5.86558C74.072 5.84245 74.7898 5.68582 74.2497 5.6656C73.0008 5.61802 71.6538 5.61375 70.371 5.6483C69.8236 5.66335 70.6511 5.83973 69.9385 5.84519C65.0911 5.8853 60.334 5.91769 55.4362 5.65609C55.1006 5.63807 54.8083 5.26991 54.0942 5.33527C54.0398 5.43661 54.0418 5.55627 54.0176 5.66482C49.7274 5.67001 45.4626 5.5837 41.1879 5.45546C38.4258 5.37242 35.6719 5.27181 32.8955 5.16958C32.5979 5.15862 33.1052 5.37033 32.5297 5.35001C29.1834 5.23122 25.9343 5.14842 22.526 4.78758C22.1872 4.75185 22.3795 4.4198 21.3777 4.42092C21.2004 4.42172 19.6937 4.38905 19.3021 4.44193C19.2487 4.45026 19.5145 4.62424 19.03 4.60287C16.2104 4.47546 13.262 4.26388 10.4609 3.98956C10.0078 3.94491 10.502 3.80596 10.1795 3.77268C7.89595 3.53806 5.39845 3.50227 3.22356 3.20174C1.76755 2.99988 2.32905 2.74338 1.57121 2.40273C1.46406 2.35466 0.558973 2.28707 0.523459 2.11617C0.43173 1.68629 0.901535 1.2541 0.751926 0.792384C0.720431 0.69299 -0.499237 0.715349 0.234526 0.529863C0.285698 0.517591 1.17028 0.499332 1.39202 0.434547C1.54644 0.389835 1.28636 0.200932 1.5986 0.151427C1.91071 0.101972 2.23953 0.26779 2.75449 0.219514C3.26945 0.17017 3.05919 -0.0387928 4.07763 0.00633693ZM283.417 2.95434C282.605 2.82329 282.51 3.4258 283.376 3.24797C283.417 3.23867 283.459 2.9607 283.417 2.95434ZM380.93 3.02184C379.888 2.71516 379.148 3.06728 379.882 3.30519C380.619 3.54207 381.249 3.11456 380.93 3.02184ZM391.886 3.08143C390.652 2.85908 390.447 3.70476 391.775 3.54897C391.851 3.54014 391.957 3.09431 391.886 3.08143ZM5.18084 2.56218C5.17006 2.55352 4.52029 2.50252 4.50385 2.50929C4.14462 2.67578 5.44509 2.77773 5.18084 2.56218ZM402.743 2.94305C402.362 2.8271 401.249 2.95531 401.727 3.09982C402.113 3.21614 403.221 3.08739 402.743 2.94305ZM241.309 2.93197C241.296 2.9232 240.83 2.92275 240.839 2.97304C240.876 3.13463 241.522 3.07854 241.309 2.93197ZM421.192 2.95398C418.466 2.922 416.814 2.22099 419.782 2.30037C420.32 2.31471 418.623 2.52373 419.307 2.58696C420.56 2.70214 421.39 2.26218 422.668 2.49794C422.899 2.54109 421.347 2.95737 421.187 2.95496C421.189 2.95463 421.19 2.95431 421.192 2.95398ZM282.925 2.25493C282.908 2.24764 282.261 2.26627 282.246 2.27476C281.903 2.47866 283.207 2.44124 282.925 2.25493ZM214.031 2.87038C213.984 2.85379 212.495 2.84409 212.446 2.85975C211.665 3.17348 214.695 3.19397 214.031 2.87038ZM326.508 0.795235C327.211 0.605214 328.059 0.584469 328.623 0.825803C327.92 0.811324 327.21 0.808043 326.508 0.795235Z" fill="#FF5F40"/>
</svg>
