<svg width="146" height="8" viewBox="0 0 146 8" fill="none" xmlns="http://www.w3.org/2000/svg">
<path id="Vector 9" d="M1.4022 0.019719C2.19502 -0.031894 3.30523 0.0253688 4.10375 0.103691C4.36404 0.128003 4.23208 0.233715 4.4109 0.255288C4.75989 0.297362 5.08074 0.246258 5.41623 0.296405C5.52729 0.313545 5.38852 0.48104 5.50487 0.49517C6.15043 0.571438 6.78407 0.531109 7.4224 0.569763C10.6855 0.761443 13.8454 0.850065 17.1353 0.982988C18.224 1.02675 19.5296 1.20629 20.647 1.16856C20.779 1.16403 20.7044 1.01466 20.7298 1.00316C21.1306 0.827618 20.991 1.12164 21.2448 1.16807C22.2517 1.35169 23.3647 1.40114 24.3434 1.38142C24.757 1.37261 24.3536 1.06403 24.7664 1.24457C24.795 1.25681 24.6835 1.40906 24.7967 1.43024C25.0524 1.47781 25.5397 1.47007 25.7399 1.49125C26.1211 1.53256 26.1848 1.53386 26.5493 1.55244C27.0417 1.57903 27.6289 1.68594 28.1656 1.67876C28.2795 1.67674 28.1378 1.50854 28.3201 1.49087C28.5008 1.47307 28.9834 1.51315 29.1418 1.56004C29.301 1.60691 29.2251 1.72896 29.2521 1.75943C29.474 2.01623 30.0476 1.71127 30.1194 1.70726C31.4293 1.64251 32.5304 1.9072 33.7491 1.98703C34.3512 2.02626 34.9767 2.04081 35.5922 2.06518C35.9067 2.07723 36.2392 2.09167 36.5362 2.11159C37.5761 2.18127 38.4584 2.3071 39.4755 2.33108C39.5823 2.33372 39.4642 2.14048 39.5948 2.1433C40.9862 2.17326 42.3702 2.23288 43.7544 2.39339C43.8931 2.40963 43.7099 2.57097 43.8484 2.59709C44.6974 2.75375 46.0421 3.10795 46.5613 2.39619C47.1392 2.43533 47.8391 2.47678 48.3537 2.63087C48.6854 2.73004 48.3586 2.90505 48.7694 2.83489C48.862 2.81927 48.7445 2.65927 48.8833 2.64779C49.4674 2.59958 50.1044 2.66106 50.6817 2.58839C50.7997 2.57324 50.7697 2.43115 50.8035 2.40618C51.0872 2.20406 51.545 2.55252 51.6471 2.5789C52.4178 2.77576 52.981 2.71157 53.7027 2.72747C53.8698 2.73124 53.6753 2.53794 53.8361 2.53474C54.6708 2.52071 55.5326 2.5513 56.3502 2.65064C56.5312 2.67318 56.3615 2.83212 56.4477 2.85119C56.8244 2.93327 56.9222 2.62906 57.286 2.70234C57.3627 2.71741 57.3165 2.85522 57.3303 2.87073C57.5428 3.11412 57.7466 2.77946 57.803 2.77315C58.5195 2.686 58.9766 3.05022 59.6723 3.01817C59.7546 3.01399 59.5741 2.83365 59.805 2.83265C60.491 2.82982 61.1881 2.84827 61.8833 2.88983C62.7853 2.94363 63.6892 3.03336 64.5517 3.15721C64.7875 3.19109 64.6115 3.31395 64.6257 3.33096C64.8577 3.59735 65.0363 3.26641 65.1137 3.25782C65.7357 3.19954 66.2933 3.51938 66.736 3.1411C69.3327 3.45024 71.9233 3.39673 74.4798 3.88098C74.5127 3.8868 74.4451 4.05127 74.5109 4.06216C75.2916 4.19394 75.1604 3.92671 75.6912 3.63229C75.8221 3.55823 76.2082 3.96038 76.2447 3.99016C76.3725 4.09975 76.2242 4.34277 76.2677 4.36482C76.6135 4.53804 76.5861 3.71174 77.0745 3.73219C77.0898 3.73421 77.0188 3.8831 77.0594 3.89992C77.1889 3.95279 77.3088 3.89745 77.4285 3.95468C77.6996 4.08683 77.793 4.49166 78.2299 4.27575C78.2853 4.24763 78.2185 3.77708 78.6461 3.81594C78.823 3.83218 79.5729 3.85267 79.788 3.89082C80.002 3.92902 79.8487 4.07416 79.8638 4.08125C80.4411 4.30183 80.2073 4.37588 80.4838 4.68109C80.7587 4.98503 80.7051 4.28162 80.8252 4.2076C80.9457 4.13383 81.3681 4.31309 81.4625 4.37351C81.562 4.43415 81.4321 4.52549 81.5213 4.56094C82.1181 4.7929 81.7986 4.22225 82.003 4.11787C82.1497 4.04313 82.2859 4.03964 82.4171 4.07297C82.7029 4.1493 82.9622 4.42172 83.2661 4.46708C83.3841 4.48464 83.2911 4.36318 83.3973 4.35551C83.8255 4.32691 84.0452 4.49615 84.5268 4.36228C84.6031 4.3404 85.0056 4.04007 85.2344 4.27648C85.2678 4.31058 85.1661 4.43712 85.3391 4.47139C85.5966 4.52276 86.0739 4.56534 86.3631 4.53051C86.5686 4.50449 86.34 4.28422 86.5963 4.35808C86.7106 4.39104 86.4934 4.50963 86.7086 4.56115C86.9218 4.61262 87.4822 4.6233 87.6999 4.62516C87.9143 4.62687 87.8007 4.46163 87.8188 4.45124C87.9215 4.39166 88.3258 4.32497 88.3621 4.32617C90.1744 4.35733 91.8467 4.67484 93.6051 4.62975C93.7446 4.62648 93.6562 4.45339 93.6775 4.45113C94.1577 4.39188 93.7684 4.83606 94.1 4.99655C94.0618 4.64895 94.2538 4.71663 94.5854 4.68703C94.7456 4.6725 94.662 4.53616 94.677 4.5228C94.9193 4.32508 95.0791 4.59242 95.1206 4.64733C95.2739 4.84934 95.4529 4.61972 95.5582 4.7548C95.6635 4.88889 95.4085 5.07738 95.7324 5.08299C95.8265 4.96127 95.5937 4.63119 95.8414 4.58483C96.7527 4.40893 98.4629 4.70514 99.2035 4.74931C99.9441 4.79353 100.172 4.77604 100.603 4.83113C101.378 4.93059 101.105 4.68354 101.585 4.58475C102.066 4.48597 101.819 5.07208 101.885 5.20088C101.95 5.32958 102.027 5.20047 102.11 5.27233C102.192 5.34416 102.008 5.42636 102.206 5.45724C102.403 5.48809 102.954 5.27467 103.028 5.14335C103.184 4.8651 102.948 4.56378 103.47 4.67986C103.5 4.68671 103.399 4.84002 103.514 4.8584C104.421 4.99925 105.389 5.02888 106.298 5.15549C106.424 5.17316 106.307 5.34365 106.38 5.35589C107.145 5.48398 106.878 5.18598 107.308 4.87139C107.205 5.30064 107.428 5.56974 108.006 5.58529C108.355 5.5948 108.299 5.40505 108.528 5.27733C108.597 5.23883 108.842 5.37373 108.889 5.28614C109.044 4.99982 108.817 4.67041 109.416 4.81292C109.442 4.81964 109.356 4.97633 109.446 4.98793C110.027 5.06375 110.104 4.76236 110.74 4.73973C111.243 4.72206 112.117 4.92611 112.683 4.96856C112.661 5.45329 113.199 5.35396 113.425 5.02434C113.794 5.04608 114.186 5.0357 114.541 5.08963C114.663 5.10804 114.58 5.24672 114.595 5.26222C114.826 5.50535 114.993 5.1835 115.073 5.17247C115.944 5.06728 116.625 5.32864 117.457 5.10538C117.486 5.09732 117.54 4.76145 117.756 5.01215C117.77 5.02942 117.494 5.17686 117.882 5.19702C118.266 5.21713 118.987 5.4132 119.528 5.26853C119.658 5.23371 119.995 4.96726 120.253 5.18651C120.287 5.21626 120.247 5.31207 120.296 5.36691C120.455 5.54168 120.552 5.20306 120.737 5.4964C120.923 5.78974 121.318 6.01484 121.864 5.8267C121.881 5.82126 122.015 5.55408 122.186 5.56195C122.46 5.57478 122.839 5.63901 123.123 5.64322C123.258 5.64513 123.175 5.47572 123.199 5.47315C124.112 5.39839 124.762 5.56148 125.734 5.64667C125.913 5.66263 126.433 5.44485 126.777 5.63278C127.156 5.83853 126.746 6.65312 127.623 6.47528C127.977 6.4042 128.446 5.36967 129.071 5.92367C130.3 5.81509 131.439 6.11552 132.672 5.9495C132.727 5.94217 132.909 5.65446 133.039 5.66111C133.233 5.67155 133.337 5.8099 133.475 5.82172C134.056 5.87472 134.585 5.76904 135.143 5.79864C135.355 5.80958 135.278 5.94885 135.531 5.96191C135.784 5.97484 135.957 5.79292 136.298 5.8895C136.555 5.96304 136.805 6.34727 137.148 6.39847C137.168 6.02496 137.404 6.03749 137.825 5.94741C137.906 5.92992 137.822 5.79805 137.861 5.78307C138.017 5.71919 138.159 5.82996 138.308 5.75999C138.344 5.74319 138.348 5.61558 138.378 5.59465C138.632 5.41178 139.036 5.70729 139.105 5.75872C139.371 5.9541 139.5 5.79066 139.706 5.86966C139.911 5.94865 139.6 6.03578 139.841 6.08609C140.339 6.19015 140.986 6.18275 141.493 6.19897C141.695 6.20466 141.56 6.03145 141.59 6.02831C142.01 5.99365 142.43 6.18357 142.67 5.84892C142.943 6.73243 142.925 5.76897 143.522 5.9569C143.569 5.97207 143.62 6.3883 143.438 6.44552C143.255 6.50268 142.982 6.36734 142.728 6.45717C142.668 6.47824 142.319 6.86014 142.272 6.88275C141.903 7.0594 141.864 6.43819 141.846 6.40373C141.634 6.03167 141.209 6.4421 141.099 6.46881C140.593 6.59117 140.167 6.49522 139.745 6.5813C139.469 6.63687 139.434 7.04255 139.218 7.0257C138.503 6.96996 138.262 6.39809 137.575 6.87559C137.428 6.97742 137.563 7.42436 137.051 7.0646C137.019 7.04192 136.64 6.71463 136.414 6.91209C136.385 6.93699 136.383 7.0664 136.346 7.07652C136.097 7.14175 135.934 7.03527 135.663 7.0791C135.392 7.12293 135.066 7.18988 134.76 7.13967C134.575 7.10962 134.342 6.86366 134.255 6.80281C134.009 6.62765 133.734 6.90088 133.582 6.69179C133.429 6.48163 133.743 6.17368 133.334 6.03151C133.312 6.36737 133.27 6.71171 133.238 7.04929C132.337 7.01889 131.458 6.892 130.551 6.88812C130.439 6.88798 130.55 7.07108 130.43 7.07559C129.922 7.09381 129.487 6.95591 128.959 6.99628C128.55 7.02823 128.1 7.21032 127.674 7.2497C127.423 6.85963 126.792 6.97714 126.332 6.93238C126.172 6.91688 126.185 6.81436 126.071 6.77846C125.643 6.6455 125.838 6.98965 125.718 7.04068C125.207 7.25842 125.181 6.4881 124.585 6.49464C124.553 6.49472 124.156 6.89673 124.102 6.92115C123.76 7.08057 124.049 6.77722 123.838 6.74246C123.452 6.67895 123.185 6.57536 122.73 6.68597C122.598 6.71878 122.277 6.96776 122.022 6.76456C121.989 6.73796 122.01 6.60279 121.983 6.59427C121.492 6.4515 121.47 6.8772 121.186 7.01551C120.901 7.15379 120.474 6.85056 120.388 6.76394C120.162 6.53981 120.567 6.67399 120.58 6.65274C120.732 6.39982 120.415 6.4372 120.174 6.41045C120.149 5.99207 119.807 6.00989 119.923 6.38436C119.936 6.42527 120.127 6.39036 120.174 6.41045C119.953 6.81572 119.577 6.86023 119.174 6.46854C118.985 6.28496 119.171 6.07957 118.586 6.14367C118.32 6.17258 118.416 6.46234 118.182 6.53577C117.646 6.70329 116.949 6.41995 116.399 6.45041C116.199 6.46146 116.39 6.62306 116.254 6.63604C115.892 6.67098 115.575 6.54597 115.206 6.59853C115.173 6.6035 115.25 6.77004 115.137 6.76967C114.273 6.77012 113.536 6.6485 112.632 6.62579C112.196 6.61491 111.43 6.689 110.974 6.66064C110.19 6.61264 109.25 6.35199 108.576 6.39513C108.14 6.42266 108.232 6.58961 108.044 6.69774C107.681 6.90739 107.06 6.50326 106.972 6.44087C106.97 6.43881 107.347 6.40846 107.148 6.31932C107.035 6.1404 106.977 6.4402 106.972 6.44087C106.916 6.40059 106.169 6.34622 106.021 6.37437C105.941 6.38976 105.982 6.54693 105.94 6.55201C104.95 6.66928 103.938 6.68572 102.932 6.58924C102.914 6.58567 102.945 6.41163 102.903 6.40542C102.315 6.31403 101.937 6.51893 101.456 6.63453C100.969 6.74992 100.582 6.69824 100.305 6.39162C99.9387 6.42068 99.4295 6.27584 99.1234 6.18798C98.8223 6.10024 98.7725 6.43922 98.7457 6.4453C97.9158 6.64046 97.4451 6.43424 96.5867 6.38272C96.1844 6.35779 95.3715 6.38683 94.9289 6.41283C94.5797 6.43397 94.3764 6.34908 94.0553 6.39186C94.011 6.39754 94.0517 6.55005 94.0381 6.55554C93.6704 6.72736 93.8545 6.36176 93.7813 6.29375C93.517 6.04646 93.353 5.91417 92.8941 6.0154C92.7865 6.03852 92.4752 6.5636 92.2748 6.58953C92.0197 6.6224 92.1203 6.43392 91.8546 6.47322C91.8319 6.47641 91.8333 6.59435 91.671 6.58486C90.9284 6.54264 90.0914 6.45148 89.3235 6.44212C89.2181 6.44038 89.3494 6.63102 89.1948 6.63151C88.4528 6.63319 87.6812 6.60447 86.9655 6.49619C86.7928 6.46904 86.9053 6.34135 86.8688 6.30141C86.6442 6.05963 86.3139 6.39176 86.2585 6.39664C84.9415 6.52195 83.995 6.18357 82.6528 6.28695C82.6209 6.28978 82.4914 6.36137 82.3394 6.41045C82.1412 6.47045 81.9082 6.49634 81.7782 6.31855C81.7619 6.29708 81.5291 5.96756 81.311 6.17989C81.2976 6.19318 81.4399 6.36369 81.182 6.33787C80.9108 6.31162 80.4746 6.40675 80.1271 6.21218C80.0189 6.15093 79.7434 5.82007 79.3939 6.0627C79.3712 6.07975 78.824 6.63733 78.643 6.23121C78.6154 6.16442 78.6603 5.74403 78.2458 5.94419C78.1672 5.98304 78.3029 6.08262 78.0983 6.1333C77.7727 6.21099 77.3598 6.08106 76.963 6.25243C76.8918 6.28275 76.5859 6.55641 76.3681 6.32933C76.3339 6.29376 76.4076 6.15598 76.2884 6.135C75.7003 6.0336 75.0883 6.09986 74.5044 5.974C74.2932 5.92944 74.4122 5.70727 74.1968 5.63557C73.9892 5.56432 73.5392 5.48276 73.3126 5.57507C73.0829 5.66729 73.3114 6.04278 72.9628 6.05343C71.4685 6.1007 69.9961 5.796 68.5174 5.6669C68.2981 5.6478 68.4732 5.78948 68.1483 5.77056C66.9526 5.6994 64.9122 5.69604 63.8997 5.37392C63.0814 5.11372 64.1341 4.99504 63.5046 4.87539C63.207 4.81861 62.8533 5.22576 62.783 5.2361C62.4062 5.28966 62.107 5.26198 61.7951 5.22625C61.5219 5.19339 61.228 5.15348 60.9244 5.17155C60.7915 5.17921 60.9162 5.35429 60.8029 5.35894C60.4082 5.37616 60.0115 5.28855 59.6373 5.29268C59.4724 5.29503 59.4994 5.4264 59.3467 5.41243C58.9744 5.38042 58.6623 5.31819 58.3005 5.18771C58.2682 5.17583 58.4929 5.01827 58.2203 5.00621C57.7848 4.9873 57.2401 4.85544 56.7279 4.97054C56.576 5.00521 56.5672 5.30359 56.2479 5.09155C56.1805 5.04728 56.2749 4.69039 55.8899 4.99333C55.8263 5.04363 55.1871 5.45039 54.8805 5.17603C54.8003 5.10381 54.5966 4.80707 54.4142 4.85021C54.3894 4.85717 54.4855 5.0191 54.3347 5.03229C53.8056 5.07607 53.2504 5.05027 52.7072 5.0921C52.5615 5.10358 52.7756 5.27284 52.5585 5.28465C51.9633 5.3174 51.2213 5.2638 50.6388 5.20277C50.4246 5.17997 50.575 5.04484 50.5596 5.02964C50.3128 4.78246 50.159 5.10847 50.0753 5.1263C49.5538 5.23274 49.1626 5.07214 48.6832 5.10501C48.551 5.11366 48.642 5.27178 48.6155 5.2853C48.3407 5.41714 48.5484 5.13938 48.3764 5.10548C47.8948 5.00957 47.3555 5.01271 46.8663 5.02368C46.6864 5.02792 46.8851 5.2132 46.7236 5.21491C45.7696 5.22844 44.7758 5.19069 43.8453 5.06865C43.6702 5.04533 43.784 4.90817 43.7482 4.87538C43.5026 4.64612 43.1244 4.94152 43.0383 4.96834C42.6478 5.09094 42.5025 4.96338 42.1582 4.97697C40.4897 5.04646 38.4146 4.8911 36.836 4.75509C36.3371 4.71298 35.8689 4.66575 35.4228 4.61602C33.9989 4.45741 32.7385 4.30143 31.2595 4.23485C31.136 4.22914 31.2487 4.42254 31.1422 4.42002C29.7688 4.37911 28.4279 4.22928 27.0541 4.21595C26.9409 4.21451 27.0954 4.39855 26.9132 4.40219C26.5456 4.4112 26.0692 4.3797 25.7038 4.30751C25.5228 4.2725 25.7739 4.13194 25.5913 4.09981C25.1594 4.02442 24.71 3.99366 24.2638 4.00504C24.0784 4.01046 24.3508 4.20118 24.11 4.19421C22.4551 4.15032 20.8195 4.13541 19.15 3.86518C19.0357 3.84664 18.9433 3.47802 18.6935 3.5431C18.6727 3.6444 18.6712 3.76405 18.6608 3.87257C16.2473 3.88121 13.8366 3.72387 11.4125 3.68334C11.3099 3.68168 11.4857 3.87737 11.2869 3.87515C10.126 3.86254 9.02103 3.90918 7.84347 3.71025C7.72495 3.69079 7.78853 3.34943 7.43641 3.39944C7.37814 3.40857 6.86821 3.45188 6.73336 3.52552C6.71516 3.53663 6.80881 3.69647 6.64228 3.70044C5.65329 3.72067 4.66284 3.68142 3.68015 3.58204C3.52658 3.56571 3.69056 3.39622 3.58107 3.38312C2.80746 3.29147 1.91696 3.41951 1.18113 3.26493C0.676222 3.16086 0.863013 2.86743 0.592482 2.5784C0.554415 2.53762 0.236428 2.5311 0.21963 2.36299C0.177293 1.94027 0.331954 1.47741 0.268584 1.02682C0.255661 0.929761 -0.174045 1.03428 0.0803966 0.799758C0.0984245 0.784057 0.408616 0.706253 0.484247 0.626717C0.537113 0.571723 0.441937 0.400734 0.549747 0.330347C0.657452 0.260028 0.775525 0.403376 0.952442 0.320728C1.12884 0.237064 1.05234 0.0425138 1.4022 0.019719ZM97.7801 5.79567C97.5082 5.62565 97.4512 6.22262 97.7548 6.08689C97.7694 6.07961 97.7941 5.80403 97.7801 5.79567ZM131.471 6.44095C131.111 6.16963 130.854 6.55234 131.107 6.76138C131.36 6.9702 131.58 6.52321 131.471 6.44095ZM135.248 6.32605C134.827 6.10932 134.742 6.95603 135.202 6.79394C135.228 6.7848 135.273 6.33863 135.248 6.32605ZM1.83254 2.49687C1.82893 2.48892 1.60776 2.48098 1.6023 2.48886C1.48435 2.67874 1.9267 2.69447 1.83254 2.49687ZM138.999 6.19316C138.869 6.07573 138.484 6.20033 138.646 6.34637C138.776 6.46385 139.161 6.33924 138.999 6.19316ZM83.2685 4.7593C83.2642 4.75024 83.1018 4.73697 83.1036 4.78743C83.1091 4.94999 83.3374 4.91153 83.2685 4.7593ZM145.365 6.31343C144.425 6.2623 143.869 5.55012 144.891 5.65007C145.077 5.66816 144.487 5.86531 144.722 5.93329C145.152 6.05717 145.448 5.62317 145.884 5.86788C145.963 5.91265 145.418 6.3179 145.363 6.31437C145.364 6.31406 145.364 6.31375 145.365 6.31343ZM97.6386 5.07349C97.6331 5.06545 97.4072 5.05241 97.4017 5.06011C97.2746 5.24697 97.7296 5.27334 97.6386 5.07349ZM73.8771 4.01482C73.8627 3.99731 73.3478 3.95503 73.3332 3.96972C73.0479 4.26599 74.0882 4.35242 73.8771 4.01482ZM112.692 4.9817C112.94 4.79604 113.234 4.77995 113.424 5.02407C113.181 5.00602 112.936 4.99879 112.692 4.9817Z" fill="#FF5F40"/>
</svg>
