<svg width="423" height="4" viewBox="0 0 423 4" fill="none" xmlns="http://www.w3.org/2000/svg">
<path id="Vector 12" d="M4.04813 0.0844444C6.41468 0.217017 9.50784 0.447331 11.8614 0.630917C12.5973 0.688275 12.2208 0.718151 12.7297 0.759958C13.7249 0.841452 14.6531 0.870867 15.6378 0.952735C15.9628 0.980006 15.5527 1.04033 15.8938 1.06698C17.7663 1.21238 19.5414 1.28813 21.4405 1.40281C28.0741 1.80376 34.6313 2.07894 41.2743 2.25087C43.9912 2.32135 46.7331 2.37501 49.4893 2.41773C52.6182 2.46681 56.4211 2.56738 59.6547 2.54133C60.0318 2.53826 59.8072 2.46402 59.8789 2.45812C61.0045 2.36744 60.6313 2.51544 61.3658 2.53622C64.284 2.61793 67.5263 2.61765 70.3389 2.57525C71.5319 2.55686 70.3301 2.41678 71.5382 2.49241C71.622 2.49749 71.3185 2.57746 71.647 2.58396C72.3882 2.59867 73.7971 2.57533 74.3758 2.57712C75.4836 2.58114 75.6745 2.57876 76.7171 2.57064C78.1559 2.55996 79.863 2.58157 81.4031 2.54573C81.7307 2.53785 81.2973 2.46275 81.8173 2.44292C82.3436 2.42316 83.735 2.41216 84.1979 2.42461C84.6614 2.43721 84.4683 2.50289 84.5507 2.51622C85.2402 2.62898 86.8288 2.43609 87.0462 2.42827C87.2325 2.42182 87.415 2.4158 87.5938 2.41018C91.1323 2.30145 94.2076 2.31654 97.5688 2.24849C100.254 2.19386 103.123 2.11952 105.675 2.09595C108.719 2.06801 111.286 2.09229 114.259 2.06636C114.578 2.06373 114.213 1.9716 114.585 1.96832C117.025 1.94713 119.458 1.93693 121.901 1.94336C123.468 1.94774 125.079 1.95915 126.686 1.97951C127.085 1.98478 126.571 2.06915 126.97 2.07936C129.454 2.13978 133.36 2.29391 134.825 1.93018C136.51 1.94052 138.539 1.951 140.035 2.02088C140.999 2.06586 140.061 2.15783 141.25 2.11714C141.519 2.10807 141.169 2.02969 141.573 2.02207C143.259 1.99009 145.115 2.01264 146.781 1.96916C147.122 1.96012 147.029 1.88947 147.125 1.87656C147.946 1.772 149.279 1.94064 149.577 1.95259C151.822 2.04169 153.457 2.00296 155.537 2.00233C156.021 2.00222 155.448 1.90791 155.914 1.90439C158.332 1.88743 160.83 1.8923 163.198 1.93142C163.723 1.94035 163.24 2.02199 163.491 2.0304C164.599 2.06651 164.844 1.91319 165.908 1.94487C166.132 1.95135 166.006 2.02087 166.047 2.02843C166.687 2.14716 167.242 1.97704 167.407 1.97308C169.487 1.91929 170.82 2.09442 172.829 2.06674C173.07 2.06325 172.527 1.97622 173.204 1.97177C177.71 1.94161 182.477 1.95917 186.934 2.02229C187.625 2.03199 187.132 2.09869 187.176 2.10675C187.879 2.2326 188.348 2.06171 188.574 2.05493C190.355 2.0059 192.031 2.14562 193.232 1.94078C199.303 1.98585 205.309 1.91101 211.324 1.956C212.845 1.96696 214.314 1.98531 215.796 2.01438C215.893 2.01602 215.72 2.10063 215.913 2.10355C218.177 2.13954 217.778 2.01115 219.268 1.84359C219.67 1.80135 220.793 1.98674 220.912 2.00002C221.294 2.04951 220.9 2.17669 221.027 2.18593C222.077 2.25803 221.882 1.84729 223.291 1.83695C223.335 1.83732 223.154 1.91453 223.27 1.92122C223.622 1.9423 223.996 1.90929 224.353 1.93257C225.155 1.98652 225.466 2.18447 226.705 2.05647C226.865 2.03975 226.619 1.80862 227.867 1.80721C228.356 1.80736 230.561 1.77822 231.182 1.78454C231.788 1.7916 231.373 1.87249 231.416 1.87517C233.074 1.95184 232.457 2.00152 233.282 2.13662C234.123 2.27027 233.876 1.92352 234.221 1.8787C234.55 1.83441 235.782 1.89445 236.075 1.91723C236.377 1.94008 236.003 1.99511 236.27 2.00619C238.028 2.07765 237.042 1.81708 237.618 1.75006C238.985 1.59101 240.057 1.82946 241.309 1.83511C241.649 1.83668 241.369 1.78179 241.675 1.77159C242.144 1.75616 242.542 1.7585 242.943 1.76122C243.535 1.76567 244.135 1.77088 244.952 1.71846C245.173 1.70418 246.274 1.5385 246.987 1.64821C247.088 1.66403 246.8 1.73084 247.313 1.74172C248.073 1.75805 249.447 1.76389 250.267 1.73787C250.871 1.7186 250.177 1.61556 250.94 1.64469C251.277 1.65775 250.652 1.72341 251.286 1.74276C251.92 1.76205 253.537 1.7517 254.151 1.74683C254.766 1.74187 254.429 1.66242 254.478 1.65674C254.778 1.62414 255.957 1.57993 256.061 1.57958C260.768 1.54897 265.154 1.64472 269.686 1.58324C270.215 1.57566 270.738 1.56532 271.267 1.55165C271.669 1.54127 271.4 1.46054 271.461 1.45807C272.833 1.3966 271.754 1.64449 272.716 1.70078C272.573 1.53031 273.14 1.55075 274.106 1.50687C274.571 1.48539 274.316 1.42494 274.358 1.41698C275.047 1.29664 275.532 1.41332 275.655 1.43655C276.118 1.52156 276.611 1.38829 276.923 1.44388C277.237 1.49885 276.525 1.62095 277.451 1.58761C277.71 1.5164 277.014 1.37885 277.718 1.32758C280.369 1.1349 285.331 1.0432 287.471 0.999111C287.902 0.988624 288.275 0.979771 288.607 0.971999C289.895 0.934511 290.525 0.83228 291.516 0.762218C293.76 0.607363 292.927 0.561199 294.32 0.414157C295.718 0.281136 295.053 0.615695 295.256 0.668053C295.451 0.721876 295.673 0.645706 295.913 0.669883C296.161 0.693869 295.628 0.760655 296.211 0.748183C296.785 0.73448 298.355 0.569157 298.552 0.498256C298.985 0.345496 298.265 0.215218 299.792 0.228556C299.879 0.229582 299.599 0.314025 299.932 0.314028C300.368 0.313461 300.779 0.313038 301.225 0.31182C303.481 0.307423 305.798 0.291245 308.03 0.316124C308.399 0.320355 308.07 0.409731 308.285 0.413186C310.505 0.450738 309.705 0.311429 310.924 0.140966C310.651 0.358622 311.328 0.485428 313.008 0.478063C314.019 0.473945 313.845 0.380646 314.501 0.311399C314.695 0.290526 315.412 0.35246 315.542 0.307713C315.972 0.161449 315.293 0.00120565 317.031 0.0604899C317.107 0.0633433 316.865 0.143314 317.128 0.147376C318.829 0.174416 319.032 0.022454 320.871 0.0018715C322.312 -0.0142992 324.877 0.0784281 326.518 0.0962164C326.483 0.338618 328.032 0.285739 328.663 0.120239C329.721 0.129688 330.884 0.124037 331.905 0.1514C332.263 0.160777 332.028 0.230018 332.073 0.237794C332.761 0.359739 333.22 0.19934 333.453 0.194128C335.109 0.161321 336.563 0.211552 338.043 0.22093C338.809 0.225896 339.541 0.220184 340.352 0.189368C340.432 0.186024 340.581 0.0190409 341.208 0.150289C341.251 0.159392 340.464 0.225473 341.583 0.246478C342.694 0.267201 344.812 0.393897 346.359 0.359428C346.737 0.350604 347.692 0.242244 348.451 0.375885C348.552 0.393902 348.44 0.438352 348.585 0.470291C349.055 0.572481 349.32 0.41182 349.872 0.576115C350.414 0.737112 351.54 0.886542 353.072 0.825801C353.097 0.824777 353.122 0.823697 353.148 0.822561C353.196 0.820609 353.57 0.693044 354.063 0.702971C354.849 0.719218 355.964 0.760698 356.786 0.768484C357.179 0.772169 356.929 0.685699 356.997 0.684887C359.64 0.665439 361.521 0.753484 364.351 0.82319C364.87 0.836 366.363 0.743757 367.367 0.854693C368.468 0.978148 367.328 1.35795 369.86 1.32763C370.008 1.32638 370.16 1.31552 370.316 1.29885C371.268 1.19966 372.457 0.895476 374.018 1.20916C377.577 1.33841 380.866 1.66134 384.444 1.65796C384.599 1.65807 385.12 1.52623 385.492 1.53714C385.979 1.55166 386.255 1.60734 386.588 1.632C386.644 1.63627 386.701 1.63955 386.76 1.64145C388.438 1.69634 389.972 1.65991 391.593 1.688C392.21 1.69831 391.987 1.76632 392.727 1.77802C393.453 1.78924 393.945 1.70121 394.939 1.75412C395.686 1.79426 396.439 1.98928 397.43 2.01751C397.47 1.83078 398.152 1.83912 399.368 1.79587C399.601 1.78746 399.351 1.72116 399.462 1.71382C399.911 1.68251 400.328 1.73833 400.754 1.70365C400.858 1.69533 400.863 1.63151 400.948 1.6211C401.671 1.53019 402.859 1.67789 403.062 1.7035C403.85 1.80099 404.208 1.71894 404.813 1.75794C405.41 1.79686 404.517 1.84132 405.214 1.86577C406.666 1.91636 408.53 1.90927 410.005 1.91395C410.592 1.91542 410.191 1.82974 410.275 1.82797C411.493 1.80779 412.72 1.89933 413.396 1.73001C414.238 2.16937 414.131 1.68797 415.867 1.77647C416.005 1.78362 416.179 1.99123 415.653 2.02151C415.128 2.05177 414.328 1.98655 413.601 2.0336C413.428 2.04467 412.438 2.23845 412.304 2.25011C411.244 2.3413 411.097 2.03093 411.041 2.01386C410.404 1.82942 409.197 2.03738 408.878 2.05136C407.42 2.11554 406.185 2.06944 404.966 2.11368C404.168 2.14219 404.091 2.3451 403.465 2.33698C401.382 2.30964 400.661 2.02337 398.698 2.25896C398.275 2.30895 398.698 2.53382 397.188 2.34999C397.096 2.33846 395.979 2.17137 395.329 2.26723C395.248 2.27934 395.25 2.34407 395.143 2.34866C394.427 2.37812 393.953 2.32249 393.165 2.33956C392.387 2.35668 391.442 2.38314 390.551 2.34954C390.016 2.32954 389.321 2.19876 389.071 2.16529C388.338 2.069 387.565 2.19448 387.112 2.08247C386.692 1.97777 387.428 1.8501 386.585 1.75947C386.52 1.75257 386.446 1.74586 386.362 1.73935C386.314 1.90647 386.208 2.07676 386.134 2.24421C383.524 2.18024 380.956 2.0378 378.337 1.91061C378.015 1.89516 378.341 2.00246 377.992 1.9879C376.525 1.92612 375.247 1.78462 373.732 1.73244C372.64 1.69514 371.452 1.72728 370.303 1.72192C370.217 1.72153 370.13 1.72089 370.044 1.71994C369.298 1.50306 367.475 1.52542 366.149 1.4868C365.685 1.47301 365.717 1.42224 365.386 1.40035C364.141 1.32 364.723 1.49876 364.381 1.52067C362.913 1.61571 362.792 1.22966 361.062 1.2211C360.971 1.22048 359.847 1.41453 359.694 1.42586C358.712 1.49968 359.532 1.35291 358.919 1.33183C357.798 1.2932 357.019 1.23711 355.704 1.28169C355.323 1.29497 354.396 1.41113 353.652 1.29913C353.555 1.28448 353.61 1.21764 353.532 1.21229C353.356 1.20101 353.199 1.19408 353.065 1.1909C352.078 1.16658 351.959 1.33413 351.241 1.3766C350.421 1.42449 349.166 1.23074 348.913 1.17966C348.249 1.04645 349.426 1.151 349.464 1.1417C349.894 1.02906 348.978 1.0178 348.276 0.982887C348.185 0.770373 347.202 0.751246 347.55 0.948501C347.592 0.970053 348.138 0.968494 348.276 0.982887C347.657 1.16665 346.581 1.15818 345.395 0.938613C344.846 0.83661 345.371 0.741182 343.679 0.746142C342.9 0.749319 343.211 0.898628 342.526 0.926612C341.187 0.982395 339.512 0.873379 338.037 0.848492C337.813 0.844614 337.59 0.842745 337.37 0.843849C336.782 0.846866 337.348 0.93005 336.956 0.934961C335.898 0.948271 334.985 0.883454 333.921 0.90799C333.826 0.91033 334.058 0.993962 333.732 0.993297C331.237 0.990089 329.07 0.930607 326.473 0.925128C325.217 0.922361 322.971 0.966862 321.669 0.958839C319.414 0.944709 316.638 0.831544 314.712 0.86876C313.455 0.892694 313.73 0.974107 313.194 1.0328C312.152 1.14648 310.317 0.963261 310.066 0.93507C310.056 0.934048 311.145 0.907374 310.564 0.868917C310.225 0.78301 310.078 0.934607 310.066 0.93507C309.911 0.91621 307.737 0.914733 307.317 0.93501C307.084 0.945821 307.215 1.02269 307.093 1.02687C305.144 1.09286 303.189 1.14084 301.242 1.17669C300.29 1.19435 299.344 1.21047 298.393 1.22716C298.342 1.22713 298.416 1.13749 298.297 1.1385C296.6 1.15307 295.535 1.30583 294.147 1.45249C292.764 1.59991 291.683 1.68179 290.841 1.61488C290.21 1.6891 289.382 1.74869 288.628 1.7394C288.149 1.73502 287.706 1.72814 287.362 1.72288C286.492 1.70992 286.376 1.88493 286.3 1.89068C283.918 2.08068 282.535 2.04529 280.054 2.12888C278.876 2.16938 276.534 2.27958 275.256 2.33374C274.245 2.37798 273.636 2.35336 272.705 2.39918C272.578 2.40529 272.708 2.47825 272.669 2.48199C271.632 2.59393 272.127 2.3984 271.911 2.36967C271.212 2.27443 270.748 2.22006 269.694 2.26296C269.579 2.26767 269.456 2.27359 269.322 2.2808C269.006 2.2975 268.13 2.57302 267.562 2.59348C266.842 2.61943 267.105 2.52175 266.349 2.55078C266.286 2.55315 266.293 2.61209 265.828 2.61287C263.647 2.61725 261.269 2.59463 259.003 2.61081C258.694 2.61278 259.091 2.70447 258.644 2.70886C256.546 2.72934 254.247 2.73541 252.203 2.70159C251.701 2.69298 252.015 2.626 251.906 2.6071C251.234 2.49278 250.284 2.6687 250.129 2.67284C247.52 2.74493 245.323 2.70095 242.955 2.71433C241.925 2.72051 240.871 2.73846 239.722 2.78217C239.516 2.78998 237.925 3.00474 237.207 2.86196C237.16 2.85245 236.454 2.70576 235.83 2.82729C235.79 2.83488 236.233 2.90946 235.465 2.91524C234.7 2.92098 233.459 2.99717 232.404 2.92142C232.083 2.89745 231.282 2.74855 230.291 2.88847C230.231 2.89837 228.674 3.2054 228.142 3.01123C228.059 2.97919 228.126 2.76791 226.957 2.88738C226.728 2.91051 227.147 2.95366 226.54 2.98871C225.634 3.04241 224.41 2.99612 223.286 3.09837C223.1 3.11641 222.236 3.26585 221.585 3.16144C221.48 3.14511 221.68 3.07336 221.324 3.06782C219.648 3.04096 217.851 3.09797 216.165 3.05731C215.556 3.04308 215.854 2.92783 215.229 2.90019C214.624 2.87249 213.305 2.84872 212.672 2.9032C212.012 2.95782 212.741 3.13651 211.739 3.15482C211.603 3.15729 211.466 3.15959 211.329 3.16173C207.191 3.22792 203.02 3.13812 198.863 3.13209C198.231 3.13112 198.757 3.19494 197.821 3.19815C194.358 3.21045 188.364 3.28153 185.363 3.14803C182.955 3.04118 185.978 2.95246 184.145 2.91026C183.261 2.89013 182.296 3.10252 182.08 3.10947C179.992 3.17997 178.529 3.08853 176.646 3.11976C176.256 3.12624 176.639 3.21123 176.307 3.2158C175.172 3.23216 173.989 3.19557 172.904 3.20397C172.417 3.20794 172.508 3.27313 172.062 3.26868C170.995 3.25876 170.048 3.23254 169.007 3.17267C168.912 3.16722 169.552 3.08515 168.762 3.08315C167.483 3.08014 165.894 3.0218 164.423 3.08607C163.986 3.1054 163.97 3.25468 163.031 3.15282C162.834 3.13155 163.085 2.95198 161.991 3.10828C161.806 3.13426 159.975 3.34555 159.069 3.21212C158.831 3.177 158.224 3.03115 157.7 3.05491C157.629 3.05868 157.913 3.13847 157.479 3.14688C155.941 3.17513 154.347 3.16879 152.761 3.19618C152.34 3.20366 152.967 3.28572 152.34 3.2942C150.624 3.31765 148.47 3.29978 146.776 3.27653C146.154 3.2678 146.584 3.19838 146.539 3.19098C145.811 3.0705 145.385 3.23541 145.145 3.24538C143.628 3.30523 142.515 3.23004 141.111 3.25301C140.728 3.25914 141 3.33693 140.924 3.34405C140.135 3.41372 140.722 3.27203 140.224 3.25746C138.84 3.21617 137.269 3.22558 135.854 3.23861C135.332 3.24352 135.919 3.33304 135.45 3.3364C132.698 3.358 129.832 3.35635 127.132 3.31435C126.63 3.30627 126.945 3.23542 126.841 3.21977C126.133 3.11017 125.03 3.26611 124.797 3.28142C123.717 3.35131 123.225 3.29126 122.265 3.30641C122.146 3.30832 122.026 3.31018 121.906 3.31197C117.148 3.38133 111.384 3.37313 106.963 3.39388C101.046 3.41583 96.4606 3.45938 90.8132 3.58963C90.4524 3.59749 90.819 3.68355 90.5061 3.69153C89.5432 3.71507 88.586 3.73381 87.6155 3.74979C84.6077 3.79918 81.5971 3.8211 78.5667 3.87163C78.2356 3.87693 78.7147 3.9604 78.1817 3.97184C77.1097 3.99571 75.7231 4.00286 74.637 3.9828C74.1017 3.97322 74.8196 3.89225 74.2799 3.88413C73.0319 3.8649 71.6856 3.86691 70.4034 3.88732C69.8562 3.89617 70.6828 3.98238 69.9707 3.9868C65.126 4.01795 60.3725 4.03481 55.4778 3.88999C55.1423 3.87999 54.8491 3.69508 54.1357 3.7253C54.0816 3.77578 54.0841 3.83562 54.0603 3.88982C49.7735 3.87722 45.5125 3.80747 41.2429 3.69722C38.484 3.62578 35.7331 3.53736 32.96 3.4391C32.6628 3.42854 33.1727 3.54319 32.5979 3.52317C29.2561 3.40596 26.0131 3.2965 22.6042 3.03225C22.2653 3.00597 22.449 2.84452 21.4494 2.81988C21.2725 2.81598 19.7683 2.76063 19.3792 2.77651C19.3261 2.77926 19.5958 2.8736 19.112 2.84994C16.2961 2.71061 13.3495 2.51737 10.5471 2.29178C10.0938 2.25515 10.5823 2.20092 10.2597 2.17408C7.97446 1.98452 5.48213 1.88438 3.30249 1.6608C1.84323 1.51074 2.39477 1.40067 1.62727 1.20416C1.51875 1.17643 0.613469 1.11207 0.572289 1.02503C0.466312 0.806031 0.920525 0.604746 0.755731 0.367812C0.720958 0.316832 -0.495195 0.287044 0.230667 0.218556C0.281306 0.214115 1.16329 0.234688 1.38238 0.209594C1.53496 0.192325 1.26909 0.0887078 1.579 0.074332C1.88878 0.0599746 2.22246 0.154301 2.73474 0.147303C3.24699 0.139748 3.03013 0.0278077 4.04813 0.0844444ZM283.439 1.68399C282.63 1.63455 282.524 1.93821 283.392 1.83186C283.434 1.82637 283.481 1.68635 283.439 1.68399ZM380.979 1.79871C379.932 1.62387 379.203 1.78226 379.94 1.91834C380.68 2.05347 381.3 1.85145 380.979 1.79871ZM391.925 1.95437C390.69 1.83603 390.491 2.25761 391.817 2.18754C391.892 2.18356 391.996 1.96121 391.925 1.95437ZM5.23387 1.40464C5.22283 1.39995 4.57286 1.35281 4.55669 1.35566C4.20383 1.42737 5.50463 1.52165 5.23387 1.40464ZM402.78 1.92083C402.399 1.86225 401.286 1.92423 401.764 1.9974C402.15 2.05633 403.258 1.9938 402.78 1.92083ZM241.345 1.98055C241.332 1.97624 240.866 1.9798 240.875 2.0049C240.91 2.08536 241.556 2.05216 241.345 1.98055ZM421.228 1.93664C418.502 1.92062 416.85 1.56997 419.818 1.60981C420.356 1.617 418.66 1.72145 419.344 1.75309C420.597 1.81073 421.426 1.59075 422.705 1.70862C422.936 1.7302 421.384 1.93834 421.224 1.93713C421.225 1.93697 421.227 1.93681 421.228 1.93664ZM282.961 1.34355C282.945 1.34021 282.298 1.36259 282.282 1.36716C281.936 1.47618 283.239 1.43116 282.961 1.34355ZM214.068 2.1039C214.021 2.09573 212.533 2.09391 212.483 2.10181C211.702 2.26026 214.731 2.26436 214.068 2.1039ZM326.544 0.102725C327.247 0.00822848 328.095 -0.00127068 328.659 0.120108C327.956 0.111998 327.246 0.109655 326.544 0.102725Z" fill="#A78BFA"/>
</svg>
