<svg width="424" height="10" viewBox="0 0 424 10" fill="none" xmlns="http://www.w3.org/2000/svg">
<path id="Vector 11" d="M4.07186 3.97435C6.44489 4.19487 9.5262 4.5309 11.8908 4.79191C12.6307 4.87354 12.2512 4.89107 12.7571 4.94898C13.7563 5.06277 14.6898 5.12152 15.6676 5.23249C15.9907 5.26938 15.5763 5.31721 15.9217 5.35448C17.7969 5.55605 19.5777 5.68191 21.4804 5.8416C26.2244 6.20326 31.013 6.65346 35.6261 6.31579C40.1889 5.84288 44.7458 5.05264 49.4318 4.54319C52.5711 4.18986 56.405 3.99384 59.6617 3.86072C59.7301 3.85775 59.7792 3.85326 59.8139 3.84779C59.971 3.82255 59.8275 3.77656 59.8864 3.76962C60.9996 3.63294 60.634 3.79574 61.3648 3.77325C64.2642 3.67465 67.4845 3.15396 70.2804 2.75871C71.4727 2.58873 70.2549 2.60041 71.4687 2.52601C71.5523 2.52094 71.2615 2.63696 71.5878 2.60374C72.3329 2.52633 73.7378 2.34587 74.3191 2.28901C75.4379 2.17885 75.6102 2.16058 76.6689 2.05711C77.866 1.94212 79.2515 1.84912 80.5739 1.74733C80.8358 1.72707 81.1152 1.70646 81.3698 1.68742C81.7012 1.66304 81.2542 1.60938 81.7878 1.56424C82.3134 1.51756 83.7184 1.46531 84.1874 1.471C84.663 1.47468 84.4616 1.54438 84.5457 1.55617C85.2359 1.65511 86.8478 1.45432 87.0539 1.448C90.8451 1.31796 94.0899 1.43152 97.6402 1.40822C99.5873 1.39468 101.636 1.35595 103.574 1.27269C104.321 1.2403 105.052 1.20388 105.759 1.1666C108.802 1.00089 111.39 0.844252 114.362 0.700497C114.68 0.684722 114.308 0.607802 114.685 0.5891C118.757 0.390333 122.791 0.301111 126.841 0.28972C127.25 0.288787 126.724 0.38112 127.134 0.385162C127.723 0.390285 128.334 0.400656 129.035 0.407916C131.297 0.433277 133.899 0.437455 135.022 0.148341C136.715 0.144885 138.745 0.142537 140.258 0.2047C141.226 0.244831 140.283 0.341368 141.479 0.295008C141.751 0.284706 141.397 0.20792 141.804 0.198471C143.489 0.158989 145.361 0.175528 147.033 0.128529C147.374 0.118778 147.281 0.0483295 147.378 0.0352291C148.199 -0.0710698 149.543 0.0958709 149.842 0.107604C152.09 0.194672 153.734 0.156478 155.828 0.158606C156.314 0.159202 155.739 0.0640458 156.207 0.0612295C158.633 0.0479781 161.148 0.0604233 163.522 0.110275C164.05 0.121614 163.564 0.201032 163.817 0.210604C164.93 0.251978 165.177 0.0999402 166.245 0.137562C166.47 0.145326 166.343 0.214118 166.384 0.221915C167.026 0.344322 167.585 0.177712 167.751 0.174807C169.841 0.134475 171.179 0.319775 173.196 0.309839C173.437 0.308514 172.893 0.216571 173.573 0.218255C178.102 0.229226 182.883 0.30661 187.365 0.450884C188.062 0.473283 187.563 0.530904 187.607 0.539755C188.32 0.678666 188.774 0.516664 189.008 0.514435C190.807 0.500462 192.455 0.677514 193.696 0.503209C194.596 0.532189 195.539 0.561056 196.432 0.588686C203.093 0.799492 209.748 0.982707 216.333 1.6902C216.428 1.70037 216.251 1.76938 216.44 1.78931C218.722 2.03815 218.295 1.87187 219.826 1.86968C220.217 1.86975 221.354 2.19462 221.453 2.2219C221.816 2.31812 221.417 2.39539 221.539 2.42032C222.563 2.62659 222.447 2.1942 223.843 2.38326C223.887 2.38994 223.693 2.43993 223.809 2.46349C224.164 2.53617 224.535 2.55784 224.882 2.6328C225.158 2.6924 225.37 2.75926 225.576 2.82291C225.978 2.94626 226.375 3.0617 227.202 3.09476C227.361 3.10045 227.153 2.83784 228.393 3.0123C228.887 3.08282 231.08 3.36085 231.693 3.4528C232.305 3.54541 231.874 3.5669 231.917 3.57568C233.559 3.88273 232.927 3.84466 233.738 4.09464C234.549 4.34373 234.362 3.96718 234.705 3.97036C235.049 3.9737 236.253 4.20538 236.547 4.27047C236.842 4.33564 236.464 4.33727 236.727 4.38604C238.472 4.70779 237.52 4.30853 238.106 4.32476C239.488 4.36251 240.519 4.75191 241.766 4.93329C242.104 4.9824 241.835 4.88913 242.137 4.92133C243.332 5.04995 244.039 5.2208 245.405 5.32155C245.629 5.33796 246.746 5.32509 247.44 5.53285C247.539 5.56255 247.245 5.58894 247.751 5.67061C247.955 5.7037 248.204 5.74227 248.475 5.78281C249.203 5.89244 250.092 5.9998 250.689 6.05139C251.293 6.10326 250.615 5.91993 251.37 6.0375C251.706 6.08948 251.075 6.08261 251.706 6.17495C252.332 6.26677 253.95 6.4391 254.562 6.50454C255.177 6.57014 254.848 6.45243 254.899 6.45255C255.202 6.45423 256.385 6.54735 256.486 6.55912C258.302 6.76095 260.064 6.98449 261.806 7.21865C265.077 7.63843 268.327 7.75677 271.681 7.82589C272.085 7.83338 271.818 7.74076 271.88 7.74102C273.26 7.74233 272.166 7.93994 273.128 8.0419C272.993 7.86513 273.562 7.91088 274.534 7.92098C275.002 7.92603 274.75 7.85122 274.793 7.84564C275.49 7.76541 275.973 7.91576 276.094 7.94741C276.552 8.06413 277.055 7.97006 277.367 8.05285C277.67 8.13458 276.965 8.19123 277.853 8.24229C277.862 8.24285 277.872 8.24342 277.881 8.24399C278.015 8.22124 277.911 8.15933 277.861 8.10493C277.837 8.07722 277.826 8.05144 277.866 8.03367C277.906 8.0163 277.999 8.0068 278.174 8.01129C280.852 8.11626 285.792 8.56844 287.943 8.61715C290.078 8.69562 290.774 8.69594 292.019 8.74517C294.276 8.82928 293.442 8.69266 294.852 8.66087C296.249 8.62691 295.573 8.91243 295.772 8.97906C295.975 9.04554 296.18 8.98293 296.427 9.02121C296.672 9.05943 296.138 9.09558 296.718 9.1164C296.826 9.12023 296.969 9.1202 297.134 9.11718C297.821 9.10349 298.925 9.03045 299.084 8.97783C299.517 8.84137 298.813 8.68665 300.338 8.7537C300.425 8.75762 300.141 8.8327 300.476 8.84377C303.155 8.92912 305.933 8.95124 308.605 9.01777C308.973 9.02703 308.643 9.11193 308.858 9.11829C311.086 9.18424 310.291 9.03443 311.514 8.87742C311.24 9.09198 311.911 9.22709 313.603 9.23392C314.618 9.23797 314.449 9.14317 315.104 9.07862C315.3 9.05916 316.018 9.12569 316.149 9.08168C316.579 8.93779 315.907 8.77434 317.645 8.84252C317.722 8.84573 317.478 8.92455 317.742 8.92986C319.453 8.96437 319.658 8.8132 321.502 8.79661C322.951 8.78361 325.523 8.87626 327.173 8.88982C327.138 9.13245 328.695 9.0755 329.326 8.90729C330.396 8.91267 331.547 8.90107 332.585 8.92174C332.941 8.92877 332.708 8.99955 332.752 9.00704C333.439 9.12442 333.904 8.96041 334.136 8.95337C336.638 8.88417 338.676 8.99942 341.064 8.86636C341.148 8.86156 341.288 8.69239 341.925 8.81182C341.966 8.82006 341.182 8.9012 342.299 8.90073C343.433 8.90022 345.536 8.97655 347.1 8.88513C347.481 8.86318 348.425 8.71816 349.201 8.81731C349.304 8.8308 349.192 8.88023 349.341 8.90565C349.823 8.98648 350.06 8.81374 350.637 8.95207C350.857 9.00588 351.168 9.05315 351.547 9.08377C352.18 9.13136 352.957 9.13694 353.938 9.05469C353.99 9.05062 354.351 8.90795 354.846 8.8973C355.644 8.8807 356.768 8.8727 357.577 8.83919C357.978 8.82262 357.718 8.74918 357.788 8.74484C360.443 8.58375 362.327 8.55224 365.16 8.32148C365.671 8.28088 367.158 8.00983 368.166 7.96592C369.274 7.90994 368.196 8.50271 370.72 8.00204C371.736 7.78707 372.905 7.04956 374.76 6.85124C376.027 6.49883 377.25 6.10942 378.454 5.71559C380.565 5.17278 382.683 4.76543 384.907 4.30425C385.064 4.27162 385.542 4.03926 385.917 3.9778C386.473 3.88673 386.788 3.90449 387.189 3.8447C388.857 3.59858 390.374 3.32387 391.988 3.12086C392.603 3.04417 392.393 3.14184 393.127 3.05285C393.854 2.96584 394.335 2.81333 395.328 2.74242C395.846 2.70606 396.372 2.74462 396.98 2.74353L396.969 2.74439C397.231 2.7616 397.526 2.77153 397.83 2.76576C397.865 2.57749 398.544 2.55174 399.765 2.46065C400.002 2.44301 399.745 2.38664 399.857 2.37494C400.303 2.32629 400.724 2.36682 401.153 2.31717C401.259 2.30518 401.261 2.24124 401.345 2.22793C402.072 2.11164 403.261 2.22309 403.472 2.24274C404.257 2.31715 404.625 2.22509 405.228 2.24791C405.83 2.27091 404.93 2.33911 405.636 2.34503C407.093 2.35738 408.967 2.30739 410.445 2.28122C411.037 2.27033 410.632 2.1931 410.716 2.18956C411.937 2.14393 413.172 2.21177 413.847 2.02972C414.702 2.45321 414.583 1.97358 416.33 2.03076C416.469 2.03545 416.647 2.23989 416.119 2.27961C415.592 2.31929 414.792 2.26858 414.058 2.3294C413.886 2.34362 412.894 2.55639 412.761 2.57071C411.699 2.68267 411.545 2.37565 411.487 2.35967C410.85 2.18795 409.635 2.42176 409.318 2.44285C407.86 2.53909 406.612 2.52296 405.391 2.59944C404.595 2.64922 404.522 2.85436 403.891 2.86422C401.807 2.89884 401.067 2.63589 399.111 2.95048C398.691 3.01903 399.116 3.22225 397.605 3.10951C397.568 3.10614 397.3 3.08191 396.984 3.06856L397.016 3.0661C396.618 3.07586 396.127 3.10816 395.78 3.20372C395.7 3.22563 395.71 3.28963 395.605 3.30724C394.894 3.42501 394.414 3.43003 393.639 3.55042C392.866 3.67079 391.939 3.8273 391.052 3.92639C390.515 3.98606 389.82 3.96331 389.557 3.97182C388.825 3.99171 388.076 4.24748 387.613 4.21642C387.148 4.18573 388.003 3.88913 386.813 4.01314C386.796 4.1862 386.726 4.37253 386.682 4.55114C384.108 4.97134 381.579 5.40172 379.057 6.05352C378.746 6.13501 379.087 6.13986 378.753 6.23051C378.701 6.24484 378.649 6.259 378.597 6.27302L378.635 6.26169C377.308 6.71472 376.074 7.049 374.637 7.43737C373.48 7.75204 372.215 8.11307 370.977 8.35035C370.188 8.29683 368.38 8.63213 367.037 8.7638C366.562 8.81198 366.6 8.75559 366.263 8.77511C364.999 8.84361 365.609 8.95033 365.266 9.01157C363.801 9.26162 363.637 8.89058 361.903 9.02201C361.803 9.03024 360.703 9.30456 360.541 9.32552C359.555 9.46396 360.372 9.264 359.757 9.28186C358.612 9.31299 357.842 9.29778 356.52 9.40375C356.124 9.43535 355.218 9.59113 354.46 9.51C354.363 9.49938 354.415 9.43032 354.337 9.4282C352.896 9.39401 352.871 9.605 352.047 9.6898C351.896 9.70507 351.729 9.71311 351.554 9.71574C350.812 9.72711 349.901 9.63206 349.702 9.59941C349.031 9.4966 350.212 9.54733 350.248 9.53606C350.676 9.40336 349.765 9.43544 349.052 9.43147C348.937 9.22379 347.968 9.24531 348.322 9.428C348.363 9.44796 348.903 9.42341 349.052 9.43147C348.434 9.64247 347.348 9.67868 346.153 9.49644C345.584 9.41096 346.124 9.30269 344.418 9.35301C343.639 9.37554 343.948 9.51732 343.266 9.56089C341.707 9.66028 339.681 9.53649 338.079 9.56418C337.495 9.57425 338.064 9.65065 337.664 9.66023C336.609 9.68581 335.67 9.62999 334.615 9.66341C334.519 9.66654 334.754 9.74826 334.424 9.75028C331.921 9.76704 329.742 9.71822 327.129 9.71883C325.866 9.71927 323.61 9.76492 322.303 9.75482C320.037 9.73827 317.25 9.61366 315.312 9.63741C314.052 9.65256 314.324 9.73566 313.784 9.79017C312.743 9.89591 310.896 9.69358 310.643 9.66218C310.635 9.66119 311.727 9.64621 311.146 9.60153C310.806 9.51197 310.656 9.66184 310.643 9.66218C310.481 9.64219 308.305 9.61322 307.881 9.62643C307.65 9.63379 307.778 9.71258 307.656 9.71493C304.742 9.76874 301.848 9.76797 298.895 9.69973C298.844 9.6976 298.922 9.61108 298.802 9.60716C298.187 9.58616 297.617 9.58485 297.128 9.59444C296.24 9.61022 295.48 9.65698 294.602 9.68318C293.2 9.72437 292.068 9.68065 291.246 9.51253C290.188 9.50878 288.661 9.40184 287.788 9.33262C286.919 9.2639 286.784 9.4278 286.712 9.42877C284.293 9.44411 282.905 9.27208 280.415 9.06424C279.771 9.01087 278.785 8.9395 277.814 8.8904C277.016 8.84978 276.211 8.82812 275.634 8.81576C274.628 8.79541 274.016 8.73911 273.083 8.73894C272.957 8.73893 273.082 8.81806 273.044 8.81993C272 8.88241 272.506 8.71092 272.291 8.67208C271.514 8.53063 271.033 8.45521 269.695 8.47059C269.387 8.47414 268.479 8.71049 267.914 8.70332C267.18 8.69316 267.461 8.60993 266.693 8.59772C266.627 8.59633 266.637 8.65651 266.164 8.62968C264.731 8.54668 263.206 8.42894 261.681 8.23214C260.881 8.12791 260.082 8.02793 259.296 7.9364C258.987 7.90027 259.372 8.04006 258.925 7.98947C256.835 7.75242 254.546 7.49654 252.51 7.23203C252.01 7.1664 252.331 7.13555 252.224 7.10435C251.569 6.915 250.599 6.97855 250.44 6.96329C249.715 6.89646 249.022 6.8207 248.347 6.73178C245.563 6.36552 243.127 5.9681 240.053 5.6467C239.846 5.62524 238.231 5.61027 237.54 5.36683C237.493 5.35044 236.809 5.10428 236.174 5.13658C236.135 5.13862 236.563 5.27487 235.799 5.17204C235.036 5.06924 233.798 4.97164 232.758 4.74964C232.429 4.67952 231.662 4.42189 230.653 4.42206C230.588 4.42306 229.018 4.51274 228.496 4.24294C228.412 4.19858 228.532 4.00255 227.333 3.95282C227.104 3.94346 227.509 4.04492 226.909 3.99448C226.47 3.95759 225.967 3.88816 225.439 3.8184C224.857 3.74146 224.247 3.66226 223.657 3.63087C223.456 3.61978 222.612 3.64945 221.962 3.45902C221.862 3.42939 222.067 3.38382 221.72 3.33287C220.055 3.08871 218.306 2.95778 216.6 2.7615C216.007 2.69359 216.315 2.60517 215.69 2.52309C215.06 2.44023 213.801 2.31643 213.129 2.32301C212.466 2.33004 213.18 2.55965 212.186 2.50824C207.889 2.29218 203.619 2.00795 199.312 1.8565C198.674 1.83447 199.207 1.91548 198.253 1.88819C197.698 1.87262 197.082 1.85746 196.398 1.84198C192.941 1.76202 188.294 1.70198 185.769 1.549C183.345 1.4025 186.403 1.36341 184.545 1.29125C183.662 1.25706 182.69 1.45536 182.472 1.45923C180.377 1.49992 178.908 1.39051 177.019 1.40082C176.628 1.40304 177.01 1.49219 176.678 1.49316C175.536 1.49721 174.351 1.44903 173.26 1.44769C172.774 1.44733 172.863 1.51331 172.416 1.50501C171.342 1.48597 170.395 1.4524 169.35 1.38513C169.254 1.379 169.898 1.30146 169.104 1.29388C167.82 1.2819 166.225 1.21388 164.748 1.27078C164.309 1.28795 164.292 1.43703 163.349 1.33092C163.152 1.30882 163.404 1.13018 162.307 1.28198C162.123 1.30708 160.276 1.51161 159.373 1.37585C159.134 1.34004 158.524 1.19256 157.997 1.21515C157.926 1.21876 158.212 1.29919 157.776 1.30663C156.236 1.33153 154.62 1.32318 153.041 1.3501C152.62 1.35747 153.248 1.43967 152.62 1.44803C150.88 1.47116 148.734 1.45541 147.031 1.43591C146.409 1.42854 146.839 1.35818 146.793 1.35087C146.069 1.23201 145.631 1.39818 145.389 1.40884C143.886 1.47297 142.734 1.40218 141.345 1.43151C140.959 1.43945 141.233 1.51596 141.156 1.52344C140.365 1.59694 140.953 1.45238 140.454 1.4403C139.054 1.40609 137.476 1.42519 136.071 1.44868C135.547 1.45752 136.139 1.54257 135.665 1.54954C133.486 1.58331 131.232 1.60747 129.054 1.61507C128.452 1.61743 127.892 1.618 127.319 1.61754C126.803 1.61715 127.126 1.54147 127.019 1.52743C126.291 1.42859 125.213 1.60266 124.976 1.62231C123.853 1.71241 123.422 1.66061 122.434 1.69673C117.601 1.85916 111.681 2.10789 107.114 2.40186C105.905 2.46933 104.753 2.521 103.625 2.55695C99.2001 2.68008 95.3509 2.59302 90.8298 2.63641C90.4698 2.63947 90.8332 2.73036 90.5232 2.73426C87.2063 2.77842 83.9269 2.78143 80.6716 3.02532C79.9796 3.0797 79.299 3.13791 78.6214 3.20141C78.29 3.23245 78.7736 3.2784 78.2455 3.33127C77.171 3.43961 75.8086 3.56918 74.7207 3.66083C74.1939 3.70531 74.8885 3.55235 74.3609 3.5987C73.1093 3.70966 71.7907 3.86656 70.5119 4.05181C69.9728 4.13032 70.799 4.11033 70.0975 4.20577C66.7298 4.66323 63.3494 5.23211 59.8601 5.29334C58.4301 5.32405 56.9936 5.3677 55.5491 5.42554C55.22 5.4389 54.907 5.275 54.2035 5.36256C54.1534 5.41733 54.1608 5.47676 54.1415 5.53274C48.0114 5.98136 41.9956 7.08674 35.7859 7.75793C34.8742 7.85435 33.9639 7.88289 33.0659 7.8948C32.7607 7.89786 33.2831 7.98984 32.7028 7.99481C29.2972 8.00154 26.0335 7.82783 22.6133 7.49694C22.2773 7.4635 22.4467 7.30538 21.4564 7.25851C21.2763 7.25071 19.7678 7.15787 19.3741 7.16274C19.321 7.16408 19.5881 7.26552 19.1053 7.22911C16.271 7.01303 13.3227 6.72728 10.5189 6.40861C10.0644 6.35677 10.5578 6.31903 10.2336 6.28128C7.94253 6.01494 5.44283 5.82665 3.26261 5.52163C1.81201 5.31773 2.36274 5.22767 1.59761 5.00173C1.49228 4.97018 0.58864 4.87092 0.549237 4.78211C0.451067 4.55909 0.915505 4.37583 0.758921 4.13258C0.727957 4.08061 -0.502546 4.00148 0.235269 3.96252C0.287874 3.96032 1.17412 4.01566 1.39211 3.99868C1.54477 3.9872 1.28406 3.87362 1.59307 3.87095C1.89899 3.86796 2.24009 3.97606 2.7526 3.98823C3.26864 4.00011 3.04149 3.87887 4.07186 3.97435ZM283.854 8.98707C283.048 8.86003 282.908 9.15115 283.791 9.12973C283.835 9.1283 283.896 8.9934 283.854 8.98707ZM381.56 5.22525C380.498 5.32066 379.842 5.68132 380.589 5.61005C381.335 5.54244 381.881 5.19764 381.56 5.22525ZM392.355 3.33782C391.115 3.39552 390.978 3.84214 392.279 3.58406C392.354 3.5693 392.428 3.33447 392.355 3.33782ZM5.21151 5.33677C5.1964 5.33128 4.55334 5.26129 4.53615 5.26343C4.18121 5.32243 5.47659 5.46332 5.21151 5.33677ZM403.193 2.46849C402.806 2.42113 401.696 2.51913 402.176 2.57678C402.566 2.62281 403.677 2.52695 403.193 2.46849ZM241.782 5.08238C241.77 5.07635 241.304 5.01421 241.31 5.04039C241.332 5.12482 241.983 5.18311 241.782 5.08238ZM421.716 2.09864C418.979 2.12842 417.313 1.80652 420.295 1.79561C420.835 1.79368 419.133 1.92692 419.821 1.94693C421.079 1.98329 421.91 1.74944 423.195 1.84592C423.427 1.86362 421.873 2.09771 421.711 2.09921C421.713 2.09902 421.715 2.09883 421.716 2.09864ZM283.407 8.60213C283.388 8.59743 282.741 8.5543 282.725 8.55678C282.367 8.62999 283.676 8.71774 283.407 8.60213ZM214.591 1.63304C214.553 1.62046 213.05 1.50453 212.996 1.50988C212.198 1.60829 215.249 1.84319 214.591 1.63304ZM327.198 8.89627C327.907 8.80021 328.758 8.78801 329.323 8.90717C328.618 8.90177 327.906 8.9016 327.198 8.89627Z" fill="#E8A200"/>
</svg>
