<svg width="128" height="128" viewBox="0 0 128 128" fill="none" xmlns="http://www.w3.org/2000/svg">
<g id="Rectangle ">
<mask id="path-1-inside-1_277_202" fill="white">
<path fill-rule="evenodd" clip-rule="evenodd" d="M127.522 127.279L127.279 127.522L-2.29889e-05 0.242886L0.242876 -1.3113e-05L127.522 127.279Z"/>
</mask>
<path d="M127.522 127.279L128.229 127.986L128.936 127.279L128.229 126.572L127.522 127.279ZM127.279 127.522L126.572 128.229L127.279 128.936L127.986 128.229L127.279 127.522ZM-2.29889e-05 0.242886L-0.70713 -0.464221L-1.41424 0.242886L-0.70713 0.949993L-2.29889e-05 0.242886ZM0.242876 -1.3113e-05L0.949983 -0.70712L0.242876 -1.41423L-0.46423 -0.70712L0.242876 -1.3113e-05ZM127.522 127.279L126.815 126.572L126.572 126.815L127.279 127.522L127.986 128.229L128.229 127.986L127.522 127.279ZM127.279 127.522L127.986 126.815L0.707084 -0.464221L-2.29889e-05 0.242886L-0.70713 0.949993L126.572 128.229L127.279 127.522ZM-2.29889e-05 0.242886L0.707084 0.949993L0.949983 0.707094L0.242876 -1.3113e-05L-0.46423 -0.70712L-0.70713 -0.464221L-2.29889e-05 0.242886ZM0.242876 -1.3113e-05L-0.46423 0.707094L126.815 127.986L127.522 127.279L128.229 126.572L0.949983 -0.70712L0.242876 -1.3113e-05Z" fill="#E9EBF1" mask="url(#path-1-inside-1_277_202)"/>
</g>
</svg>
