<svg width="128" height="128" viewBox="0 0 128 128" fill="none" xmlns="http://www.w3.org/2000/svg">
<g id="Rectangle ">
<mask id="path-1-inside-1_277_201" fill="white">
<path fill-rule="evenodd" clip-rule="evenodd" d="M127.279 0L127.522 0.242899L0.242856 127.522L-4.36306e-05 127.279L127.279 0Z"/>
</mask>
<path d="M127.279 0L127.986 -0.707107L127.279 -1.41421L126.572 -0.707107L127.279 0ZM127.522 0.242899L128.229 0.950006L128.936 0.242899L128.229 -0.464207L127.522 0.242899ZM0.242856 127.522L-0.464251 128.229L0.242856 128.936L0.949962 128.229L0.242856 127.522ZM-4.36306e-05 127.279L-0.70715 126.572L-1.41426 127.279L-0.70715 127.986L-4.36306e-05 127.279ZM127.279 0L126.572 0.707107L126.815 0.950006L127.522 0.242899L128.229 -0.464207L127.986 -0.707107L127.279 0ZM127.522 0.242899L126.815 -0.464207L-0.464251 126.815L0.242856 127.522L0.949962 128.229L128.229 0.950006L127.522 0.242899ZM0.242856 127.522L0.949962 126.815L0.707063 126.572L-4.36306e-05 127.279L-0.70715 127.986L-0.464251 128.229L0.242856 127.522ZM-4.36306e-05 127.279L0.707063 127.986L127.986 0.707107L127.279 0L126.572 -0.707107L-0.70715 126.572L-4.36306e-05 127.279Z" fill="#E9EBF1" mask="url(#path-1-inside-1_277_201)"/>
</g>
</svg>
