<svg width="180" height="1" viewBox="0 0 180 1" fill="none" xmlns="http://www.w3.org/2000/svg">
<g id="Rectangle">
<mask id="path-1-inside-1_277_200" fill="white">
<path fill-rule="evenodd" clip-rule="evenodd" d="M180 0V0.343511L0 0.343511V0L180 0Z"/>
</mask>
<path d="M180 0L181 0V-1L180 -1V0ZM180 0.343511V1.34351L181 1.34351V0.343511L180 0.343511ZM0 0.343511L-1 0.343511V1.34351L0 1.34351V0.343511ZM0 0V-1L-1 -1V0L0 0ZM180 0L179 0V0.343511L180 0.343511L181 0.343511V0L180 0ZM180 0.343511V-0.656489L0 -0.656489V0.343511V1.34351L180 1.34351V0.343511ZM0 0.343511L1 0.343511V0L0 0L-1 0V0.343511L0 0.343511ZM0 0V1L180 1V0V-1L0 -1V0Z" fill="#E9EBF1" mask="url(#path-1-inside-1_277_200)"/>
</g>
</svg>
