<svg preserveAspectRatio="none" width="100%" height="100%" overflow="visible" style="display: block;" viewBox="0 0 180 180" fill="none" xmlns="http://www.w3.org/2000/svg">
<g id="Polygon">
<path id="Polygon_2" d="M153.257 26.7422L179.458 90L153.257 153.257L90 179.458L26.7422 153.257L0.541016 90L26.7422 26.7422L90 0.541016L153.257 26.7422Z" stroke="var(--stroke-0, #E9EBF1)"/>
<path id="Polygon_3" d="M141.135 38.8655L162.315 89.9993L141.135 141.135L89.9993 162.315L38.8655 141.135L17.6839 89.9993L38.8645 38.8645L89.9993 17.6839L141.135 38.8655Z" stroke="var(--stroke-0, #E9EBF1)"/>
<path id="Polygon_4" d="M129.013 50.9859L145.172 89.9996L129.013 129.013L89.9996 145.172L50.9859 129.013L34.8267 89.9996L50.9859 50.9859L89.9996 34.8267L129.013 50.9859Z" stroke="var(--stroke-0, #E9EBF1)"/>
<path id="Polygon_5" d="M116.891 63.1073L128.029 89.9999L116.891 116.891L89.9999 128.029L63.1073 116.891L51.9696 89.9999L63.1073 63.1073L89.9999 51.9696L116.891 63.1073Z" stroke="var(--stroke-0, #E9EBF1)"/>
<path id="Polygon_6" d="M104.77 75.2296L110.887 90.0001L104.77 104.77L90.0001 110.887L75.2296 104.77L69.1124 90.0001L75.2296 75.2296L90.0001 69.1124L104.77 75.2296Z" stroke="var(--stroke-0, #E9EBF1)"/>
</g>
</svg>
