<svg preserveAspectRatio="none" width="100%" height="100%" overflow="visible" style="display: block;" viewBox="0 0 180 180" fill="none" xmlns="http://www.w3.org/2000/svg">
<g id="Lines">
<g id="Rectangle">
<mask id="path-1-inside-1_0_48" fill="white">
<path fill-rule="evenodd" clip-rule="evenodd" d="M89.8286 0H90.1721V180H89.8286V0Z"/>
</mask>
<path d="M89.8286 0V-1H88.8286V0H89.8286ZM90.1721 0H91.1721V-1H90.1721V0ZM90.1721 180V181H91.1721V180H90.1721ZM89.8286 180H88.8286V181H89.8286V180ZM89.8286 0V1H90.1721V0V-1H89.8286V0ZM90.1721 0H89.1721V180H90.1721H91.1721V0H90.1721ZM90.1721 180V179H89.8286V180V181H90.1721V180ZM89.8286 180H90.8286V0H89.8286H88.8286V180H89.8286Z" fill="var(--stroke-0, #E9EBF1)" mask="url(#path-1-inside-1_0_48)"/>
</g>
<g id="Rectangle_2">
<mask id="path-3-inside-2_0_48" fill="white">
<path fill-rule="evenodd" clip-rule="evenodd" d="M180 89.8286V90.1721L0 90.1721V89.8286L180 89.8286Z"/>
</mask>
<path d="M180 89.8286H181V88.8286H180V89.8286ZM180 90.1721V91.1721H181V90.1721H180ZM0 90.1721H-1V91.1721H0V90.1721ZM0 89.8286V88.8286H-1V89.8286H0ZM180 89.8286H179V90.1721H180H181V89.8286H180ZM180 90.1721V89.1721L0 89.1721V90.1721V91.1721L180 91.1721V90.1721ZM0 90.1721H1V89.8286H0H-1V90.1721H0ZM0 89.8286V90.8286L180 90.8286V89.8286V88.8286L0 88.8286V89.8286Z" fill="var(--stroke-0, #E9EBF1)" mask="url(#path-3-inside-2_0_48)"/>
</g>
<g id="Rectangle ">
<mask id="path-5-inside-3_0_48" fill="white">
<path fill-rule="evenodd" clip-rule="evenodd" d="M153.518 26.2392L153.761 26.4821L26.4821 153.761L26.2392 153.518L153.518 26.2392Z"/>
</mask>
<path d="M153.518 26.2392L154.225 25.5321L153.518 24.825L152.811 25.5321L153.518 26.2392ZM153.761 26.4821L154.468 27.1892L155.175 26.4821L154.468 25.775L153.761 26.4821ZM26.4821 153.761L25.775 154.468L26.4821 155.176L27.1892 154.468L26.4821 153.761ZM26.2392 153.518L25.5321 152.811L24.825 153.518L25.5321 154.225L26.2392 153.518ZM153.518 26.2392L152.811 26.9463L153.054 27.1892L153.761 26.4821L154.468 25.775L154.225 25.5321L153.518 26.2392ZM153.761 26.4821L153.054 25.775L25.775 153.054L26.4821 153.761L27.1892 154.468L154.468 27.1892L153.761 26.4821ZM26.4821 153.761L27.1892 153.054L26.9463 152.811L26.2392 153.518L25.5321 154.225L25.775 154.468L26.4821 153.761ZM26.2392 153.518L26.9463 154.225L154.225 26.9463L153.518 26.2392L152.811 25.5321L25.5321 152.811L26.2392 153.518Z" fill="var(--stroke-0, #E9EBF1)" mask="url(#path-5-inside-3_0_48)"/>
</g>
<g id="Rectangle _2">
<mask id="path-7-inside-4_0_48" fill="white">
<path fill-rule="evenodd" clip-rule="evenodd" d="M153.761 153.518L153.518 153.761L26.2387 26.4821L26.4816 26.2392L153.761 153.518Z"/>
</mask>
<path d="M153.761 153.518L154.468 154.225L155.175 153.518L154.468 152.811L153.761 153.518ZM153.518 153.761L152.811 154.468L153.518 155.175L154.225 154.468L153.518 153.761ZM26.2387 26.4821L25.5316 25.775L24.8245 26.4821L25.5316 27.1892L26.2387 26.4821ZM26.4816 26.2392L27.1887 25.5321L26.4816 24.825L25.7745 25.5321L26.4816 26.2392ZM153.761 153.518L153.054 152.811L152.811 153.054L153.518 153.761L154.225 154.468L154.468 154.225L153.761 153.518ZM153.518 153.761L154.225 153.054L26.9458 25.775L26.2387 26.4821L25.5316 27.1892L152.811 154.468L153.518 153.761ZM26.2387 26.4821L26.9458 27.1892L27.1887 26.9463L26.4816 26.2392L25.7745 25.5321L25.5316 25.775L26.2387 26.4821ZM26.4816 26.2392L25.7745 26.9463L153.054 154.225L153.761 153.518L154.468 152.811L27.1887 25.5321L26.4816 26.2392Z" fill="var(--stroke-0, #E9EBF1)" mask="url(#path-7-inside-4_0_48)"/>
</g>
</g>
</svg>
